M48
; DRILL file {KiCad 9.0.2} date 2025-06-28T19:13:58-0500
; FORMAT={-:-/ absolute / metric / decimal}
; #@! TF.CreationDate,2025-06-28T19:13:58-05:00
; #@! TF.GenerationSoftware,Kicad,Pcbnew,9.0.2
; #@! TF.FileFunction,Plated,1,2,PTH
FMAT,2
METRIC
; #@! TA.AperFunction,Plated,PTH,ComponentDrill
T1C0.700
; #@! TA.AperFunction,Plated,PTH,ComponentDrill
T2C0.889
; #@! TA.AperFunction,Plated,PTH,ComponentDrill
T3C1.210
; #@! TA.AperFunction,Plated,PTH,ComponentDrill
T4C1.500
%
G90
G05
T1
X48.6Y-94.87
X53.68Y-94.87
X57.24Y-111.91
X57.24Y-116.99
X80.11Y-120.61
X85.19Y-120.61
X86.96Y-96.54
X86.96Y-101.62
T2
X99.85Y-125.38
X99.85Y-140.62
X102.39Y-125.38
X102.39Y-140.62
X104.93Y-125.38
X104.93Y-140.62
X107.47Y-125.38
X107.47Y-140.62
X110.01Y-125.38
X110.01Y-140.62
X112.55Y-125.38
X112.55Y-140.62
X115.09Y-125.38
X115.09Y-140.62
T3
X49.66Y-100.24
X52.2Y-100.24
X61.19Y-114.74
X63.73Y-114.74
X77.83Y-99.22
X80.37Y-99.22
X81.28Y-115.47
X83.82Y-115.47
T4
X42.1Y-130.38
X48.45Y-127.84
X62.69Y-130.24
X69.04Y-127.7
X82.84Y-130.24
X89.19Y-127.7
X103.01Y-110.37
X109.36Y-107.83
M30
