%TF.GenerationSoftware,KiCad,Pcbnew,9.0.2*%
%TF.CreationDate,2025-06-28T19:08:21-05:00*%
%TF.ProjectId,pioneer,70696f6e-6565-4722-9e6b-696361645f70,rev?*%
%TF.SameCoordinates,Original*%
%TF.FileFunction,Profile,NP*%
%FSLAX46Y46*%
G04 Gerber Fmt 4.6, Leading zero omitted, Abs format (unit mm)*
G04 Created by KiCad (PCBNEW 9.0.2) date 2025-06-28 19:08:21*
%MOMM*%
%LPD*%
G01*
G04 APERTURE LIST*
%TA.AperFunction,Profile*%
%ADD10C,0.100000*%
%TD*%
G04 APERTURE END LIST*
D10*
X108892218Y-91826466D02*
X109333530Y-91826387D01*
X109774842Y-91824698D01*
X110614039Y-91830499D01*
X111024835Y-91843947D01*
X111429780Y-91866904D01*
X111828885Y-91901229D01*
X112222164Y-91948781D01*
X112609629Y-92011419D01*
X112991292Y-92091001D01*
X113367166Y-92189385D01*
X113737263Y-92308432D01*
X114101597Y-92449998D01*
X114460178Y-92615943D01*
X114813021Y-92808126D01*
X115160138Y-93028404D01*
X115501540Y-93278638D01*
X115837241Y-93560684D01*
X116110108Y-93852229D01*
X116362039Y-94144268D01*
X116593643Y-94437679D01*
X116805531Y-94733342D01*
X116998315Y-95032133D01*
X117172604Y-95334931D01*
X117329010Y-95642614D01*
X117468142Y-95956060D01*
X117590612Y-96276147D01*
X117697031Y-96603752D01*
X117788008Y-96939754D01*
X117864155Y-97285032D01*
X117926081Y-97640462D01*
X117974399Y-98006922D01*
X118009718Y-98385292D01*
X118032649Y-98776448D01*
X118051923Y-99220012D01*
X118092352Y-100581761D01*
X118110948Y-101943545D01*
X118112283Y-104667899D01*
X118110822Y-105842518D01*
X118103238Y-109328410D01*
X118099202Y-110977599D01*
X118084086Y-116467909D01*
X118079511Y-117883065D01*
X118078363Y-118238245D01*
X118066395Y-123952529D01*
X118052079Y-129841047D01*
X118044938Y-133138782D01*
X118035658Y-136234869D01*
X118034141Y-136801808D01*
X118034223Y-137368751D01*
X118032793Y-138144271D01*
X118027900Y-138919778D01*
X118031135Y-139369495D01*
X118020525Y-139673654D01*
X117996848Y-139970739D01*
X117960366Y-140261185D01*
X117911342Y-140545426D01*
X117850039Y-140823897D01*
X117776721Y-141097032D01*
X117691650Y-141365265D01*
X117595088Y-141629030D01*
X117487299Y-141888762D01*
X117368546Y-142144895D01*
X117239090Y-142397863D01*
X117099197Y-142648101D01*
X116949127Y-142896042D01*
X116789144Y-143142122D01*
X116619511Y-143386773D01*
X116440491Y-143630432D01*
X116159484Y-144012178D01*
X115943826Y-144245776D01*
X115716854Y-144462287D01*
X115479306Y-144662326D01*
X115231922Y-144846506D01*
X114975442Y-145015443D01*
X114710605Y-145169750D01*
X114438150Y-145310044D01*
X114158817Y-145436937D01*
X113873346Y-145551045D01*
X113582477Y-145652982D01*
X113286948Y-145743363D01*
X112987500Y-145822803D01*
X112684871Y-145891915D01*
X112379802Y-145951314D01*
X112073033Y-146001616D01*
X111765302Y-146043434D01*
X111447911Y-146052423D01*
X111131255Y-146058829D01*
X110814623Y-146062493D01*
X110497300Y-146063255D01*
X110120750Y-146064195D01*
X108871675Y-146064612D01*
X107967047Y-146065969D01*
X105481064Y-146067565D01*
X102800000Y-146070000D01*
X96632417Y-146073727D01*
X93583940Y-146075188D01*
X83146333Y-146079263D01*
X82491428Y-146079363D01*
X81834957Y-146079459D01*
X80517993Y-146079663D01*
X80188166Y-146079711D01*
X69598100Y-146086173D01*
X58398371Y-146092136D01*
X57168841Y-146092231D01*
X56863045Y-146092253D01*
X52294413Y-146095875D01*
X47097823Y-146097728D01*
X44446366Y-146099398D01*
X42018653Y-146099307D01*
X41579773Y-146099447D01*
X41140895Y-146100794D01*
X40664600Y-146097952D01*
X40202685Y-146084352D01*
X39754125Y-146058483D01*
X39317898Y-146018833D01*
X38892979Y-145963890D01*
X38478345Y-145892144D01*
X38072972Y-145802082D01*
X37675836Y-145692193D01*
X37285913Y-145560965D01*
X36902180Y-145406888D01*
X36523613Y-145228448D01*
X36149188Y-145024135D01*
X35777881Y-144792437D01*
X35408668Y-144531843D01*
X35040527Y-144240841D01*
X34672432Y-143917919D01*
X34512566Y-143743671D01*
X34362417Y-143566922D01*
X34221682Y-143387728D01*
X34090058Y-143206143D01*
X33967241Y-143022222D01*
X33852927Y-142836021D01*
X33648592Y-142456993D01*
X33474624Y-142069501D01*
X33328592Y-141673981D01*
X33208068Y-141270874D01*
X33110620Y-140860619D01*
X33033820Y-140443653D01*
X32975236Y-140020417D01*
X32932439Y-139591348D01*
X32902998Y-139156887D01*
X32884485Y-138717472D01*
X32874468Y-138273541D01*
X32870205Y-137373891D01*
X32869170Y-136869909D01*
X32868463Y-135210929D01*
X32866928Y-134016222D01*
X32865177Y-131115606D01*
X32864318Y-128756311D01*
X32862406Y-122055582D01*
X32862425Y-121691411D01*
X32862443Y-121326796D01*
X32858935Y-115476762D01*
X32855858Y-109458533D01*
X32853871Y-106084330D01*
X32853193Y-103211934D01*
X32852386Y-101748746D01*
X32852882Y-99803469D01*
X32862492Y-99006892D01*
X32883094Y-98311365D01*
X32918251Y-97704641D01*
X32971526Y-97174478D01*
X33046481Y-96708629D01*
X33146678Y-96294852D01*
X33275681Y-95920901D01*
X33437051Y-95574531D01*
X33634353Y-95243499D01*
X33871149Y-94915560D01*
X34151000Y-94578469D01*
X34477471Y-94219983D01*
X35284519Y-93389843D01*
X35529017Y-93170609D01*
X35781693Y-92971951D01*
X36042112Y-92792997D01*
X36309839Y-92632875D01*
X36584441Y-92490714D01*
X36865483Y-92365640D01*
X37152530Y-92256783D01*
X37445148Y-92163270D01*
X37742902Y-92084230D01*
X38045359Y-92018791D01*
X38352084Y-91966081D01*
X38662643Y-91925228D01*
X38976600Y-91895359D01*
X39293522Y-91875605D01*
X39612974Y-91865092D01*
X39934522Y-91862948D01*
X40314801Y-91861346D01*
X41571009Y-91861416D01*
X42482909Y-91859345D01*
X44984860Y-91857896D01*
X47684748Y-91854862D01*
X52972814Y-91851360D01*
X57271426Y-91849640D01*
X58509673Y-91848834D01*
X58820631Y-91848632D01*
X67477508Y-91845719D01*
X67807052Y-91845733D01*
X69460553Y-91845819D01*
X69792250Y-91845837D01*
X70456314Y-91845875D01*
X80786959Y-91839670D01*
X92398831Y-91832721D01*
X93637652Y-91832768D01*
X93945748Y-91832778D01*
X98848365Y-91828264D01*
X103777839Y-91827392D01*
X106446879Y-91825777D01*
X107669548Y-91824246D01*
X108892218Y-91826466D01*
M02*
