%TF.GenerationSoftware,KiCad,Pcbnew,9.0.2*%
%TF.CreationDate,2025-06-28T19:08:21-05:00*%
%TF.ProjectId,pioneer,70696f6e-6565-4722-9e6b-696361645f70,rev?*%
%TF.SameCoordinates,Original*%
%TF.FileFunction,Soldermask,Bot*%
%TF.FilePolarity,Negative*%
%FSLAX46Y46*%
G04 Gerber Fmt 4.6, Leading zero omitted, Abs format (unit mm)*
G04 Created by KiCad (PCBNEW 9.0.2) date 2025-06-28 19:08:21*
%MOMM*%
%LPD*%
G01*
G04 APERTURE LIST*
G04 Aperture macros list*
%AMRoundRect*
0 Rectangle with rounded corners*
0 $1 Rounding radius*
0 $2 $3 $4 $5 $6 $7 $8 $9 X,Y pos of 4 corners*
0 Add a 4 corners polygon primitive as box body*
4,1,4,$2,$3,$4,$5,$6,$7,$8,$9,$2,$3,0*
0 Add four circle primitives for the rounded corners*
1,1,$1+$1,$2,$3*
1,1,$1+$1,$4,$5*
1,1,$1+$1,$6,$7*
1,1,$1+$1,$8,$9*
0 Add four rect primitives between the rounded corners*
20,1,$1+$1,$2,$3,$4,$5,0*
20,1,$1+$1,$4,$5,$6,$7,0*
20,1,$1+$1,$6,$7,$8,$9,0*
20,1,$1+$1,$8,$9,$2,$3,0*%
G04 Aperture macros list end*
%ADD10C,2.019000*%
%ADD11RoundRect,0.102000X-0.907500X-0.907500X0.907500X-0.907500X0.907500X0.907500X-0.907500X0.907500X0*%
%ADD12C,1.700000*%
%ADD13C,4.000000*%
%ADD14C,2.200000*%
%ADD15C,1.400000*%
%ADD16C,1.524000*%
G04 APERTURE END LIST*
D10*
%TO.C,D2*%
X52200428Y-100240000D03*
D11*
X49660428Y-100240000D03*
%TD*%
D12*
%TO.C,SW4*%
X81570000Y-132780000D03*
D13*
X86650000Y-132780000D03*
D12*
X91730000Y-132780000D03*
D14*
X89190000Y-127700000D03*
X82840000Y-130240000D03*
%TD*%
D15*
%TO.C,R2*%
X48600000Y-94870000D03*
X53680000Y-94870000D03*
%TD*%
D10*
%TO.C,D5*%
X83820428Y-115470000D03*
D11*
X81280428Y-115470000D03*
%TD*%
D15*
%TO.C,R3*%
X57240000Y-116990000D03*
X57240000Y-111910000D03*
%TD*%
%TO.C,R1*%
X86960000Y-101620000D03*
X86960000Y-96540000D03*
%TD*%
D12*
%TO.C,SW1*%
X101740000Y-112910000D03*
D13*
X106820000Y-112910000D03*
D12*
X111900000Y-112910000D03*
D14*
X109360000Y-107830000D03*
X103010000Y-110370000D03*
%TD*%
D12*
%TO.C,SW2*%
X40830000Y-132920000D03*
D13*
X45910000Y-132920000D03*
D12*
X50990000Y-132920000D03*
D14*
X48450000Y-127840000D03*
X42100000Y-130380000D03*
%TD*%
D10*
%TO.C,D1*%
X80370000Y-99220000D03*
D11*
X77830000Y-99220000D03*
%TD*%
D10*
%TO.C,D3*%
X63730000Y-114740000D03*
D11*
X61190000Y-114740000D03*
%TD*%
D16*
%TO.C,U1*%
X115090000Y-125380000D03*
X112550000Y-125380000D03*
X110010000Y-125380000D03*
X107470000Y-125380000D03*
X104930000Y-125380000D03*
X102390000Y-125380000D03*
X99850000Y-125380000D03*
X99850000Y-140620000D03*
X102390000Y-140620000D03*
X104930000Y-140620000D03*
X107470000Y-140620000D03*
X110010000Y-140620000D03*
X112550000Y-140620000D03*
X115090000Y-140620000D03*
%TD*%
D15*
%TO.C,R4*%
X80110000Y-120610000D03*
X85190000Y-120610000D03*
%TD*%
D12*
%TO.C,SW3*%
X61420000Y-132780000D03*
D13*
X66500000Y-132780000D03*
D12*
X71580000Y-132780000D03*
D14*
X69040000Y-127700000D03*
X62690000Y-130240000D03*
%TD*%
M02*
