<?xml version="1.0" encoding="UTF-8"?>
<svg version="1.1" xmlns="http://www.w3.org/2000/svg" width="373" height="379">
<path d="M0 0 C0.99 0 1.98 0 3 0 C3.185625 0.639375 3.37125 1.27875 3.5625 1.9375 C4.94246056 4.42126213 4.94246056 4.42126213 8.625 4.75 C9.73875 4.8325 10.8525 4.915 12 5 C11.690625 5.556875 11.38125 6.11375 11.0625 6.6875 C9.47860666 10.13479727 9 13.2207586 9 17 C7.4221875 16.6596875 7.4221875 16.6596875 5.8125 16.3125 C1.61198583 15.96819556 0.2837938 16.51227742 -3 19 C-3.0825 17.7625 -3.165 16.525 -3.25 15.25 C-3.63475459 12.01117036 -3.90024003 11.12092117 -6.0625 8.5 C-6.701875 8.005 -7.34125 7.51 -8 7 C-4.535 6.505 -4.535 6.505 -1 6 C-0.67 4.02 -0.34 2.04 0 0 Z " fill="#010101" transform="translate(279,314)"/>
<path d="M0 0 C0.66 0.33 1.32 0.66 2 1 C2.103125 1.804375 2.20625 2.60875 2.3125 3.4375 C2.6528125 4.7059375 2.6528125 4.7059375 3 6 C5.47636012 7.37466625 5.47636012 7.37466625 8 8 C6.25 11.875 6.25 11.875 4 13 C3.34227572 16.02934491 3.34227572 16.02934491 3 19 C-1.75 17.125 -1.75 17.125 -4 16 C-5.67654729 16.27942455 -7.34608154 16.60828247 -9 17 C-8.79375 15.96875 -8.5875 14.9375 -8.375 13.875 C-7.98805597 9.8765784 -8.48116924 7.66306243 -10 4 C-7.69 4.33 -5.38 4.66 -3 5 C-2.690625 4.360625 -2.38125 3.72125 -2.0625 3.0625 C-1 1 -1 1 0 0 Z " fill="#020202" transform="translate(83,218)"/>
<path d="M0 0 C0.495 0.350625 0.99 0.70125 1.5 1.0625 C5.22697603 2.46011601 8.09802848 1.65032859 12 1 C11.938125 2.093125 11.87625 3.18625 11.8125 4.3125 C11.62756763 7.91752611 11.62756763 7.91752611 13.5 9.8125 C13.995 10.204375 14.49 10.59625 15 11 C15 11.66 15 12.32 15 13 C13.88625 13.2475 12.7725 13.495 11.625 13.75 C7.95384802 14.61005339 7.95384802 14.61005339 6.5625 17.125 C6.376875 17.74375 6.19125 18.3625 6 19 C5.34 19 4.68 19 4 19 C3.79375 18.21625 3.5875 17.4325 3.375 16.625 C2.19323388 13.69083714 2.19323388 13.69083714 -1.125 12.6875 C-2.548125 12.3471875 -2.548125 12.3471875 -4 12 C-3.34 10.68 -2.68 9.36 -2 8 C-1.34 8 -0.68 8 0 8 C0 5.36 0 2.72 0 0 Z " fill="#020202" transform="translate(147,103)"/>
<path d="M0 0 C0.66 0 1.32 0 2 0 C2.4125 0.804375 2.825 1.60875 3.25 2.4375 C4.80803511 5.32499092 4.80803511 5.32499092 8.1875 5.8125 C9.115625 5.874375 10.04375 5.93625 11 6 C10.690625 6.556875 10.38125 7.11375 10.0625 7.6875 C8.47860666 11.13479727 8 14.2207586 8 18 C6.948125 17.62875 5.89625 17.2575 4.8125 16.875 C0.81367786 15.95723754 -0.49128216 16.08615391 -4 18 C-4.103125 16.88625 -4.20625 15.7725 -4.3125 14.625 C-4.539375 13.42875 -4.76625 12.2325 -5 11 C-5.99 10.34 -6.98 9.68 -8 9 C-8 8.34 -8 7.68 -8 7 C-7.05125 6.773125 -6.1025 6.54625 -5.125 6.3125 C-1.80676612 5.30916286 -1.80676612 5.30916286 -0.625 2.375 C-0.41875 1.59125 -0.2125 0.8075 0 0 Z " fill="#020202" transform="translate(79,107)"/>
<path d="M0 0 C2 2 2 2 2 6 C3.98 6.66 5.96 7.32 8 8 C8 8.66 8 9.32 8 10 C6.35 10.66 4.7 11.32 3 12 C3 14.31 3 16.62 3 19 C2.319375 18.484375 1.63875 17.96875 0.9375 17.4375 C-2.80118832 15.60792912 -5.00443413 16.13821128 -9 17 C-8.79375 15.948125 -8.5875 14.89625 -8.375 13.8125 C-8.00036896 10.00375113 -8.28369933 8.33164248 -10 5 C-8.906875 4.731875 -7.81375 4.46375 -6.6875 4.1875 C-3.38307337 3.12336261 -2.05039578 2.65345336 0 0 Z " fill="#020202" transform="translate(92,313)"/>
<path d="M0 0 C0.66 0.33 1.32 0.66 2 1 C2.625 3.5625 2.625 3.5625 3 6 C5.97 6.495 5.97 6.495 9 7 C8.34 8.32 7.68 9.64 7 11 C6.34 11 5.68 11 5 11 C5 13.31 5 15.62 5 18 C3.6696875 17.4740625 3.6696875 17.4740625 2.3125 16.9375 C-1.06203126 15.98244398 -2.69686152 16.02848868 -6 17 C-5.9071875 15.6696875 -5.9071875 15.6696875 -5.8125 14.3125 C-6.01951982 10.65514983 -6.916074 8.95222849 -9 6 C-8.071875 5.938125 -7.14375 5.87625 -6.1875 5.8125 C-2.8109337 5.31172896 -2.8109337 5.31172896 -1.125 2.4375 C-0.75375 1.633125 -0.3825 0.82875 0 0 Z " fill="#020202" transform="translate(253,253)"/>
<path d="M0 0 C2 3 2 3 2 7 C3.65 7.33 5.3 7.66 7 8 C6.67 8.99 6.34 9.98 6 11 C3.9375 11.6875 3.9375 11.6875 2 12 C2 13.98 2 15.96 2 18 C0 17 -2 16 -4 15 C-5.66619446 14.9603287 -7.33391013 14.95615553 -9 15 C-8.79375 14.113125 -8.5875 13.22625 -8.375 12.3125 C-7.97449761 8.7747289 -8.43316484 7.13367033 -10 4 C-7.69 4.33 -5.38 4.66 -3 5 C-2.690625 4.360625 -2.38125 3.72125 -2.0625 3.0625 C-1 1 -1 1 0 0 Z " fill="#020202" transform="translate(48,302)"/>
<path d="M0 0 C2 3 2 3 2 6 C4.97 6.495 4.97 6.495 8 7 C6.625 9 6.625 9 5 11 C4.34 11 3.68 11 3 11 C3 13.31 3 15.62 3 18 C2.113125 17.484375 1.22625 16.96875 0.3125 16.4375 C-3.20023331 14.9131063 -4.44706507 14.85052105 -8 16 C-7.79375 15.113125 -7.5875 14.22625 -7.375 13.3125 C-6.97449761 9.7747289 -7.43316484 8.13367033 -9 5 C-7.02 5 -5.04 5 -3 5 C-2.690625 4.360625 -2.38125 3.72125 -2.0625 3.0625 C-1 1 -1 1 0 0 Z " fill="#020202" transform="translate(116,248)"/>
<path d="M0 0 C0.7734375 0.495 0.7734375 0.495 1.5625 1 C4.78026512 2.32010877 7.5570528 2.13242105 11 2 C10.79375 2.886875 10.5875 3.77375 10.375 4.6875 C9.97449761 8.2252711 10.43316484 9.86632967 12 13 C10.906875 13.28875 9.81375 13.5775 8.6875 13.875 C4.95986155 14.81893204 4.95986155 14.81893204 2 17 C1.67 15.02 1.34 13.04 1 11 C-1.97 10.505 -1.97 10.505 -5 10 C-5 9.34 -5 8.68 -5 8 C-4.0409375 7.690625 -4.0409375 7.690625 -3.0625 7.375 C-0.65074923 6.10461791 -0.65074923 6.10461791 -0.25 2.875 C-0.1675 1.92625 -0.085 0.9775 0 0 Z " fill="#020202" transform="translate(270,206)"/>
<path d="M0 0 C0.804375 0.495 0.804375 0.495 1.625 1 C4.5391061 2.22699204 6.86867708 2.14233286 10 2 C9.79375 2.886875 9.5875 3.77375 9.375 4.6875 C8.97449761 8.2252711 9.43316484 9.86632967 11 13 C8.03 12.505 8.03 12.505 5 12 C4.71125 12.639375 4.4225 13.27875 4.125 13.9375 C3 16 3 16 1 17 C0.67 15.02 0.34 13.04 0 11 C-1.65 10.67 -3.3 10.34 -5 10 C-4.34 8.68 -3.68 7.36 -3 6 C-2.34 6 -1.68 6 -1 6 C-1.020625 5.195625 -1.04125 4.39125 -1.0625 3.5625 C-1 1 -1 1 0 0 Z " fill="#020202" transform="translate(157,293)"/>
<path d="M0 0 C2 1.375 2 1.375 4 3 C4 3.66 4 4.32 4 5 C5.98 5 7.96 5 10 5 C9.4740625 6.3303125 9.4740625 6.3303125 8.9375 7.6875 C7.98244398 11.06203126 8.02848868 12.69686152 9 16 C8.113125 15.79375 7.22625 15.5875 6.3125 15.375 C2.7747289 14.97449761 1.13367033 15.43316484 -2 17 C-2 15.02 -2 13.04 -2 11 C-4.475 10.01 -4.475 10.01 -7 9 C-7 8.34 -7 7.68 -7 7 C-5.02 6.67 -3.04 6.34 -1 6 C-0.67 4.02 -0.34 2.04 0 0 Z " fill="#020202" transform="translate(329,127)"/>
<path d="M0 0 C0.99 0.66 1.98 1.32 3 2 C5.33199388 2.07905064 7.66832622 2.08798769 10 2 C9.79375 2.886875 9.5875 3.77375 9.375 4.6875 C8.97449761 8.2252711 9.43316484 9.86632967 11 13 C9.906875 13.28875 8.81375 13.5775 7.6875 13.875 C3.95986155 14.81893204 3.95986155 14.81893204 1 17 C0.67 15.02 0.34 13.04 0 11 C-1.65 10.67 -3.3 10.34 -5 10 C-4.67 9.01 -4.34 8.02 -4 7 C-3.34 6.67 -2.68 6.34 -2 6 C-1.27306096 4.02111039 -0.60183749 2.02045442 0 0 Z " fill="#020202" transform="translate(328,303)"/>
<path d="M0 0 C0.66 0.33 1.32 0.66 2 1 C2.625 3.5625 2.625 3.5625 3 6 C4.65 6.33 6.3 6.66 8 7 C8 7.66 8 8.32 8 9 C7.01 9.66 6.02 10.32 5 11 C4.26656572 14.06556598 4.26656572 14.06556598 4 17 C2.9275 16.67 1.855 16.34 0.75 16 C-2.99731601 14.8282249 -2.99731601 14.8282249 -7 15 C-6.79375 14.0925 -6.5875 13.185 -6.375 12.25 C-5.9872755 8.88972103 -6.19588033 7.75924185 -8 5 C-6.02 5 -4.04 5 -2 5 C-1.34 3.35 -0.68 1.7 0 0 Z " fill="#020202" transform="translate(161,196)"/>
<path d="M0 0 C0 2.31 0 4.62 0 7 C1.32 7.66 2.64 8.32 4 9 C2 11 2 11 -1 12 C-2.21869929 14.50447516 -2.21869929 14.50447516 -3 17 C-3.556875 16.360625 -4.11375 15.72125 -4.6875 15.0625 C-7.22066561 12.80319013 -8.68341424 12.36850953 -12 12 C-11.67 11.113125 -11.34 10.22625 -11 9.3125 C-10.08777857 6.29076653 -9.81669042 4.11626294 -10 1 C-9.071875 1.20625 -8.14375 1.4125 -7.1875 1.625 C-3.42526073 2.06761638 -3.22608539 0 0 0 Z " fill="#020202" transform="translate(177,161)"/>
<path d="M0 0 C0.66 0 1.32 0 2 0 C2.061875 0.61875 2.12375 1.2375 2.1875 1.875 C2.828919 4.27761141 2.828919 4.27761141 5.5625 5.25 C6.366875 5.4975 7.17125 5.745 8 6 C8 6.66 8 7.32 8 8 C7.01 8.66 6.02 9.32 5 10 C4.26656572 13.06556598 4.26656572 13.06556598 4 16 C3.484375 15.67 2.96875 15.34 2.4375 15 C-0.78026512 13.67989123 -3.5570528 13.86757895 -7 14 C-6.79375 13.0925 -6.5875 12.185 -6.375 11.25 C-5.9872755 7.88972103 -6.19588033 6.75924185 -8 4 C-6.02 4 -4.04 4 -2 4 C-1.34 2.68 -0.68 1.36 0 0 Z " fill="#010101" transform="translate(188,251)"/>
<path d="M0 0 C1.5 1.375 1.5 1.375 3 3 C3 3.66 3 4.32 3 5 C4.65 5 6.3 5 8 5 C7.67 5.53625 7.34 6.0725 7 6.625 C5.77300796 9.5391061 5.85766714 11.86867708 6 15 C5.0925 14.814375 4.185 14.62875 3.25 14.4375 C0.31685676 14.04265379 -1.2644657 14.05308428 -4 15 C-4.103125 14.071875 -4.20625 13.14375 -4.3125 12.1875 C-5.0070192 8.96745642 -5.47740939 7.97420135 -8 6 C-7 5 -7 5 -4.4375 4.9375 C-3.2309375 4.9684375 -3.2309375 4.9684375 -2 5 C-1.34 3.35 -0.68 1.7 0 0 Z " fill="#020202" transform="translate(214,62)"/>
<path d="M0 0 C0.66 0 1.32 0 2 0 C2.33 1.65 2.66 3.3 3 5 C5.97 5.495 5.97 5.495 9 6 C8.01 7.485 8.01 7.485 7 9 C6.34 9 5.68 9 5 9 C5 10.98 5 12.96 5 15 C4.0925 14.814375 3.185 14.62875 2.25 14.4375 C-0.68314324 14.04265379 -2.2644657 14.05308428 -5 15 C-4.95875 14.0925 -4.9175 13.185 -4.875 12.25 C-4.99531556 9.1217954 -5.3914708 7.61385994 -7 5 C-5.02 4.67 -3.04 4.34 -1 4 C-0.67 2.68 -0.34 1.36 0 0 Z " fill="#030303" transform="translate(239,105)"/>
<path d="M0 0 C3 1 3 1 4 3 C5.64363134 3.72159424 7.31050386 4.39351421 9 5 C8.01 6.485 8.01 6.485 7 8 C6.83300768 11.12521833 6.83300768 11.12521833 7 14 C6.0925 13.814375 5.185 13.62875 4.25 13.4375 C1.31685676 13.04265379 -0.2644657 13.05308428 -3 14 C-4 11 -5 8 -6 5 C-4.35 4.67 -2.7 4.34 -1 4 C-0.67 2.68 -0.34 1.36 0 0 Z " fill="#020202" transform="translate(144,263)"/>
<path d="M0 0 C2 2 2 2 3 5 C4.99665314 6.68538601 4.99665314 6.68538601 7 8 C6.360625 8.20625 5.72125 8.4125 5.0625 8.625 C2.65074923 9.89538209 2.65074923 9.89538209 2.25 13.125 C2.1675 14.07375 2.085 15.0225 2 16 C1.01 15.34 0.02 14.68 -1 14 C-4.12521833 13.83300768 -4.12521833 13.83300768 -7 14 C-6.979375 12.906875 -6.95875 11.81375 -6.9375 10.6875 C-6.81455548 7.05615809 -6.81455548 7.05615809 -8 4 C-6.576875 3.566875 -6.576875 3.566875 -5.125 3.125 C-1.94788422 2.23174891 -1.94788422 2.23174891 0 0 Z " fill="#010101" transform="translate(294,268)"/>
<path d="M0 0 C0.66 0 1.32 0 2 0 C2.12375 0.928125 2.12375 0.928125 2.25 1.875 C2.81258459 4.18437567 2.81258459 4.18437567 5.0625 5.25 C5.701875 5.4975 6.34125 5.745 7 6 C6 9 6 9 4 10 C3.34444881 12.52733235 3.34444881 12.52733235 3 15 C2.1646875 14.505 2.1646875 14.505 1.3125 14 C-1.30284522 12.8690399 -3.1806646 12.84337026 -6 13 C-5.979375 12.0925 -5.95875 11.185 -5.9375 10.25 C-5.9889755 7.57327412 -6.2215017 5.53011948 -7 3 C-6.21625 2.87625 -5.4325 2.7525 -4.625 2.625 C-1.85942178 2.20882007 -1.85942178 2.20882007 0 0 Z " fill="#020202" transform="translate(155,63)"/>
<path d="M0 0 C1.5 1.375 1.5 1.375 3 3 C3 3.66 3 4.32 3 5 C4.65 5 6.3 5 8 5 C7.505 6.3921875 7.505 6.3921875 7 7.8125 C5.85032996 10.92029291 5.85032996 10.92029291 6 14 C2.7 14.33 -0.6 14.66 -4 15 C-3.67 13.02 -3.34 11.04 -3 9 C-4.32 8.34 -5.64 7.68 -7 7 C-6.67 6.34 -6.34 5.68 -6 5 C-5.360625 4.87625 -4.72125 4.7525 -4.0625 4.625 C-1.80148727 4.19060573 -1.80148727 4.19060573 -0.75 1.9375 C-0.5025 1.298125 -0.255 0.65875 0 0 Z " fill="#030303" transform="translate(330,215)"/>
<path d="M0 0 C1.0828125 0.495 1.0828125 0.495 2.1875 1 C5.01697427 2.00603529 7.02895466 2.16977402 10 2 C9.814375 2.928125 9.62875 3.85625 9.4375 4.8125 C8.75876119 8.01343771 8.75876119 8.01343771 10 11 C9.030625 11.28875 8.06125 11.5775 7.0625 11.875 C3.89335797 12.64214682 3.89335797 12.64214682 3 15 C2.34 15 1.68 15 1 15 C0.731875 14.195625 0.46375 13.39125 0.1875 12.5625 C-0.204375 11.716875 -0.59625 10.87125 -1 10 C-1.99 9.67 -2.98 9.34 -4 9 C-3.34 7.68 -2.68 6.36 -2 5 C-1.34 5 -0.68 5 0 5 C0 3.35 0 1.7 0 0 Z " fill="#030303" transform="translate(188,217)"/>
<path d="M0 0 C1.3921875 0.2784375 1.3921875 0.2784375 2.8125 0.5625 C6.01343771 1.24123881 6.01343771 1.24123881 9 0 C9.66 3.3 10.32 6.6 11 10 C9.35 10 7.7 10 6 10 C5.67 11.32 5.34 12.64 5 14 C4.34 14 3.68 14 3 14 C2.67 12.68 2.34 11.36 2 10 C0.35 9.67 -1.3 9.34 -3 9 C-2.67 8.01 -2.34 7.02 -2 6 C-1.34 6 -0.68 6 0 6 C0 4.02 0 2.04 0 0 Z " fill="#020202" transform="translate(256,152)"/>
<path d="M0 0 C0.391875 0.474375 0.78375 0.94875 1.1875 1.4375 C3.40808374 3.35179633 5.13375709 3.61266988 8 4 C7.505 5.11375 7.505 5.11375 7 6.25 C5.77217129 9.13883312 5.77217129 9.13883312 6 13 C4.88625 12.9690625 4.88625 12.9690625 3.75 12.9375 C1.29537721 12.99328688 -0.66109261 13.3069904 -3 14 C-3.309375 13.05125 -3.61875 12.1025 -3.9375 11.125 C-4.87394742 8.13919592 -4.87394742 8.13919592 -6 6 C-5.38125 5.7525 -4.7625 5.505 -4.125 5.25 C-1.64931313 3.79371361 -1.04874998 2.62187494 0 0 Z " fill="#030303" transform="translate(239,327)"/>
<path d="M0 0 C0.99 0.33 1.98 0.66 3 1 C3 1.66 3 2.32 3 3 C4.98 3 6.96 3 9 3 C8.649375 3.7425 8.29875 4.485 7.9375 5.25 C6.95490707 8.1322726 6.9673198 9.21176345 8 12 C7.2575 11.95875 6.515 11.9175 5.75 11.875 C2.91241048 12.00398134 1.41226062 12.57051222 -1 14 C-1 12.35 -1 10.7 -1 9 C-2.32 8.34 -3.64 7.68 -5 7 C-5 6.34 -5 5.68 -5 5 C-3.68 5 -2.36 5 -1 5 C-0.67 3.35 -0.34 1.7 0 0 Z " fill="#030303" transform="translate(210,296)"/>
<path d="M0 0 C0.33 0 0.66 0 1 0 C1.103125 0.763125 1.20625 1.52625 1.3125 2.3125 C2.04364039 5.17059424 2.76951913 6.15742885 5 8 C4.360625 8.2475 3.72125 8.495 3.0625 8.75 C0.81258459 9.81562433 0.81258459 9.81562433 0.25 12.125 C0.1675 12.74375 0.085 13.3625 0 14 C-0.99 13.67 -1.98 13.34 -3 13 C-3 12.34 -3 11.68 -3 11 C-4.65 11 -6.3 11 -8 11 C-7.814375 10.2575 -7.62875 9.515 -7.4375 8.75 C-7.00796892 6.05009037 -7.14877026 4.55368923 -8 2 C-6.865625 1.855625 -5.73125 1.71125 -4.5625 1.5625 C-1.19222799 1.38828522 -1.19222799 1.38828522 0 0 Z " fill="#020202" transform="translate(67,171)"/>
<path d="M0 0 C0 1.65 0 3.3 0 5 C1.32 5.66 2.64 6.32 4 7 C3.360625 7.226875 2.72125 7.45375 2.0625 7.6875 C-0.27193661 8.85250896 -0.27193661 8.85250896 -0.75 11.625 C-0.8325 12.40875 -0.915 13.1925 -1 14 C-1.99 13.34 -2.98 12.68 -4 12 C-5.65549531 11.61500109 -7.3222433 11.27206865 -9 11 C-8.814375 10.2575 -8.62875 9.515 -8.4375 8.75 C-8.00796892 6.05009037 -8.14877026 4.55368923 -9 2 C-7.8553125 2.061875 -7.8553125 2.061875 -6.6875 2.125 C-3.85514078 1.99326236 -2.51629378 0 0 0 Z " fill="#030202" transform="translate(90,32)"/>
<path d="M0 0 C0.66 0.33 1.32 0.66 2 1 C2.33 1.99 2.66 2.98 3 4 C4.49985609 5.66710346 4.49985609 5.66710346 6 7 C5.34 7.66 4.68 8.32 4 9 C3.67 10.32 3.34 11.64 3 13 C0.03 12.67 -2.94 12.34 -6 12 C-5.814375 11.2575 -5.62875 10.515 -5.4375 9.75 C-5.00796892 7.05009037 -5.14877026 5.55368923 -6 3 C-4.35 3 -2.7 3 -1 3 C-0.67 2.01 -0.34 1.02 0 0 Z " fill="#020202" transform="translate(51,92)"/>
<path d="M0 0 C0.99 0.66 1.98 1.32 3 2 C5.62531524 2.16713569 5.62531524 2.16713569 8 2 C7.814375 2.7425 7.62875 3.485 7.4375 4.25 C7.00796892 6.94990963 7.14877026 8.44631077 8 11 C6.8553125 11.2165625 6.8553125 11.2165625 5.6875 11.4375 C2.91827092 11.9632594 2.91827092 11.9632594 0 13 C-0.28875 12.360625 -0.5775 11.72125 -0.875 11.0625 C-1.82823451 8.84793921 -1.82823451 8.84793921 -4 8 C-3.67 7.01 -3.34 6.02 -3 5 C-2.34 5 -1.68 5 -1 5 C-0.67 3.35 -0.34 1.7 0 0 Z " fill="#020202" transform="translate(282,55)"/>
<path d="M0 0 C0.103125 0.598125 0.20625 1.19625 0.3125 1.8125 C1.08876455 4.28243264 2.07088921 5.32251235 4 7 C2.68 7.33 1.36 7.66 0 8 C-0.33 9.65 -0.66 11.3 -1 13 C-1.99 12.34 -2.98 11.68 -4 11 C-5.65549531 10.61500109 -7.3222433 10.27206865 -9 10 C-8.67 7.36 -8.34 4.72 -8 2 C-2.25 0 -2.25 0 0 0 Z " fill="#030304" transform="translate(298,177)"/>
<path d="M0 0 C2.64 0.33 5.28 0.66 8 1 C7.979375 1.763125 7.95875 2.52625 7.9375 3.3125 C7.87057159 6.10185786 7.87057159 6.10185786 9 9 C8.360625 9.12375 7.72125 9.2475 7.0625 9.375 C6.381875 9.58125 5.70125 9.7875 5 10 C4.67 10.66 4.34 11.32 4 12 C3.01 11.67 2.02 11.34 1 11 C1 10.01 1 9.02 1 8 C-0.32 7.67 -1.64 7.34 -3 7 C-2.01 4.69 -1.02 2.38 0 0 Z " fill="#020202" transform="translate(25,342)"/>
<path d="M0 0 C1.423125 0.495 1.423125 0.495 2.875 1 C5.77062452 2.10159191 5.77062452 2.10159191 8 2 C8.33 4.64 8.66 7.28 9 10 C7.35 10 5.7 10 4 10 C3.67 10.99 3.34 11.98 3 13 C2.34 13 1.68 13 1 13 C1 11.68 1 10.36 1 9 C-0.32 8.67 -1.64 8.34 -3 8 C-3 7.34 -3 6.68 -3 6 C-2.34 5.67 -1.68 5.34 -1 5 C-0.34444881 2.47266765 -0.34444881 2.47266765 0 0 Z " fill="#030303" transform="translate(125,46)"/>
<path d="M0 0 C0.66 0.33 1.32 0.66 2 1 C2 1.99 2 2.98 2 4 C3.32 4.33 4.64 4.66 6 5 C5.01 7.31 4.02 9.62 3 12 C0.36 11.67 -2.28 11.34 -5 11 C-4.979375 10.236875 -4.95875 9.47375 -4.9375 8.6875 C-4.87057159 5.89814214 -4.87057159 5.89814214 -6 3 C-5.195625 2.690625 -4.39125 2.38125 -3.5625 2.0625 C-1.10919595 1.23664655 -1.10919595 1.23664655 0 0 Z " fill="#030202" transform="translate(256,33)"/>
<path d="M0 0 C0.66 0 1.32 0 2 0 C2.33 0.66 2.66 1.32 3 2 C5.01669827 3.13350534 5.01669827 3.13350534 7 4 C6.67 4.598125 6.34 5.19625 6 5.8125 C4.79212012 8.05386471 4.79212012 8.05386471 5 11 C2.36 11 -0.28 11 -3 11 C-3.144375 10.21625 -3.28875 9.4325 -3.4375 8.625 C-3.87798925 6.03578982 -3.87798925 6.03578982 -5 4 C-4.0409375 3.8453125 -4.0409375 3.8453125 -3.0625 3.6875 C-2.381875 3.460625 -1.70125 3.23375 -1 3 C-0.67 2.01 -0.34 1.02 0 0 Z " fill="#030202" transform="translate(286,102)"/>
<path d="M0 0 C0.433125 0.45375 0.86625 0.9075 1.3125 1.375 C3.10798342 3.20024334 3.10798342 3.20024334 6 5 C5.01 6.485 5.01 6.485 4 8 C4 8.99 4 9.98 4 11 C1.36 11 -1.28 11 -4 11 C-4.33 8.69 -4.66 6.38 -5 4 C-4.0409375 3.8453125 -4.0409375 3.8453125 -3.0625 3.6875 C-2.381875 3.460625 -1.70125 3.23375 -1 3 C-0.67 2.01 -0.34 1.02 0 0 Z " fill="#040303" transform="translate(232,191)"/>
<path d="M0 0 C0.66 0.33 1.32 0.66 2 1 C2 1.99 2 2.98 2 4 C2.99 4 3.98 4 5 4 C4.67 4.99 4.34 5.98 4 7 C3.34 7 2.68 7 2 7 C1.67 8.32 1.34 9.64 1 11 C-0.98 10.34 -2.96 9.68 -5 9 C-5 6.69 -5 4.38 -5 2 C-2.625 0.9375 -2.625 0.9375 0 0 Z " fill="#030303" transform="translate(331,269)"/>
<path d="M0 0 C1.7074998 1.28062485 3.37373596 2.61767557 5 4 C5 4.66 5 5.32 5 6 C4.01 6.495 4.01 6.495 3 7 C1.86649466 9.01669827 1.86649466 9.01669827 1 11 C-0.98 10.34 -2.96 9.68 -5 9 C-5 6.69 -5 4.38 -5 2 C-3.35 1.34 -1.7 0.68 0 0 Z " fill="#030303" transform="translate(44,39)"/>
<path d="M0 0 C0.103125 0.639375 0.20625 1.27875 0.3125 1.9375 C0.539375 2.618125 0.76625 3.29875 1 4 C1.99 4.33 2.98 4.66 4 5 C4 5.66 4 6.32 4 7 C3.01 7 2.02 7 1 7 C0.67 8.32 0.34 9.64 0 11 C-2.31 10.01 -4.62 9.02 -7 8 C-6.67 5.69 -6.34 3.38 -6 1 C-4.7934375 1.0309375 -4.7934375 1.0309375 -3.5625 1.0625 C-1.06645115 1.29633621 -1.06645115 1.29633621 0 0 Z " fill="#020202" transform="translate(53,282)"/>
<path d="M0 0 C0.103125 0.639375 0.20625 1.27875 0.3125 1.9375 C0.539375 2.618125 0.76625 3.29875 1 4 C1.99 4.33 2.98 4.66 4 5 C3.67 5.66 3.34 6.32 3 7 C2.34 7 1.68 7 1 7 C0.67 8.32 0.34 9.64 0 11 C-1.98 10.34 -3.96 9.68 -6 9 C-5.7215625 8.1028125 -5.7215625 8.1028125 -5.4375 7.1875 C-4.77906313 4.83591238 -4.77906313 4.83591238 -6 2 C-4.7934375 1.7834375 -4.7934375 1.7834375 -3.5625 1.5625 C-1.07896294 1.25864751 -1.07896294 1.25864751 0 0 Z " fill="#020202" transform="translate(118,195)"/>
<path d="M0 0 C0.66 0.33 1.32 0.66 2 1 C2 1.66 2 2.32 2 3 C2.99 3.33 3.98 3.66 5 4 C4.34 5.98 3.68 7.96 3 10 C0.69 9.67 -1.62 9.34 -4 9 C-4.33 6.69 -4.66 4.38 -5 2 C-2.625 0.9375 -2.625 0.9375 0 0 Z " fill="#020202" transform="translate(265,303)"/>
<path d="M0 0 C2.31 0.33 4.62 0.66 7 1 C7.33 2.98 7.66 4.96 8 7 C6.68 7 5.36 7 4 7 C3.67 7.99 3.34 8.98 3 10 C1.2925002 8.71937515 -0.37373596 7.38232443 -2 6 C-2 5.34 -2 4.68 -2 4 C-1.34 4 -0.68 4 0 4 C0 2.68 0 1.36 0 0 Z " fill="#020202" transform="translate(210,142)"/>
<path d="M0 0 C2.31 0.66 4.62 1.32 7 2 C7 3.98 7 5.96 7 8 C5.02 8.99 3.04 9.98 1 11 C0.67 10.01 0.34 9.02 0 8 C-1.49985609 6.33289654 -1.49985609 6.33289654 -3 5 C-2.01 4.67 -1.02 4.34 0 4 C0 2.68 0 1.36 0 0 Z " fill="#030303" transform="translate(109,165)"/>
<path d="M0 0 C2.97 0.495 2.97 0.495 6 1 C6.33 2.65 6.66 4.3 7 6 C6.01 6 5.02 6 4 6 C3.67 6.99 3.34 7.98 3 9 C2.34 8.67 1.68 8.34 1 8 C1 7.34 1 6.68 1 6 C0.01 5.67 -0.98 5.34 -2 5 C-1.34 4.67 -0.68 4.34 0 4 C0 2.68 0 1.36 0 0 Z " fill="#010101" transform="translate(170,327)"/>
<path d="M0 0 C2.97 0.495 2.97 0.495 6 1 C6.33 2.98 6.66 4.96 7 7 C5.02 7.66 3.04 8.32 1 9 C1 8.01 1 7.02 1 6 C0.01 6 -0.98 6 -2 6 C-2 5.34 -2 4.68 -2 4 C-1.34 4 -0.68 4 0 4 C0 2.68 0 1.36 0 0 Z " fill="#030303" transform="translate(78,77)"/>
<path d="M0 0 C0.66 0 1.32 0 2 0 C3.6875 1.75 3.6875 1.75 5 4 C4.6875 6.25 4.6875 6.25 4 8 C2.02 8 0.04 8 -2 8 C-2.33 6.35 -2.66 4.7 -3 3 C-2.01 2.67 -1.02 2.34 0 2 C0 1.34 0 0.68 0 0 Z " fill="#030303" transform="translate(183,105)"/>
<path d="M0 0 C1.65 0 3.3 0 5 0 C5.33 1.98 5.66 3.96 6 6 C5.01 6 4.02 6 3 6 C3 6.66 3 7.32 3 8 C2.34 8 1.68 8 1 8 C-0.625 6 -0.625 6 -2 4 C-1.34 2.68 -0.68 1.36 0 0 Z " fill="#030303" transform="translate(295,251)"/>
<path d="M0 0 C0.33 1.65 0.66 3.3 1 5 C0.34 5 -0.32 5 -1 5 C-1.33 5.99 -1.66 6.98 -2 8 C-3.32 7.34 -4.64 6.68 -6 6 C-5.67 4.35 -5.34 2.7 -5 1 C-2 0 -2 0 0 0 Z " fill="#030303" transform="translate(276,149)"/>
<path d="M0 0 C0.66 0 1.32 0 2 0 C2 0.66 2 1.32 2 2 C2.99 2 3.98 2 5 2 C4.67 3.65 4.34 5.3 4 7 C2.02 7 0.04 7 -2 7 C-2.33 5.35 -2.66 3.7 -3 2 C-2.01 2 -1.02 2 0 2 C0 1.34 0 0.68 0 0 Z " fill="#030303" transform="translate(312,328)"/>
<path d="M0 0 C1.32 0.66 2.64 1.32 4 2 C4 3.65 4 5.3 4 7 C2.35 7 0.7 7 -1 7 C-1.66 5.35 -2.32 3.7 -3 2 C-2.01 1.34 -1.02 0.68 0 0 Z " fill="#050505" transform="translate(135,313)"/>
<path d="M0 0 C1.65 0.33 3.3 0.66 5 1 C5.33 2.65 5.66 4.3 6 6 C4.35 6.33 2.7 6.66 1 7 C1 6.34 1 5.68 1 5 C0.34 5 -0.32 5 -1 5 C-0.67 3.35 -0.34 1.7 0 0 Z " fill="#050505" transform="translate(47,233)"/>
<path d="M0 0 C1.65 0.33 3.3 0.66 5 1 C5 2.65 5 4.3 5 6 C3.35 6.33 1.7 6.66 0 7 C0 6.34 0 5.68 0 5 C-0.66 4.67 -1.32 4.34 -2 4 C-1.34 2.68 -0.68 1.36 0 0 Z " fill="#030303" transform="translate(37,141)"/>
<path d="M0 0 C1.32 0.33 2.64 0.66 4 1 C4 2.32 4 3.64 4 5 C2.02 5.99 2.02 5.99 0 7 C-0.66 5.35 -1.32 3.7 -2 2 C-1.34 2 -0.68 2 0 2 C0 1.34 0 0.68 0 0 Z " fill="#040404" transform="translate(132,132)"/>
<path d="M0 0 C1.32 0.66 2.64 1.32 4 2 C4 3.32 4 4.64 4 6 C2.68 6.33 1.36 6.66 0 7 C0 6.01 0 5.02 0 4 C-0.66 3.67 -1.32 3.34 -2 3 C-1.34 2.01 -0.68 1.02 0 0 Z " fill="#010101" transform="translate(303,29)"/>
<path d="" fill="#000000" transform="translate(0,0)"/>
</svg>
