%TF.GenerationSoftware,KiCad,Pcbnew,9.0.2*%
%TF.CreationDate,2025-07-01T20:26:33-05:00*%
%TF.ProjectId,pioneer,70696f6e-6565-4722-9e6b-696361645f70,rev?*%
%TF.SameCoordinates,Original*%
%TF.FileFunction,Legend,Bot*%
%TF.FilePolarity,Positive*%
%FSLAX46Y46*%
G04 Gerber Fmt 4.6, Leading zero omitted, Abs format (unit mm)*
G04 Created by KiCad (PCBNEW 9.0.2) date 2025-07-01 20:26:33*
%MOMM*%
%LPD*%
G01*
G04 APERTURE LIST*
%ADD10C,0.000000*%
%ADD11C,0.300000*%
G04 APERTURE END LIST*
D10*
G36*
X121457590Y-192058064D02*
G01*
X121986756Y-192587232D01*
X121854969Y-192704499D01*
X121751090Y-192798006D01*
X121665819Y-192877054D01*
X121589852Y-192950946D01*
X121513890Y-193028983D01*
X121428629Y-193120467D01*
X121193006Y-193380982D01*
X120928423Y-194174731D01*
X120399257Y-194439315D01*
X120134673Y-193645564D01*
X118811756Y-193645564D01*
X118851791Y-193522009D01*
X118887476Y-193404135D01*
X118918863Y-193291064D01*
X118946007Y-193181922D01*
X118968964Y-193075831D01*
X118987786Y-192971915D01*
X119002529Y-192869298D01*
X119013246Y-192767104D01*
X119019992Y-192664457D01*
X119022821Y-192560480D01*
X119021788Y-192454297D01*
X119016947Y-192345032D01*
X119008351Y-192231809D01*
X118996056Y-192113751D01*
X118980116Y-191989983D01*
X118960585Y-191859628D01*
X118811756Y-191264315D01*
X121193006Y-190999732D01*
X121457590Y-192058064D01*
G37*
G36*
X195805501Y-158191399D02*
G01*
X195793025Y-158461967D01*
X195789148Y-158574599D01*
X195787362Y-158675328D01*
X195788054Y-158766551D01*
X195791612Y-158850667D01*
X195798424Y-158930074D01*
X195808877Y-159007170D01*
X195823358Y-159084352D01*
X195842256Y-159164020D01*
X195865958Y-159248571D01*
X195894851Y-159340403D01*
X195929323Y-159441915D01*
X195969761Y-159555504D01*
X196070088Y-159828507D01*
X196334668Y-160572648D01*
X195011754Y-160572648D01*
X195011754Y-161101815D01*
X194776110Y-161356065D01*
X194690844Y-161445982D01*
X194614880Y-161523497D01*
X194538915Y-161597911D01*
X194453647Y-161678526D01*
X194217999Y-161895566D01*
X194019566Y-161382935D01*
X193926568Y-161185940D01*
X193886640Y-161105796D01*
X193849381Y-161036500D01*
X193813507Y-160977008D01*
X193795689Y-160950614D01*
X193777735Y-160926281D01*
X193759485Y-160903878D01*
X193740779Y-160883276D01*
X193721457Y-160864344D01*
X193701358Y-160846951D01*
X193680321Y-160830969D01*
X193658186Y-160816266D01*
X193634792Y-160802713D01*
X193609980Y-160790178D01*
X193583588Y-160778533D01*
X193555456Y-160767646D01*
X193493330Y-160747628D01*
X193422318Y-160729083D01*
X193341138Y-160710969D01*
X193143132Y-160671868D01*
X192630505Y-160572648D01*
X192365918Y-160043485D01*
X193424252Y-159514317D01*
X193159673Y-157926816D01*
X195805501Y-158191399D01*
G37*
G36*
X195011754Y-145755986D02*
G01*
X195540921Y-145755986D01*
X195805501Y-146549733D01*
X195011754Y-146549733D01*
X195011754Y-147343480D01*
X194482587Y-147608067D01*
X194071241Y-147460273D01*
X193924479Y-147405754D01*
X193796322Y-147355886D01*
X193671265Y-147304468D01*
X193533807Y-147245299D01*
X193159673Y-147078900D01*
X193159673Y-145226819D01*
X194747167Y-144697652D01*
X195011754Y-145755986D01*
G37*
G36*
X90659849Y-99160224D02*
G01*
X89866098Y-99689391D01*
X88807767Y-99160224D01*
X88807767Y-97837302D01*
X90130682Y-97837302D01*
X90659849Y-99160224D01*
G37*
G36*
X47797350Y-132762301D02*
G01*
X48126421Y-132836493D01*
X48456602Y-132905798D01*
X48787887Y-132969500D01*
X49120271Y-133026885D01*
X48855684Y-135143553D01*
X47966849Y-135449476D01*
X47674360Y-135543526D01*
X47450084Y-135606571D01*
X47355775Y-135628405D01*
X47269217Y-135644812D01*
X47187309Y-135656568D01*
X47106952Y-135664449D01*
X46938487Y-135671683D01*
X46739015Y-135672717D01*
X46656335Y-135193160D01*
X46617139Y-135074928D01*
X46576378Y-134964761D01*
X46533767Y-134861859D01*
X46489017Y-134765421D01*
X46441842Y-134674644D01*
X46391955Y-134588727D01*
X46339067Y-134506871D01*
X46282893Y-134428272D01*
X46223144Y-134352131D01*
X46159533Y-134277645D01*
X46091774Y-134204014D01*
X46019578Y-134130437D01*
X45942659Y-134056111D01*
X45860729Y-133980237D01*
X45680688Y-133820635D01*
X46739015Y-133556052D01*
X47003603Y-132233134D01*
X47797350Y-132762301D01*
G37*
G36*
X180087656Y-130792189D02*
G01*
X180234555Y-130898002D01*
X180373070Y-130992579D01*
X180505072Y-131076330D01*
X180632431Y-131149665D01*
X180757019Y-131212991D01*
X180880708Y-131266719D01*
X181005367Y-131311256D01*
X181132869Y-131347013D01*
X181265084Y-131374398D01*
X181403884Y-131393820D01*
X181551140Y-131405688D01*
X181708722Y-131410411D01*
X181878503Y-131408398D01*
X182062353Y-131400058D01*
X182262143Y-131385800D01*
X183105504Y-131203900D01*
X183111764Y-131570818D01*
X183119953Y-131748851D01*
X183131838Y-131923810D01*
X183147663Y-132096106D01*
X183167671Y-132266146D01*
X183192103Y-132434339D01*
X183221204Y-132601094D01*
X183255215Y-132766820D01*
X183294381Y-132931926D01*
X183338943Y-133096819D01*
X183389144Y-133261910D01*
X183445228Y-133427606D01*
X183507438Y-133594317D01*
X183576015Y-133762450D01*
X183651204Y-133932416D01*
X183899251Y-134378903D01*
X183006284Y-134445050D01*
X182683964Y-134475042D01*
X182552153Y-134489706D01*
X182437291Y-134505601D01*
X182385604Y-134514351D01*
X182337418Y-134523818D01*
X182292488Y-134534137D01*
X182250569Y-134545446D01*
X182211417Y-134557881D01*
X182174784Y-134571577D01*
X182140428Y-134586671D01*
X182108101Y-134603299D01*
X182077559Y-134621598D01*
X182048556Y-134641703D01*
X182020848Y-134663752D01*
X181994189Y-134687879D01*
X181968334Y-134714223D01*
X181943037Y-134742918D01*
X181918054Y-134774101D01*
X181893138Y-134807908D01*
X181842530Y-134883940D01*
X181789250Y-134972105D01*
X181666829Y-135189191D01*
X181518002Y-135701817D01*
X180724255Y-135701817D01*
X180459668Y-134114316D01*
X178607587Y-133849736D01*
X179120213Y-133452863D01*
X179221732Y-133327943D01*
X179312270Y-133212175D01*
X179392607Y-133103976D01*
X179463527Y-133001767D01*
X179525809Y-132903966D01*
X179580236Y-132808992D01*
X179627589Y-132715263D01*
X179668649Y-132621200D01*
X179704197Y-132525222D01*
X179735016Y-132425746D01*
X179761885Y-132321192D01*
X179785588Y-132209980D01*
X179806905Y-132090527D01*
X179826617Y-131961254D01*
X179864354Y-131666921D01*
X179930501Y-130674733D01*
X180087656Y-130792189D01*
G37*
G36*
X38801523Y-99424803D02*
G01*
X40124437Y-99689391D01*
X39859850Y-100483138D01*
X39330682Y-100747718D01*
X39189254Y-101141476D01*
X39053691Y-101537346D01*
X38924334Y-101935276D01*
X38801523Y-102335219D01*
X38007768Y-101806052D01*
X37544836Y-101793956D01*
X37081696Y-101789481D01*
X36618572Y-101793291D01*
X36155687Y-101806052D01*
X36321054Y-101094985D01*
X36338242Y-100925140D01*
X36350006Y-100765744D01*
X36356249Y-100615482D01*
X36356875Y-100473041D01*
X36351786Y-100337108D01*
X36340888Y-100206368D01*
X36324082Y-100079509D01*
X36301273Y-99955216D01*
X36272364Y-99832176D01*
X36237259Y-99709076D01*
X36195861Y-99584601D01*
X36148073Y-99457438D01*
X36093800Y-99326274D01*
X36032944Y-99189795D01*
X35891100Y-98895636D01*
X36767534Y-98664130D01*
X37094609Y-98580564D01*
X37349956Y-98510723D01*
X37457212Y-98477922D01*
X37554311Y-98444918D01*
X37643846Y-98410501D01*
X37728409Y-98373459D01*
X37810592Y-98332582D01*
X37892986Y-98286658D01*
X37978183Y-98234476D01*
X38068775Y-98174824D01*
X38167355Y-98106492D01*
X38276514Y-98028269D01*
X38536935Y-97837302D01*
X38801523Y-99424803D01*
G37*
G36*
X80341100Y-93868552D02*
G01*
X80341100Y-94397719D01*
X81134851Y-94662306D01*
X80605684Y-94926886D01*
X80605684Y-95985221D01*
X79018182Y-95720641D01*
X78753599Y-94397719D01*
X79547350Y-94397719D01*
X79811933Y-93603972D01*
X80341100Y-93868552D01*
G37*
G36*
X69565393Y-142544178D02*
G01*
X69898121Y-142806377D01*
X70226819Y-143073621D01*
X70551519Y-143345633D01*
X70551519Y-143874800D01*
X70022352Y-143874800D01*
X70022352Y-144933135D01*
X68170267Y-144668551D01*
X67905683Y-143081050D01*
X68964017Y-143081050D01*
X69228601Y-142287303D01*
X69565393Y-142544178D01*
G37*
G36*
X185751340Y-150783070D02*
G01*
X186545087Y-150783070D01*
X186280499Y-152370564D01*
X184957585Y-152370564D01*
X184428418Y-151312230D01*
X184645458Y-150998041D01*
X184726073Y-150884354D01*
X184800487Y-150783070D01*
X184878003Y-150681784D01*
X184967921Y-150568096D01*
X185222173Y-150253903D01*
X185751340Y-150253903D01*
X185751340Y-150783070D01*
G37*
G36*
X143682588Y-135437238D02*
G01*
X142624257Y-135966405D01*
X141830506Y-135437238D01*
X142359673Y-134114316D01*
X143682588Y-134114316D01*
X143682588Y-135437238D01*
G37*
G36*
X75793573Y-121765559D02*
G01*
X76107767Y-122443553D01*
X76901517Y-122708136D01*
X76372350Y-123766471D01*
X75843183Y-123766471D01*
X75843183Y-125089385D01*
X75264410Y-124824801D01*
X75126461Y-124777471D01*
X74992894Y-124735167D01*
X74863018Y-124697691D01*
X74736147Y-124664848D01*
X74611590Y-124636439D01*
X74488660Y-124612267D01*
X74366669Y-124592136D01*
X74244927Y-124575847D01*
X74122745Y-124563204D01*
X73999437Y-124554009D01*
X73874312Y-124548066D01*
X73746683Y-124545177D01*
X73615861Y-124545145D01*
X73481157Y-124547772D01*
X73197351Y-124560218D01*
X73346178Y-123816077D01*
X73404813Y-123534985D01*
X73427272Y-123418218D01*
X73444869Y-123314107D01*
X73457384Y-123220252D01*
X73464600Y-123134257D01*
X73466299Y-123053723D01*
X73462263Y-122976251D01*
X73452274Y-122899445D01*
X73436113Y-122820904D01*
X73413564Y-122738233D01*
X73384408Y-122649032D01*
X73348426Y-122550903D01*
X73305402Y-122441448D01*
X73197351Y-122178969D01*
X73974565Y-121947459D01*
X74251798Y-121879242D01*
X74364872Y-121849242D01*
X74463017Y-121820366D01*
X74547808Y-121791402D01*
X74620819Y-121761139D01*
X74653399Y-121745142D01*
X74683624Y-121728367D01*
X74711692Y-121710661D01*
X74737799Y-121691874D01*
X74762142Y-121671853D01*
X74784918Y-121650448D01*
X74806323Y-121627508D01*
X74826555Y-121602880D01*
X74845810Y-121576413D01*
X74864285Y-121547957D01*
X74899682Y-121484468D01*
X74934320Y-121411203D01*
X74969775Y-121326950D01*
X75049432Y-121120635D01*
X75578600Y-121120635D01*
X75793573Y-121765559D01*
G37*
G36*
X75198263Y-112124800D02*
G01*
X75356598Y-112185716D01*
X75512628Y-112237888D01*
X75666781Y-112281921D01*
X75819487Y-112318422D01*
X75971176Y-112347995D01*
X76122275Y-112371248D01*
X76273214Y-112388785D01*
X76424422Y-112401212D01*
X76576329Y-112409136D01*
X76729363Y-112413162D01*
X77040529Y-112411944D01*
X77695268Y-112389388D01*
X77529901Y-113116988D01*
X77512580Y-113277025D01*
X77499344Y-113424730D01*
X77490581Y-113561599D01*
X77486677Y-113689127D01*
X77488020Y-113808809D01*
X77494998Y-113922141D01*
X77507997Y-114030619D01*
X77527404Y-114135737D01*
X77553608Y-114238992D01*
X77586995Y-114341879D01*
X77627953Y-114445893D01*
X77676868Y-114552530D01*
X77734128Y-114663285D01*
X77800121Y-114779654D01*
X77875233Y-114903133D01*
X77959852Y-115035216D01*
X76372350Y-115035216D01*
X75843183Y-116093550D01*
X75314016Y-116093550D01*
X75264410Y-115597457D01*
X75206979Y-115387127D01*
X75180960Y-115301041D01*
X75154994Y-115225929D01*
X75141622Y-115192080D01*
X75127774Y-115160484D01*
X75113284Y-115130978D01*
X75097991Y-115103398D01*
X75081729Y-115077580D01*
X75064337Y-115053362D01*
X75045650Y-115030580D01*
X75025504Y-115009069D01*
X75003737Y-114988667D01*
X74980185Y-114969211D01*
X74954684Y-114950535D01*
X74927070Y-114932478D01*
X74897181Y-114914876D01*
X74864853Y-114897565D01*
X74792224Y-114863161D01*
X74707877Y-114827960D01*
X74610502Y-114790653D01*
X74371439Y-114704489D01*
X73726518Y-114506056D01*
X73726518Y-113976889D01*
X74520269Y-113447722D01*
X74633556Y-112966676D01*
X74670663Y-112793704D01*
X74698879Y-112640962D01*
X74721306Y-112489846D01*
X74741043Y-112321753D01*
X74761192Y-112118079D01*
X74784853Y-111860221D01*
X75198263Y-112124800D01*
G37*
G36*
X156442791Y-189037061D02*
G01*
X156489041Y-189160050D01*
X156507903Y-189213794D01*
X156524439Y-189264437D01*
X156539038Y-189313529D01*
X156552086Y-189362622D01*
X156563972Y-189413265D01*
X156575082Y-189467008D01*
X156596528Y-189589998D01*
X156619525Y-189743994D01*
X156647172Y-189941398D01*
X156531675Y-190138802D01*
X156439432Y-190292798D01*
X156399124Y-190357394D01*
X156361142Y-190415788D01*
X156324322Y-190469532D01*
X156287503Y-190520175D01*
X156249520Y-190569268D01*
X156209213Y-190618360D01*
X156165417Y-190669003D01*
X156116971Y-190722746D01*
X156001474Y-190845736D01*
X155853421Y-190999732D01*
X155324254Y-190999732D01*
X155324254Y-190470565D01*
X154530503Y-190205981D01*
X154795087Y-188883065D01*
X156382588Y-188883065D01*
X156442791Y-189037061D01*
G37*
G36*
X113943182Y-98631056D02*
G01*
X114273880Y-98637113D01*
X114604650Y-98639339D01*
X114935416Y-98637424D01*
X115266099Y-98631056D01*
X115100734Y-99342124D01*
X115083546Y-99511968D01*
X115071781Y-99671365D01*
X115065538Y-99821626D01*
X115064912Y-99964067D01*
X115070000Y-100100000D01*
X115080898Y-100230740D01*
X115097703Y-100357599D01*
X115120511Y-100481892D01*
X115149420Y-100604932D01*
X115184525Y-100728033D01*
X115225922Y-100852507D01*
X115273709Y-100979670D01*
X115327982Y-101110834D01*
X115388838Y-101247314D01*
X115530682Y-101541472D01*
X113678599Y-101276885D01*
X113430552Y-101789519D01*
X113337244Y-101970159D01*
X113263895Y-102109136D01*
X113204112Y-102215944D01*
X113177309Y-102260253D01*
X113151499Y-102300080D01*
X113125883Y-102336613D01*
X113099661Y-102371038D01*
X113072034Y-102404544D01*
X113042203Y-102438315D01*
X112972731Y-102511406D01*
X112884849Y-102599806D01*
X112710183Y-102335738D01*
X112639515Y-102224827D01*
X112578924Y-102124381D01*
X112527635Y-102031686D01*
X112484873Y-101944029D01*
X112466447Y-101901242D01*
X112449862Y-101858698D01*
X112435022Y-101816057D01*
X112421828Y-101772979D01*
X112410185Y-101729127D01*
X112399995Y-101684160D01*
X112383587Y-101589528D01*
X112371831Y-101486368D01*
X112363950Y-101371969D01*
X112359170Y-101243618D01*
X112356715Y-101098601D01*
X112355682Y-100747718D01*
X111032765Y-100483138D01*
X111297349Y-99689391D01*
X111478474Y-99629186D01*
X111620843Y-99582934D01*
X111736856Y-99547534D01*
X111838917Y-99519887D01*
X111939428Y-99496890D01*
X112050791Y-99475445D01*
X112185408Y-99452449D01*
X112355682Y-99424803D01*
X112355682Y-97837302D01*
X113943182Y-98631056D01*
G37*
G36*
X163526338Y-179358064D02*
G01*
X164584672Y-179358064D01*
X164320088Y-180945565D01*
X162468003Y-181210149D01*
X162468003Y-180151814D01*
X161938836Y-180151814D01*
X161938836Y-179622647D01*
X162263536Y-179350635D01*
X162592234Y-179083391D01*
X162924962Y-178821192D01*
X163261754Y-178564317D01*
X163526338Y-179358064D01*
G37*
G36*
X185751340Y-169833066D02*
G01*
X186809667Y-170097649D01*
X186629626Y-170257251D01*
X186547696Y-170333125D01*
X186470777Y-170407451D01*
X186398581Y-170481028D01*
X186330822Y-170554659D01*
X186267211Y-170629145D01*
X186207462Y-170705286D01*
X186151288Y-170783885D01*
X186098400Y-170865741D01*
X186048513Y-170951658D01*
X186001338Y-171042435D01*
X185956588Y-171138873D01*
X185913977Y-171241775D01*
X185873216Y-171351942D01*
X185834020Y-171470174D01*
X185751340Y-171949731D01*
X185551868Y-171948697D01*
X185383403Y-171941463D01*
X185303046Y-171933582D01*
X185221138Y-171921826D01*
X185134580Y-171905419D01*
X185040271Y-171883585D01*
X184815995Y-171820540D01*
X184523506Y-171726490D01*
X183634671Y-171420567D01*
X183370084Y-169303899D01*
X183702468Y-169246514D01*
X184033753Y-169182812D01*
X184363934Y-169113507D01*
X184693005Y-169039315D01*
X185486752Y-168510148D01*
X185751340Y-169833066D01*
G37*
G36*
X52626001Y-95389907D02*
G01*
X52663738Y-95684240D01*
X52683450Y-95813513D01*
X52704767Y-95932966D01*
X52728470Y-96044178D01*
X52755339Y-96148732D01*
X52786158Y-96248208D01*
X52821706Y-96344186D01*
X52862766Y-96438249D01*
X52910119Y-96531978D01*
X52964546Y-96626952D01*
X53026828Y-96724753D01*
X53097748Y-96826962D01*
X53178085Y-96935161D01*
X53268623Y-97050929D01*
X53370142Y-97175849D01*
X53882768Y-97572722D01*
X52030687Y-97837302D01*
X51766100Y-99424803D01*
X50972353Y-99424803D01*
X50823526Y-98912177D01*
X50701105Y-98695091D01*
X50647825Y-98606926D01*
X50597217Y-98530894D01*
X50572301Y-98497087D01*
X50547318Y-98465904D01*
X50522021Y-98437209D01*
X50496166Y-98410865D01*
X50469507Y-98386738D01*
X50441799Y-98364689D01*
X50412796Y-98344584D01*
X50382254Y-98326285D01*
X50349927Y-98309657D01*
X50315571Y-98294563D01*
X50278938Y-98280867D01*
X50239786Y-98268432D01*
X50197867Y-98257123D01*
X50152937Y-98246804D01*
X50104751Y-98237337D01*
X50053064Y-98228587D01*
X49938202Y-98212692D01*
X49806391Y-98198028D01*
X49484071Y-98168036D01*
X48591104Y-98101889D01*
X48839151Y-97655402D01*
X48914340Y-97485436D01*
X48982917Y-97317303D01*
X49045127Y-97150592D01*
X49101211Y-96984896D01*
X49151412Y-96819805D01*
X49195974Y-96654912D01*
X49235140Y-96489806D01*
X49269151Y-96324080D01*
X49298252Y-96157325D01*
X49322684Y-95989132D01*
X49342692Y-95819092D01*
X49358517Y-95646796D01*
X49370402Y-95471837D01*
X49378591Y-95293804D01*
X49384851Y-94926886D01*
X50228212Y-95108786D01*
X50428002Y-95123044D01*
X50611852Y-95131384D01*
X50781633Y-95133397D01*
X50939215Y-95128674D01*
X51086471Y-95116806D01*
X51225271Y-95097384D01*
X51357486Y-95069999D01*
X51484988Y-95034242D01*
X51609647Y-94989705D01*
X51733336Y-94935977D01*
X51857924Y-94872651D01*
X51985283Y-94799316D01*
X52117285Y-94715565D01*
X52255800Y-94620988D01*
X52402699Y-94515175D01*
X52559854Y-94397719D01*
X52626001Y-95389907D01*
G37*
G36*
X113678599Y-154987301D02*
G01*
X113529770Y-155582614D01*
X113510239Y-155712969D01*
X113494299Y-155836737D01*
X113482004Y-155954795D01*
X113473408Y-156068018D01*
X113468567Y-156177283D01*
X113467534Y-156283466D01*
X113470363Y-156387443D01*
X113477109Y-156490090D01*
X113487826Y-156592284D01*
X113502569Y-156694901D01*
X113521391Y-156798817D01*
X113544348Y-156904908D01*
X113571492Y-157014050D01*
X113602879Y-157127121D01*
X113638564Y-157244995D01*
X113678599Y-157368550D01*
X112355682Y-157368550D01*
X112091098Y-158162301D01*
X111561932Y-157897717D01*
X111297349Y-157103968D01*
X111061726Y-156843453D01*
X110976465Y-156751969D01*
X110900503Y-156673932D01*
X110824536Y-156600040D01*
X110739265Y-156520992D01*
X110635386Y-156427485D01*
X110503599Y-156310218D01*
X111032765Y-155781050D01*
X111297349Y-154722718D01*
X113678599Y-154987301D01*
G37*
G36*
X92247350Y-167951883D02*
G01*
X93305685Y-168216467D01*
X93305685Y-168745634D01*
X92776517Y-169010216D01*
X92674820Y-169407025D01*
X92640610Y-169550153D01*
X92613360Y-169677099D01*
X92589967Y-169803367D01*
X92567333Y-169944460D01*
X92511934Y-170333133D01*
X91751257Y-170068550D01*
X91497220Y-169972397D01*
X91299118Y-169900468D01*
X91216076Y-169872618D01*
X91141060Y-169849662D01*
X91072082Y-169831212D01*
X91007155Y-169816880D01*
X90944295Y-169806278D01*
X90881514Y-169799020D01*
X90816827Y-169794716D01*
X90748246Y-169792981D01*
X90673786Y-169793426D01*
X90591460Y-169795664D01*
X90395265Y-169803967D01*
X90130682Y-167687300D01*
X91453600Y-167687300D01*
X91718183Y-166893551D01*
X92247350Y-166893551D01*
X92247350Y-167951883D01*
G37*
G36*
X48061937Y-107891471D02*
G01*
X48551862Y-107916323D01*
X48727054Y-107922536D01*
X48880536Y-107924607D01*
X49030912Y-107922536D01*
X49196785Y-107916323D01*
X49649438Y-107891471D01*
X49632898Y-108767905D01*
X49622773Y-109086621D01*
X49618991Y-109335998D01*
X49620509Y-109441164D01*
X49624849Y-109536770D01*
X49632421Y-109625410D01*
X49643639Y-109709675D01*
X49658914Y-109792155D01*
X49678657Y-109875445D01*
X49703281Y-109962135D01*
X49733196Y-110054817D01*
X49768816Y-110156083D01*
X49810552Y-110268526D01*
X49914018Y-110537306D01*
X49153345Y-110768813D01*
X48874870Y-110847978D01*
X48760219Y-110882279D01*
X48659312Y-110914675D01*
X48570161Y-110946376D01*
X48490780Y-110978594D01*
X48419184Y-111012539D01*
X48353385Y-111049423D01*
X48291397Y-111090457D01*
X48231234Y-111136852D01*
X48170910Y-111189820D01*
X48108439Y-111250571D01*
X48041833Y-111320317D01*
X47969107Y-111400268D01*
X47797350Y-111595633D01*
X47622166Y-111419416D01*
X47550271Y-111345067D01*
X47487291Y-111277306D01*
X47432062Y-111214196D01*
X47383421Y-111153799D01*
X47340207Y-111094178D01*
X47320271Y-111064052D01*
X47301256Y-111033394D01*
X47265405Y-110969509D01*
X47231493Y-110900585D01*
X47198356Y-110824686D01*
X47164831Y-110739872D01*
X47129756Y-110644207D01*
X47091968Y-110535751D01*
X47003603Y-110272719D01*
X46689907Y-110009485D01*
X46576344Y-109917322D01*
X46475099Y-109839059D01*
X46373772Y-109765394D01*
X46259959Y-109687025D01*
X46121259Y-109594652D01*
X45945268Y-109478972D01*
X46457903Y-109313605D01*
X46668735Y-109200990D01*
X46754443Y-109152139D01*
X46828465Y-109105934D01*
X46861435Y-109083278D01*
X46891892Y-109060630D01*
X46919973Y-109037771D01*
X46945813Y-109014483D01*
X46969550Y-108990549D01*
X46991320Y-108965750D01*
X47011258Y-108939868D01*
X47029501Y-108912686D01*
X47046185Y-108883985D01*
X47061446Y-108853547D01*
X47075421Y-108821155D01*
X47088247Y-108786590D01*
X47100058Y-108749634D01*
X47110992Y-108710069D01*
X47130772Y-108622241D01*
X47148677Y-108521362D01*
X47165798Y-108405688D01*
X47202043Y-108122977D01*
X47268182Y-107362303D01*
X48061937Y-107891471D01*
G37*
G36*
X102830682Y-170862300D02*
G01*
X103159752Y-170936492D01*
X103489932Y-171005797D01*
X103821216Y-171069498D01*
X104153598Y-171126883D01*
X104004772Y-171722195D01*
X103985240Y-171852551D01*
X103969299Y-171976319D01*
X103957004Y-172094377D01*
X103948409Y-172207600D01*
X103943567Y-172316865D01*
X103942534Y-172423048D01*
X103945363Y-172527025D01*
X103952109Y-172629672D01*
X103962826Y-172731866D01*
X103977569Y-172834483D01*
X103996391Y-172938399D01*
X104019348Y-173044491D01*
X104046492Y-173153634D01*
X104077879Y-173266704D01*
X104113563Y-173384579D01*
X104153598Y-173508134D01*
X103541750Y-173475060D01*
X103472630Y-173479740D01*
X103405696Y-173487118D01*
X103340820Y-173497010D01*
X103277870Y-173509226D01*
X103216718Y-173523582D01*
X103157234Y-173539890D01*
X103042754Y-173577615D01*
X102933395Y-173620908D01*
X102828122Y-173668274D01*
X102625691Y-173769251D01*
X102427180Y-173868594D01*
X102326806Y-173913918D01*
X102224307Y-173954351D01*
X102118647Y-173988400D01*
X102064308Y-174002564D01*
X102008791Y-174014571D01*
X101951966Y-174024235D01*
X101893703Y-174031369D01*
X101833875Y-174035786D01*
X101772350Y-174037300D01*
X101772350Y-172714383D01*
X100714016Y-172185217D01*
X101226646Y-172003316D01*
X101430767Y-171900139D01*
X101513838Y-171855572D01*
X101585703Y-171813651D01*
X101617774Y-171793207D01*
X101647452Y-171772851D01*
X101674874Y-171752394D01*
X101700175Y-171731645D01*
X101723492Y-171710412D01*
X101744962Y-171688506D01*
X101764720Y-171665736D01*
X101782903Y-171641910D01*
X101799647Y-171616838D01*
X101815089Y-171590329D01*
X101829363Y-171562193D01*
X101842608Y-171532238D01*
X101854959Y-171500275D01*
X101866552Y-171466111D01*
X101888010Y-171390422D01*
X101908073Y-171303644D01*
X101927829Y-171204251D01*
X101970787Y-170961519D01*
X102036933Y-170333133D01*
X102830682Y-170862300D01*
G37*
G36*
X56528604Y-99953971D02*
G01*
X56793184Y-101806052D01*
X56419045Y-101972450D01*
X56281586Y-102031620D01*
X56156529Y-102083038D01*
X56028372Y-102132906D01*
X55881612Y-102187424D01*
X55470270Y-102335219D01*
X54941103Y-102070639D01*
X54941103Y-101541472D01*
X54147348Y-101276885D01*
X54676515Y-99689391D01*
X56528604Y-99953971D01*
G37*
G36*
X118948983Y-205863522D02*
G01*
X119000860Y-205976589D01*
X119049847Y-206077667D01*
X119102146Y-206179160D01*
X119163957Y-206293470D01*
X119340923Y-206610147D01*
X119870089Y-206874731D01*
X119870089Y-207403897D01*
X119545390Y-207675910D01*
X119216692Y-207943154D01*
X118883963Y-208205353D01*
X118547173Y-208462231D01*
X117224256Y-207933064D01*
X117224256Y-206080981D01*
X118811756Y-205551814D01*
X118948983Y-205863522D01*
G37*
G36*
X63391233Y-93041732D02*
G01*
X63539129Y-93507290D01*
X63594222Y-93668703D01*
X63645272Y-93803725D01*
X63698673Y-93928247D01*
X63760820Y-94058160D01*
X63838108Y-94209354D01*
X63936933Y-94397719D01*
X63440839Y-94596160D01*
X63323686Y-94667635D01*
X63217260Y-94738018D01*
X63120661Y-94807982D01*
X63032989Y-94878199D01*
X62953343Y-94949341D01*
X62880823Y-95022080D01*
X62814528Y-95097088D01*
X62753558Y-95175039D01*
X62697012Y-95256604D01*
X62643991Y-95342455D01*
X62593592Y-95433264D01*
X62544917Y-95529705D01*
X62497064Y-95632448D01*
X62449133Y-95742167D01*
X62349435Y-95985221D01*
X62035242Y-95604880D01*
X61926508Y-95514924D01*
X61820210Y-95434532D01*
X61715714Y-95363014D01*
X61612385Y-95299679D01*
X61509589Y-95243838D01*
X61406693Y-95194801D01*
X61303063Y-95151879D01*
X61198065Y-95114381D01*
X61091065Y-95081617D01*
X60981430Y-95052897D01*
X60868525Y-95027533D01*
X60751716Y-95004833D01*
X60630369Y-94984109D01*
X60503852Y-94964669D01*
X60232767Y-94926886D01*
X60497354Y-94331572D01*
X60604465Y-94077286D01*
X60647569Y-93970474D01*
X60684222Y-93873728D01*
X60714811Y-93784432D01*
X60739723Y-93699969D01*
X60759348Y-93617723D01*
X60774071Y-93535079D01*
X60784281Y-93449420D01*
X60790366Y-93358130D01*
X60792712Y-93258593D01*
X60791707Y-93148192D01*
X60787740Y-93024313D01*
X60781196Y-92884338D01*
X60761934Y-92545638D01*
X61357248Y-92562171D01*
X61595069Y-92553376D01*
X61823264Y-92537806D01*
X62044563Y-92515086D01*
X62261697Y-92484839D01*
X62477396Y-92446688D01*
X62694390Y-92400257D01*
X62915410Y-92345170D01*
X63143186Y-92281050D01*
X63391233Y-93041732D01*
G37*
G36*
X89072351Y-111595633D02*
G01*
X87749433Y-111860221D01*
X87484850Y-112918555D01*
X87222333Y-112830187D01*
X87115104Y-112792398D01*
X87021828Y-112757322D01*
X86940955Y-112723797D01*
X86870933Y-112690659D01*
X86810213Y-112656746D01*
X86757245Y-112620895D01*
X86710477Y-112581944D01*
X86668361Y-112538729D01*
X86629345Y-112490089D01*
X86591880Y-112434859D01*
X86554414Y-112371879D01*
X86515399Y-112299984D01*
X86426515Y-112124800D01*
X86099208Y-111984140D01*
X85769610Y-111848798D01*
X85437736Y-111719166D01*
X85103601Y-111595633D01*
X85632768Y-110801886D01*
X85657621Y-110311961D01*
X85663834Y-110136769D01*
X85665905Y-109983287D01*
X85663834Y-109832912D01*
X85657621Y-109667038D01*
X85632768Y-109214385D01*
X86360372Y-109363211D01*
X86635923Y-109397087D01*
X86763553Y-109409740D01*
X86885714Y-109419263D01*
X87003376Y-109425448D01*
X87117513Y-109428092D01*
X87229094Y-109426987D01*
X87339091Y-109421927D01*
X87448476Y-109412707D01*
X87558219Y-109399121D01*
X87669292Y-109380963D01*
X87782667Y-109358027D01*
X87899313Y-109330107D01*
X88020204Y-109296997D01*
X88146309Y-109258492D01*
X88278600Y-109214385D01*
X89072351Y-111595633D01*
G37*
G36*
X183881721Y-189141519D02*
G01*
X183875858Y-189248368D01*
X183872447Y-189342979D01*
X183871876Y-189427363D01*
X183874532Y-189503530D01*
X183880802Y-189573490D01*
X183891074Y-189639255D01*
X183905736Y-189702835D01*
X183925175Y-189766240D01*
X183949779Y-189831481D01*
X183979936Y-189900568D01*
X184016033Y-189975512D01*
X184058457Y-190058324D01*
X184163838Y-190255591D01*
X184428418Y-190735148D01*
X184116710Y-190872375D01*
X184003643Y-190924252D01*
X183902564Y-190973239D01*
X183801071Y-191025538D01*
X183686762Y-191087349D01*
X183370084Y-191264315D01*
X183105504Y-191793481D01*
X182576337Y-191793481D01*
X182311749Y-190999732D01*
X181766049Y-190817830D01*
X181253423Y-190735148D01*
X181351637Y-190556019D01*
X181426866Y-190413046D01*
X181457374Y-190350637D01*
X181483953Y-190291889D01*
X181507207Y-190235011D01*
X181527743Y-190178210D01*
X181546166Y-190119692D01*
X181563081Y-190057666D01*
X181579095Y-189990339D01*
X181594812Y-189915919D01*
X181627780Y-189738627D01*
X181666829Y-189511451D01*
X181782590Y-188883065D01*
X183899251Y-188883065D01*
X183881721Y-189141519D01*
G37*
G36*
X179665921Y-178035149D02*
G01*
X180195088Y-178035149D01*
X179930501Y-179358064D01*
X179754284Y-179357547D01*
X179612174Y-179353930D01*
X179549064Y-179349989D01*
X179488667Y-179344111D01*
X179429046Y-179335908D01*
X179368261Y-179324991D01*
X179304376Y-179310974D01*
X179235453Y-179293469D01*
X179159554Y-179272088D01*
X179074740Y-179246444D01*
X178870619Y-179180816D01*
X178607587Y-179093484D01*
X178343007Y-177770566D01*
X179401334Y-177241399D01*
X179665921Y-178035149D01*
G37*
G36*
X59174432Y-170862300D02*
G01*
X59157899Y-171474148D01*
X59152638Y-171719250D01*
X59151660Y-171821365D01*
X59152331Y-171912796D01*
X59155065Y-171995748D01*
X59160273Y-172072423D01*
X59168367Y-172145027D01*
X59179759Y-172215764D01*
X59194859Y-172286839D01*
X59214082Y-172360455D01*
X59237837Y-172438816D01*
X59266536Y-172524129D01*
X59300593Y-172618595D01*
X59340418Y-172724421D01*
X59439020Y-172978966D01*
X58794099Y-173227013D01*
X58579270Y-173299777D01*
X58414248Y-173358450D01*
X58346963Y-173384502D01*
X58287988Y-173409429D01*
X58235943Y-173434031D01*
X58189445Y-173459107D01*
X58147115Y-173485457D01*
X58107572Y-173513880D01*
X58069436Y-173545175D01*
X58031324Y-173580142D01*
X57991858Y-173619581D01*
X57949655Y-173664289D01*
X57851518Y-173772716D01*
X57322351Y-173508134D01*
X57322351Y-172714383D01*
X56264017Y-172449800D01*
X57057771Y-170597717D01*
X59174432Y-170862300D01*
G37*
G36*
X188132588Y-209520564D02*
G01*
X188132588Y-210578897D01*
X187074254Y-211108064D01*
X186545087Y-210314314D01*
X187074254Y-210049730D01*
X187074254Y-209255980D01*
X188132588Y-209520564D01*
G37*
G36*
X132040923Y-132791402D02*
G01*
X133363839Y-133320569D01*
X133363839Y-133849736D01*
X131776339Y-134378903D01*
X131775306Y-134729270D01*
X131772851Y-134873060D01*
X131768071Y-134999021D01*
X131764567Y-135056043D01*
X131760191Y-135109480D01*
X131754845Y-135159622D01*
X131748434Y-135206761D01*
X131740860Y-135251186D01*
X131732027Y-135293189D01*
X131721837Y-135333061D01*
X131710194Y-135371092D01*
X131697000Y-135407572D01*
X131682159Y-135442793D01*
X131665574Y-135477045D01*
X131647148Y-135510618D01*
X131626784Y-135543804D01*
X131604386Y-135576893D01*
X131579856Y-135610176D01*
X131553097Y-135643944D01*
X131524013Y-135678486D01*
X131492506Y-135714094D01*
X131421839Y-135789671D01*
X131340319Y-135873000D01*
X131247172Y-135966405D01*
X131147505Y-135841360D01*
X131051246Y-135728779D01*
X130957354Y-135627585D01*
X130864784Y-135536701D01*
X130772496Y-135455052D01*
X130679447Y-135381560D01*
X130584595Y-135315149D01*
X130486896Y-135254743D01*
X130385309Y-135199264D01*
X130278792Y-135147636D01*
X130166301Y-135098783D01*
X130046795Y-135051628D01*
X129919232Y-135005094D01*
X129782568Y-134958105D01*
X129477771Y-134858457D01*
X128601338Y-134643483D01*
X128682090Y-134483103D01*
X128754256Y-134331543D01*
X128818137Y-134187332D01*
X128874032Y-134048997D01*
X128922243Y-133915068D01*
X128963070Y-133784074D01*
X128996813Y-133654543D01*
X129023773Y-133525003D01*
X129044249Y-133393985D01*
X129058543Y-133260015D01*
X129066954Y-133121624D01*
X129069783Y-132977339D01*
X129067330Y-132825689D01*
X129059897Y-132665204D01*
X129047782Y-132494412D01*
X129031287Y-132311841D01*
X128865922Y-131468488D01*
X129241848Y-131548832D01*
X129583634Y-131614665D01*
X129744949Y-131640174D01*
X129901598Y-131659696D01*
X130054872Y-131672446D01*
X130206059Y-131677638D01*
X130356449Y-131674485D01*
X130507333Y-131662201D01*
X130660000Y-131640000D01*
X130815739Y-131607096D01*
X130975841Y-131562702D01*
X131141595Y-131506034D01*
X131314291Y-131436304D01*
X131495219Y-131352727D01*
X132040923Y-130939320D01*
X132040923Y-132791402D01*
G37*
G36*
X96745266Y-136731051D02*
G01*
X96980889Y-136991564D01*
X97066150Y-137083048D01*
X97142112Y-137161084D01*
X97218079Y-137234976D01*
X97303350Y-137314025D01*
X97407229Y-137407533D01*
X97539016Y-137524802D01*
X96745266Y-137789385D01*
X96745266Y-138847720D01*
X94893182Y-138318553D01*
X94893182Y-136731051D01*
X96480682Y-135937300D01*
X96745266Y-136731051D01*
G37*
G36*
X121193006Y-142316403D02*
G01*
X121986756Y-142316403D01*
X121986756Y-142845570D01*
X121193006Y-143110150D01*
X121011105Y-143655850D01*
X120928423Y-144168485D01*
X120833996Y-144055393D01*
X120793251Y-144009876D01*
X120754977Y-143971162D01*
X120717793Y-143938840D01*
X120699179Y-143924947D01*
X120680319Y-143912497D01*
X120661041Y-143901440D01*
X120641174Y-143891723D01*
X120620543Y-143883295D01*
X120598976Y-143876104D01*
X120576302Y-143870100D01*
X120552347Y-143865230D01*
X120499904Y-143858689D01*
X120440266Y-143856068D01*
X120372055Y-143856957D01*
X120293887Y-143860942D01*
X120204383Y-143867613D01*
X119985845Y-143887364D01*
X119340923Y-143903897D01*
X119076340Y-142051816D01*
X120928423Y-141258069D01*
X121193006Y-142316403D01*
G37*
G36*
X118640000Y-111960000D02*
G01*
X119169167Y-112224584D01*
X118640000Y-113282918D01*
X117317084Y-113018335D01*
X117317084Y-111695417D01*
X118640000Y-111430833D01*
X118640000Y-111960000D01*
G37*
G36*
X179132588Y-159969868D02*
G01*
X179241747Y-160048091D01*
X179340327Y-160116423D01*
X179430919Y-160176075D01*
X179516116Y-160228257D01*
X179598510Y-160274181D01*
X179680693Y-160315058D01*
X179765255Y-160352099D01*
X179854791Y-160386515D01*
X179951890Y-160419518D01*
X180059146Y-160452319D01*
X180314493Y-160522158D01*
X180641568Y-160605721D01*
X181518002Y-160837232D01*
X181376158Y-161131390D01*
X181315302Y-161267870D01*
X181261029Y-161399034D01*
X181213242Y-161526197D01*
X181171844Y-161650672D01*
X181136739Y-161773773D01*
X181107830Y-161896813D01*
X181085021Y-162021106D01*
X181068216Y-162147966D01*
X181057318Y-162278706D01*
X181052230Y-162414640D01*
X181052857Y-162557081D01*
X181059101Y-162707343D01*
X181070866Y-162866739D01*
X181088056Y-163036584D01*
X181253423Y-163747651D01*
X180598685Y-163725093D01*
X180287520Y-163723874D01*
X180134486Y-163727899D01*
X179982579Y-163735823D01*
X179831371Y-163748250D01*
X179680431Y-163765787D01*
X179529331Y-163789040D01*
X179377642Y-163818613D01*
X179224935Y-163855114D01*
X179070781Y-163899147D01*
X178914750Y-163951318D01*
X178756413Y-164012235D01*
X178343007Y-164276814D01*
X178276860Y-163516141D01*
X178240615Y-163233431D01*
X178223494Y-163117758D01*
X178205589Y-163016879D01*
X178185809Y-162929051D01*
X178174875Y-162889487D01*
X178163064Y-162852531D01*
X178150238Y-162817966D01*
X178136263Y-162785573D01*
X178121002Y-162755136D01*
X178104318Y-162726435D01*
X178086075Y-162699252D01*
X178066137Y-162673371D01*
X178044367Y-162648572D01*
X178020631Y-162624637D01*
X177994790Y-162601350D01*
X177966709Y-162578491D01*
X177936252Y-162555842D01*
X177903282Y-162533186D01*
X177829260Y-162486981D01*
X177743552Y-162438129D01*
X177532720Y-162325513D01*
X177020085Y-162160149D01*
X177020085Y-161630982D01*
X178607587Y-161366399D01*
X178872167Y-159778901D01*
X179132588Y-159969868D01*
G37*
G36*
X141036755Y-203964314D02*
G01*
X142359673Y-203964314D01*
X142095090Y-206080981D01*
X141898895Y-206072678D01*
X141816569Y-206070440D01*
X141742109Y-206069995D01*
X141673528Y-206071730D01*
X141608841Y-206076034D01*
X141546060Y-206083292D01*
X141483200Y-206093894D01*
X141418273Y-206108226D01*
X141349295Y-206126676D01*
X141274279Y-206149632D01*
X141191237Y-206177482D01*
X140993135Y-206249411D01*
X140739098Y-206345564D01*
X139978421Y-206610147D01*
X139923022Y-206221474D01*
X139900388Y-206080381D01*
X139876995Y-205954113D01*
X139849745Y-205827167D01*
X139815535Y-205684039D01*
X139713838Y-205287230D01*
X139184670Y-205022648D01*
X139184670Y-204493481D01*
X140243005Y-204228897D01*
X140243005Y-203170565D01*
X140772172Y-203170565D01*
X141036755Y-203964314D01*
G37*
G36*
X129714747Y-156541655D02*
G01*
X129737301Y-156711095D01*
X129760666Y-156862660D01*
X129787944Y-157014952D01*
X129822234Y-157186576D01*
X129924256Y-157662232D01*
X130121660Y-157762485D01*
X130203309Y-157806991D01*
X130275656Y-157850335D01*
X130340251Y-157894454D01*
X130398646Y-157941286D01*
X130452389Y-157992768D01*
X130503032Y-158050840D01*
X130552124Y-158117438D01*
X130601217Y-158194500D01*
X130651860Y-158283965D01*
X130705603Y-158387770D01*
X130763998Y-158507854D01*
X130828593Y-158646153D01*
X130982589Y-158985150D01*
X130760912Y-159040474D01*
X130586331Y-159086487D01*
X130511856Y-159107940D01*
X130443341Y-159129391D01*
X130378849Y-159151615D01*
X130316441Y-159175387D01*
X130254179Y-159201483D01*
X130190127Y-159230677D01*
X130122345Y-159263745D01*
X130048896Y-159301461D01*
X129877246Y-159393941D01*
X129659673Y-159514317D01*
X129477771Y-160192311D01*
X129395089Y-160837232D01*
X128865922Y-161101815D01*
X128778040Y-161013416D01*
X128708567Y-160940326D01*
X128678736Y-160906555D01*
X128651109Y-160873050D01*
X128624888Y-160838625D01*
X128599271Y-160802092D01*
X128573462Y-160762265D01*
X128546659Y-160717957D01*
X128486876Y-160611148D01*
X128413528Y-160472172D01*
X128320220Y-160291531D01*
X128072173Y-159778901D01*
X126220090Y-160043485D01*
X126358140Y-159696347D01*
X126417765Y-159533127D01*
X126471199Y-159375135D01*
X126518498Y-159221118D01*
X126559719Y-159069822D01*
X126594918Y-158919993D01*
X126624152Y-158770378D01*
X126647476Y-158619724D01*
X126664948Y-158466775D01*
X126676624Y-158310280D01*
X126682560Y-158148984D01*
X126682813Y-157981634D01*
X126677439Y-157806976D01*
X126666495Y-157623756D01*
X126650037Y-157430722D01*
X126484673Y-156603902D01*
X126813611Y-156678570D01*
X127143886Y-156747334D01*
X127475283Y-156810527D01*
X127807589Y-156868482D01*
X128171391Y-156688649D01*
X128323837Y-156617336D01*
X128485584Y-156546023D01*
X128678337Y-156465408D01*
X128923800Y-156366190D01*
X129659673Y-156074735D01*
X129714747Y-156541655D01*
G37*
G36*
X54147348Y-141493552D02*
G01*
X53882768Y-142816470D01*
X53619736Y-142903802D01*
X53415615Y-142969430D01*
X53330801Y-142995074D01*
X53254902Y-143016455D01*
X53185979Y-143033960D01*
X53122094Y-143047977D01*
X53061309Y-143058894D01*
X53001688Y-143067097D01*
X52941291Y-143072975D01*
X52878181Y-143076916D01*
X52736071Y-143080533D01*
X52559854Y-143081050D01*
X52295267Y-141758135D01*
X52824434Y-141758135D01*
X53089021Y-140964385D01*
X54147348Y-141493552D01*
G37*
G36*
X120928423Y-155545567D02*
G01*
X120663839Y-156868482D01*
X119340923Y-157133065D01*
X119076340Y-155810151D01*
X119605506Y-155810151D01*
X119605506Y-155280984D01*
X120928423Y-155545567D01*
G37*
G36*
X70286935Y-101806052D02*
G01*
X71345266Y-102335219D01*
X71345266Y-102864386D01*
X70286935Y-102864386D01*
X70022352Y-104187300D01*
X69228601Y-103922721D01*
X69228601Y-103393553D01*
X67641100Y-103393553D01*
X67922220Y-102798239D01*
X67967879Y-102660615D01*
X68007359Y-102532809D01*
X68040648Y-102413461D01*
X68067738Y-102301208D01*
X68088618Y-102194691D01*
X68103280Y-102092548D01*
X68111712Y-101993419D01*
X68113906Y-101895942D01*
X68109850Y-101798757D01*
X68099537Y-101700502D01*
X68082956Y-101599818D01*
X68060096Y-101495341D01*
X68030949Y-101385713D01*
X67995504Y-101269571D01*
X67953752Y-101145556D01*
X67905683Y-101012305D01*
X68500997Y-101045378D01*
X68637767Y-101037595D01*
X68767114Y-101026934D01*
X68889912Y-101013230D01*
X69007031Y-100996317D01*
X69119345Y-100976032D01*
X69227724Y-100952209D01*
X69333040Y-100924683D01*
X69436166Y-100893290D01*
X69537974Y-100857865D01*
X69639334Y-100818242D01*
X69741119Y-100774258D01*
X69844201Y-100725747D01*
X69949452Y-100672544D01*
X70057743Y-100614485D01*
X70286935Y-100483138D01*
X70286935Y-101806052D01*
G37*
G36*
X57322351Y-139641467D02*
G01*
X58645265Y-139906050D01*
X58380685Y-140699801D01*
X57851518Y-140699801D01*
X57851518Y-142287303D01*
X57107378Y-142138472D01*
X56826288Y-142079838D01*
X56709522Y-142057379D01*
X56605412Y-142039784D01*
X56511558Y-142027269D01*
X56425563Y-142020053D01*
X56345029Y-142018354D01*
X56267558Y-142022391D01*
X56190751Y-142032380D01*
X56112210Y-142048540D01*
X56029538Y-142071089D01*
X55940337Y-142100246D01*
X55842207Y-142136227D01*
X55732751Y-142179252D01*
X55470270Y-142287303D01*
X54941103Y-139641467D01*
X56264017Y-139641467D01*
X56528604Y-138583136D01*
X57057771Y-138583136D01*
X57322351Y-139641467D01*
G37*
G36*
X176226338Y-175918481D02*
G01*
X177549252Y-175918481D01*
X177020085Y-178564317D01*
X176757604Y-178456266D01*
X176648148Y-178413241D01*
X176550018Y-178377260D01*
X176460817Y-178348103D01*
X176378145Y-178325554D01*
X176299604Y-178309394D01*
X176222797Y-178299405D01*
X176145326Y-178295368D01*
X176064792Y-178297067D01*
X175978797Y-178304283D01*
X175884943Y-178316798D01*
X175780833Y-178334393D01*
X175664067Y-178356852D01*
X175382977Y-178415486D01*
X174638837Y-178564317D01*
X174638837Y-176976815D01*
X174109670Y-176976815D01*
X173845090Y-176183064D01*
X175168004Y-175918481D01*
X175432584Y-174860150D01*
X175961751Y-174860150D01*
X176226338Y-175918481D01*
G37*
G36*
X185288312Y-144399991D02*
G01*
X185324557Y-144682702D01*
X185341678Y-144798376D01*
X185359583Y-144899255D01*
X185379363Y-144987083D01*
X185390297Y-145026648D01*
X185402108Y-145063604D01*
X185414934Y-145098169D01*
X185428909Y-145130561D01*
X185444170Y-145160999D01*
X185460854Y-145189700D01*
X185479097Y-145216882D01*
X185499035Y-145242764D01*
X185520805Y-145267563D01*
X185544542Y-145291497D01*
X185570382Y-145314785D01*
X185598463Y-145337644D01*
X185628920Y-145360292D01*
X185661890Y-145382948D01*
X185735912Y-145429153D01*
X185821620Y-145478004D01*
X186032452Y-145590619D01*
X186545087Y-145755986D01*
X186369096Y-145871666D01*
X186230396Y-145964039D01*
X186116583Y-146042408D01*
X186015256Y-146116073D01*
X185914011Y-146194336D01*
X185800448Y-146286499D01*
X185486752Y-146549733D01*
X185398387Y-146812765D01*
X185360599Y-146921221D01*
X185325524Y-147016886D01*
X185291999Y-147101700D01*
X185258862Y-147177599D01*
X185224950Y-147246523D01*
X185189099Y-147310408D01*
X185170084Y-147341066D01*
X185150148Y-147371192D01*
X185106934Y-147430813D01*
X185058293Y-147491210D01*
X185003064Y-147554320D01*
X184940084Y-147622081D01*
X184868189Y-147696430D01*
X184693005Y-147872647D01*
X184521248Y-147677282D01*
X184448522Y-147597331D01*
X184381916Y-147527585D01*
X184319445Y-147466834D01*
X184259121Y-147413866D01*
X184198958Y-147367471D01*
X184136970Y-147326437D01*
X184071171Y-147289553D01*
X183999575Y-147255608D01*
X183920194Y-147223390D01*
X183831043Y-147191689D01*
X183730136Y-147159293D01*
X183615485Y-147124992D01*
X183337010Y-147045827D01*
X182576337Y-146814320D01*
X182679803Y-146545540D01*
X182721539Y-146433097D01*
X182757159Y-146331831D01*
X182787074Y-146239149D01*
X182811698Y-146152459D01*
X182831441Y-146069169D01*
X182846716Y-145986689D01*
X182857934Y-145902424D01*
X182865506Y-145813784D01*
X182869846Y-145718178D01*
X182871364Y-145613012D01*
X182867582Y-145363635D01*
X182857457Y-145044919D01*
X182840917Y-144168485D01*
X183293570Y-144193337D01*
X183459443Y-144199550D01*
X183609819Y-144201621D01*
X183763301Y-144199550D01*
X183938493Y-144193337D01*
X184428418Y-144168485D01*
X185222173Y-143639317D01*
X185288312Y-144399991D01*
G37*
G36*
X148765071Y-198532155D02*
G01*
X148787705Y-198673249D01*
X148811098Y-198799517D01*
X148838348Y-198926463D01*
X148872558Y-199069590D01*
X148974255Y-199466397D01*
X149149439Y-199555281D01*
X149221334Y-199594296D01*
X149284314Y-199631762D01*
X149339544Y-199669227D01*
X149388184Y-199708243D01*
X149431399Y-199750359D01*
X149470350Y-199797127D01*
X149506200Y-199850095D01*
X149540113Y-199910815D01*
X149573250Y-199980837D01*
X149606776Y-200061710D01*
X149641851Y-200154986D01*
X149679639Y-200262215D01*
X149768006Y-200524732D01*
X149255376Y-200723168D01*
X149058592Y-200817427D01*
X148978404Y-200857914D01*
X148908897Y-200895717D01*
X148848983Y-200932144D01*
X148822282Y-200950250D01*
X148797570Y-200968503D01*
X148774711Y-200987066D01*
X148753569Y-201006103D01*
X148734007Y-201025776D01*
X148715890Y-201046250D01*
X148699080Y-201067689D01*
X148683442Y-201090255D01*
X148668840Y-201114112D01*
X148655137Y-201139423D01*
X148642196Y-201166353D01*
X148629883Y-201195064D01*
X148606590Y-201258485D01*
X148584169Y-201330995D01*
X148561530Y-201413902D01*
X148511235Y-201616137D01*
X148445088Y-202112231D01*
X147915921Y-202112231D01*
X147752103Y-201919113D01*
X147683009Y-201840557D01*
X147620068Y-201772645D01*
X147561487Y-201714362D01*
X147505474Y-201664688D01*
X147450236Y-201622608D01*
X147422348Y-201604097D01*
X147393981Y-201587103D01*
X147364912Y-201571498D01*
X147334917Y-201557156D01*
X147271250Y-201531750D01*
X147201189Y-201509868D01*
X147122941Y-201490492D01*
X147034712Y-201472604D01*
X146934712Y-201455187D01*
X146692223Y-201417699D01*
X146063840Y-201318480D01*
X146134499Y-201072905D01*
X146192746Y-200835935D01*
X146239714Y-200604096D01*
X146276533Y-200373912D01*
X146304335Y-200141911D01*
X146324252Y-199904616D01*
X146337415Y-199658555D01*
X146344956Y-199400252D01*
X146328423Y-198672648D01*
X146597345Y-198685451D01*
X146848118Y-198690870D01*
X146968326Y-198689916D01*
X147085949Y-198686043D01*
X147201639Y-198678893D01*
X147316045Y-198668109D01*
X147429818Y-198653333D01*
X147543610Y-198634206D01*
X147658071Y-198610372D01*
X147773852Y-198581472D01*
X147891603Y-198547149D01*
X148011976Y-198507046D01*
X148135621Y-198460803D01*
X148263188Y-198408065D01*
X148709672Y-198143481D01*
X148765071Y-198532155D01*
G37*
G36*
X94810501Y-112538214D02*
G01*
X94978035Y-112609322D01*
X95133290Y-112671461D01*
X95278038Y-112724730D01*
X95414050Y-112769223D01*
X95543099Y-112805039D01*
X95666957Y-112832274D01*
X95787396Y-112851024D01*
X95906187Y-112861388D01*
X96025102Y-112863461D01*
X96145915Y-112857340D01*
X96270396Y-112843122D01*
X96400317Y-112820904D01*
X96537451Y-112790783D01*
X96683570Y-112752855D01*
X96840445Y-112707218D01*
X97009849Y-112653968D01*
X96844486Y-113365035D01*
X96827297Y-113534881D01*
X96815532Y-113694278D01*
X96809289Y-113844541D01*
X96808662Y-113986982D01*
X96813750Y-114122916D01*
X96824648Y-114253656D01*
X96841453Y-114380516D01*
X96864262Y-114504809D01*
X96893170Y-114627849D01*
X96928275Y-114750949D01*
X96969673Y-114875423D01*
X97017460Y-115002586D01*
X97071733Y-115133749D01*
X97132588Y-115270227D01*
X97274433Y-115564383D01*
X95686933Y-115564383D01*
X95438886Y-116077017D01*
X95345578Y-116257658D01*
X95272229Y-116396634D01*
X95212446Y-116503443D01*
X95185643Y-116547751D01*
X95159833Y-116587578D01*
X95134217Y-116624111D01*
X95107995Y-116658537D01*
X95080368Y-116692042D01*
X95050537Y-116725814D01*
X94981065Y-116798905D01*
X94893182Y-116887305D01*
X94718516Y-116623754D01*
X94647849Y-116514070D01*
X94587259Y-116416013D01*
X94535970Y-116327259D01*
X94493208Y-116245480D01*
X94458197Y-116168353D01*
X94430163Y-116093551D01*
X94408330Y-116018750D01*
X94391922Y-115941623D01*
X94380166Y-115859845D01*
X94372285Y-115771091D01*
X94367505Y-115673035D01*
X94365051Y-115563352D01*
X94364017Y-115299803D01*
X92776517Y-115035216D01*
X92993557Y-114721027D01*
X93074172Y-114607340D01*
X93148586Y-114506056D01*
X93226101Y-114404770D01*
X93316019Y-114291082D01*
X93570268Y-113976889D01*
X94099433Y-113976889D01*
X94099433Y-112124800D01*
X94810501Y-112538214D01*
G37*
G36*
X190778417Y-131468488D02*
G01*
X189984670Y-131468488D01*
X189984670Y-131997655D01*
X189455502Y-131997655D01*
X189455502Y-131468488D01*
X188661755Y-131468488D01*
X188926335Y-130145566D01*
X190513837Y-130145566D01*
X190778417Y-131468488D01*
G37*
G36*
X113414015Y-105774802D02*
G01*
X113149432Y-107626883D01*
X112504510Y-107610350D01*
X112285972Y-107590599D01*
X112196468Y-107583928D01*
X112118300Y-107579943D01*
X112050089Y-107579054D01*
X111990451Y-107581675D01*
X111938008Y-107588216D01*
X111914053Y-107593086D01*
X111891379Y-107599090D01*
X111869812Y-107606281D01*
X111849181Y-107614709D01*
X111829314Y-107624426D01*
X111810036Y-107635483D01*
X111791176Y-107647933D01*
X111772562Y-107661826D01*
X111735378Y-107694148D01*
X111697104Y-107732862D01*
X111656359Y-107778379D01*
X111561932Y-107891471D01*
X111479250Y-107378836D01*
X111297349Y-106833136D01*
X110503599Y-106568556D01*
X110503599Y-106039389D01*
X111297349Y-106039389D01*
X111561932Y-104981055D01*
X113414015Y-105774802D01*
G37*
G36*
X70105032Y-162875191D02*
G01*
X70138939Y-163028239D01*
X70172339Y-163168721D01*
X70206113Y-163297880D01*
X70241144Y-163416961D01*
X70278314Y-163527205D01*
X70318505Y-163629858D01*
X70362600Y-163726161D01*
X70411481Y-163817357D01*
X70466030Y-163904691D01*
X70527129Y-163989406D01*
X70595660Y-164072744D01*
X70672506Y-164155949D01*
X70758549Y-164240263D01*
X70854671Y-164326932D01*
X70961755Y-164417197D01*
X71080682Y-164512301D01*
X71033944Y-164558878D01*
X70992026Y-164599666D01*
X70953548Y-164635076D01*
X70935167Y-164650894D01*
X70917128Y-164665521D01*
X70899259Y-164679010D01*
X70881387Y-164691411D01*
X70863339Y-164702778D01*
X70844943Y-164713160D01*
X70826027Y-164722609D01*
X70806416Y-164731178D01*
X70785940Y-164738917D01*
X70764425Y-164745877D01*
X70741699Y-164752111D01*
X70717590Y-164757670D01*
X70691923Y-164762605D01*
X70664528Y-164766968D01*
X70635232Y-164770809D01*
X70603861Y-164774182D01*
X70570243Y-164777137D01*
X70534206Y-164779725D01*
X70454184Y-164784009D01*
X70362414Y-164787444D01*
X70138105Y-164793420D01*
X69493185Y-164776883D01*
X68964017Y-166099801D01*
X68728374Y-165882760D01*
X68643108Y-165802145D01*
X68567144Y-165727730D01*
X68491179Y-165650216D01*
X68405913Y-165560299D01*
X68170267Y-165306050D01*
X68170267Y-164776883D01*
X66847353Y-164776883D01*
X67111936Y-164346936D01*
X67168820Y-164204092D01*
X67218056Y-164064335D01*
X67260131Y-163927128D01*
X67295530Y-163791935D01*
X67324739Y-163658217D01*
X67348245Y-163525438D01*
X67366533Y-163393059D01*
X67380089Y-163260545D01*
X67389399Y-163127357D01*
X67394950Y-162992958D01*
X67397227Y-162856811D01*
X67396716Y-162718379D01*
X67389276Y-162432509D01*
X67376516Y-162131051D01*
X68104124Y-162279879D01*
X68379675Y-162313754D01*
X68507305Y-162326407D01*
X68629465Y-162335930D01*
X68747128Y-162342115D01*
X68861264Y-162344758D01*
X68972846Y-162343653D01*
X69082843Y-162338593D01*
X69192228Y-162329373D01*
X69301971Y-162315786D01*
X69413044Y-162297628D01*
X69526418Y-162274692D01*
X69643065Y-162246772D01*
X69763955Y-162213662D01*
X69890060Y-162175157D01*
X70022352Y-162131051D01*
X70105032Y-162875191D01*
G37*
G36*
X147535584Y-186997908D02*
G01*
X147658992Y-187217991D01*
X147712659Y-187307909D01*
X147763584Y-187386156D01*
X147813730Y-187454039D01*
X147865058Y-187512867D01*
X147891779Y-187539294D01*
X147919531Y-187563948D01*
X147948559Y-187586992D01*
X147979110Y-187608589D01*
X148011428Y-187628904D01*
X148045758Y-187648100D01*
X148121437Y-187683787D01*
X148208109Y-187716959D01*
X148307736Y-187748925D01*
X148422280Y-187780991D01*
X148553703Y-187814467D01*
X148875035Y-187890878D01*
X149768006Y-188089314D01*
X149768006Y-188618482D01*
X149371129Y-188932673D01*
X149207699Y-189100031D01*
X149141766Y-189171412D01*
X149085482Y-189237437D01*
X149038193Y-189300237D01*
X148999245Y-189361945D01*
X148967985Y-189424692D01*
X148955033Y-189457121D01*
X148943757Y-189490609D01*
X148925909Y-189561828D01*
X148913786Y-189640481D01*
X148906733Y-189728700D01*
X148904098Y-189828616D01*
X148905225Y-189942360D01*
X148909462Y-190072065D01*
X148924645Y-190387883D01*
X148974255Y-191264315D01*
X148243300Y-191137140D01*
X147901554Y-191085966D01*
X147734055Y-191066693D01*
X147567829Y-191052852D01*
X147402146Y-191045362D01*
X147236274Y-191045138D01*
X147069483Y-191053100D01*
X146901040Y-191070162D01*
X146730214Y-191097245D01*
X146556275Y-191135263D01*
X146378491Y-191185135D01*
X146196130Y-191247779D01*
X145799256Y-191528897D01*
X145799256Y-189412232D01*
X145270089Y-189412232D01*
X144740922Y-188353898D01*
X145501599Y-188171998D01*
X145792002Y-188082857D01*
X145910698Y-188043804D01*
X146014049Y-188006395D01*
X146103800Y-187969103D01*
X146144120Y-187950025D01*
X146181694Y-187930403D01*
X146216740Y-187910048D01*
X146249475Y-187888768D01*
X146280119Y-187866374D01*
X146308889Y-187842673D01*
X146336002Y-187817476D01*
X146361678Y-187790591D01*
X146386133Y-187761828D01*
X146409587Y-187730997D01*
X146432256Y-187697905D01*
X146454359Y-187662363D01*
X146497740Y-187583165D01*
X146541473Y-187491875D01*
X146587301Y-187386969D01*
X146692223Y-187130200D01*
X146857587Y-186501817D01*
X147386754Y-186501817D01*
X147535584Y-186997908D01*
G37*
G36*
X137597173Y-173008065D02*
G01*
X137597173Y-174595567D01*
X135745089Y-175124734D01*
X135745089Y-174066399D01*
X134951339Y-173801816D01*
X135083126Y-173684547D01*
X135187005Y-173591039D01*
X135272276Y-173511990D01*
X135348243Y-173438098D01*
X135424205Y-173360062D01*
X135509466Y-173268578D01*
X135745089Y-173008065D01*
X136009673Y-172214314D01*
X137597173Y-173008065D01*
G37*
G36*
X181774295Y-200880128D02*
G01*
X181975836Y-200950070D01*
X182140259Y-201003986D01*
X182285199Y-201046719D01*
X182428291Y-201083115D01*
X182587170Y-201118018D01*
X182779469Y-201156273D01*
X183022824Y-201202725D01*
X183634671Y-201318480D01*
X183594636Y-201442035D01*
X183558952Y-201559910D01*
X183527565Y-201672980D01*
X183500421Y-201782123D01*
X183477465Y-201888214D01*
X183458642Y-201992130D01*
X183443900Y-202094747D01*
X183433183Y-202196941D01*
X183426437Y-202299589D01*
X183423607Y-202403566D01*
X183424641Y-202509749D01*
X183429482Y-202619014D01*
X183438078Y-202732237D01*
X183450373Y-202850295D01*
X183466313Y-202974063D01*
X183485845Y-203104419D01*
X183634671Y-203699731D01*
X183260580Y-203674856D01*
X183123132Y-203668637D01*
X182998078Y-203666564D01*
X182869916Y-203668637D01*
X182723143Y-203674856D01*
X182311749Y-203699731D01*
X181518002Y-204228897D01*
X181253423Y-202905981D01*
X180724255Y-202905981D01*
X180459668Y-202112231D01*
X180649826Y-202037034D01*
X180727732Y-202004355D01*
X180795804Y-201973374D01*
X180855254Y-201942903D01*
X180907291Y-201911755D01*
X180930910Y-201895557D01*
X180953129Y-201878744D01*
X180974101Y-201861169D01*
X180993977Y-201842683D01*
X181012909Y-201823137D01*
X181031048Y-201802384D01*
X181048545Y-201780275D01*
X181065552Y-201756661D01*
X181098700Y-201704327D01*
X181131703Y-201644194D01*
X181165773Y-201575077D01*
X181202121Y-201495787D01*
X181286496Y-201301944D01*
X181518002Y-200789315D01*
X181774295Y-200880128D01*
G37*
G36*
X50823526Y-153234437D02*
G01*
X50862575Y-153461613D01*
X50895543Y-153638905D01*
X50911260Y-153713325D01*
X50927274Y-153780652D01*
X50944189Y-153842678D01*
X50962612Y-153901196D01*
X50983148Y-153957997D01*
X51006402Y-154014875D01*
X51032981Y-154073623D01*
X51063489Y-154136032D01*
X51138718Y-154279005D01*
X51236932Y-154458134D01*
X50724306Y-154540816D01*
X50178606Y-154722718D01*
X49914018Y-155516467D01*
X49384851Y-155516467D01*
X49120271Y-154987301D01*
X48803593Y-154810335D01*
X48689284Y-154748524D01*
X48587791Y-154696225D01*
X48486712Y-154647238D01*
X48373645Y-154595361D01*
X48061937Y-154458134D01*
X48326517Y-153978577D01*
X48431898Y-153781310D01*
X48474322Y-153698498D01*
X48510419Y-153623554D01*
X48540576Y-153554467D01*
X48565180Y-153489226D01*
X48584619Y-153425821D01*
X48599281Y-153362241D01*
X48609553Y-153296476D01*
X48615823Y-153226516D01*
X48618479Y-153150349D01*
X48617908Y-153065965D01*
X48614497Y-152971354D01*
X48608634Y-152864505D01*
X48591104Y-152606051D01*
X50707765Y-152606051D01*
X50823526Y-153234437D01*
G37*
G36*
X51203859Y-165024930D02*
G01*
X51288234Y-165218773D01*
X51324582Y-165298063D01*
X51358652Y-165367180D01*
X51391655Y-165427313D01*
X51424803Y-165479647D01*
X51441810Y-165503261D01*
X51459307Y-165525370D01*
X51477446Y-165546123D01*
X51496378Y-165565669D01*
X51516254Y-165584155D01*
X51537226Y-165601730D01*
X51559445Y-165618543D01*
X51583064Y-165634741D01*
X51635101Y-165665889D01*
X51694551Y-165696360D01*
X51762623Y-165727341D01*
X51840529Y-165760020D01*
X52030687Y-165835217D01*
X51766100Y-166628967D01*
X51236932Y-166628967D01*
X50972353Y-167951883D01*
X50178606Y-167422717D01*
X49767212Y-167397842D01*
X49620439Y-167391623D01*
X49492277Y-167389550D01*
X49367223Y-167391623D01*
X49229775Y-167397842D01*
X48855684Y-167422717D01*
X49004510Y-166827405D01*
X49024042Y-166697049D01*
X49039982Y-166573281D01*
X49052277Y-166455223D01*
X49060873Y-166342000D01*
X49065714Y-166232735D01*
X49066748Y-166126552D01*
X49063918Y-166022575D01*
X49057172Y-165919927D01*
X49046455Y-165817733D01*
X49031713Y-165715116D01*
X49012890Y-165611200D01*
X48989934Y-165505109D01*
X48962790Y-165395966D01*
X48931403Y-165282896D01*
X48895719Y-165165021D01*
X48855684Y-165041466D01*
X49467531Y-164925711D01*
X49710886Y-164879259D01*
X49903185Y-164841004D01*
X50062064Y-164806101D01*
X50205156Y-164769705D01*
X50350096Y-164726972D01*
X50514519Y-164673056D01*
X50716060Y-164603114D01*
X50972353Y-164512301D01*
X51203859Y-165024930D01*
G37*
G36*
X95951517Y-128528968D02*
G01*
X95802688Y-129008525D01*
X95745816Y-129215362D01*
X95724049Y-129301933D01*
X95707020Y-129379954D01*
X95694945Y-129451433D01*
X95688044Y-129518383D01*
X95686602Y-129550787D01*
X95686534Y-129582813D01*
X95687869Y-129614712D01*
X95690633Y-129646735D01*
X95694854Y-129679133D01*
X95700559Y-129712158D01*
X95716531Y-129781093D01*
X95738765Y-129855552D01*
X95767481Y-129937543D01*
X95802896Y-130029078D01*
X95845229Y-130132168D01*
X95951517Y-130381053D01*
X95306594Y-130496806D01*
X95089142Y-130523993D01*
X95000065Y-130536274D01*
X94922246Y-130548487D01*
X94854306Y-130561239D01*
X94794863Y-130575134D01*
X94742536Y-130590779D01*
X94695945Y-130608779D01*
X94653709Y-130629739D01*
X94614448Y-130654265D01*
X94576780Y-130682962D01*
X94539324Y-130716437D01*
X94500701Y-130755294D01*
X94459529Y-130800140D01*
X94364017Y-130910220D01*
X94281334Y-130397589D01*
X94099433Y-129851885D01*
X93305685Y-129587302D01*
X93570268Y-129058135D01*
X94099433Y-129058135D01*
X94364017Y-127999800D01*
X95951517Y-128528968D01*
G37*
G36*
X84227167Y-162131051D02*
G01*
X84354734Y-162183789D01*
X84478379Y-162230032D01*
X84598752Y-162270135D01*
X84716503Y-162304458D01*
X84832284Y-162333358D01*
X84946745Y-162357192D01*
X85060537Y-162376319D01*
X85174310Y-162391095D01*
X85288716Y-162401879D01*
X85404406Y-162409029D01*
X85522029Y-162412902D01*
X85642237Y-162413856D01*
X85893010Y-162408437D01*
X86161932Y-162395634D01*
X86145399Y-163123238D01*
X86152940Y-163381541D01*
X86166103Y-163627602D01*
X86186020Y-163864897D01*
X86213822Y-164096898D01*
X86250641Y-164327082D01*
X86297609Y-164558921D01*
X86355856Y-164795891D01*
X86426515Y-165041466D01*
X85798132Y-165140685D01*
X85555643Y-165178173D01*
X85455643Y-165195590D01*
X85367414Y-165213478D01*
X85289166Y-165232854D01*
X85219105Y-165254736D01*
X85155438Y-165280142D01*
X85125443Y-165294484D01*
X85096374Y-165310089D01*
X85068007Y-165327083D01*
X85040119Y-165345594D01*
X84984881Y-165387674D01*
X84928868Y-165437348D01*
X84870287Y-165495631D01*
X84807346Y-165563543D01*
X84738252Y-165642099D01*
X84574434Y-165835217D01*
X84045267Y-165835217D01*
X83979120Y-165339123D01*
X83928825Y-165136888D01*
X83906186Y-165053981D01*
X83883765Y-164981471D01*
X83860472Y-164918050D01*
X83848159Y-164889339D01*
X83835218Y-164862409D01*
X83821515Y-164837098D01*
X83806913Y-164813241D01*
X83791275Y-164790675D01*
X83774465Y-164769236D01*
X83756348Y-164748762D01*
X83736786Y-164729089D01*
X83715644Y-164710052D01*
X83692785Y-164691489D01*
X83668073Y-164673236D01*
X83641372Y-164655130D01*
X83581458Y-164618703D01*
X83511951Y-164580900D01*
X83431763Y-164540413D01*
X83234979Y-164446154D01*
X82722349Y-164247718D01*
X82810716Y-163985201D01*
X82848504Y-163877972D01*
X82883579Y-163784696D01*
X82917105Y-163703823D01*
X82950242Y-163633801D01*
X82984155Y-163573081D01*
X83020005Y-163520113D01*
X83058956Y-163473345D01*
X83102171Y-163431229D01*
X83150811Y-163392213D01*
X83206041Y-163354748D01*
X83269021Y-163317282D01*
X83340916Y-163278267D01*
X83516100Y-163189383D01*
X83617797Y-162792576D01*
X83652007Y-162649449D01*
X83679257Y-162522503D01*
X83702650Y-162396235D01*
X83725284Y-162255141D01*
X83780683Y-161866467D01*
X84227167Y-162131051D01*
G37*
G36*
X157729163Y-148395093D02*
G01*
X157749312Y-148598767D01*
X157769049Y-148766860D01*
X157791476Y-148917976D01*
X157819692Y-149070718D01*
X157856799Y-149243690D01*
X157970086Y-149724736D01*
X158763837Y-150253903D01*
X158763837Y-150783070D01*
X158118916Y-150981503D01*
X157879853Y-151067667D01*
X157782478Y-151104974D01*
X157698131Y-151140175D01*
X157625502Y-151174579D01*
X157593174Y-151191890D01*
X157563285Y-151209492D01*
X157535671Y-151227549D01*
X157510170Y-151246225D01*
X157486618Y-151265681D01*
X157464851Y-151286083D01*
X157444705Y-151307594D01*
X157426018Y-151330376D01*
X157408626Y-151354594D01*
X157392364Y-151380412D01*
X157377071Y-151407992D01*
X157362581Y-151437498D01*
X157348733Y-151469094D01*
X157335361Y-151502943D01*
X157309395Y-151578055D01*
X157283376Y-151664141D01*
X157225945Y-151874471D01*
X157176339Y-152370564D01*
X156647172Y-152370564D01*
X156118005Y-151312230D01*
X154530503Y-151312230D01*
X154615122Y-151180147D01*
X154690234Y-151056668D01*
X154756227Y-150940299D01*
X154813487Y-150829544D01*
X154862402Y-150722907D01*
X154903360Y-150618893D01*
X154936747Y-150516006D01*
X154962951Y-150412751D01*
X154982358Y-150307633D01*
X154995357Y-150199155D01*
X155002335Y-150085823D01*
X155003678Y-149966141D01*
X154999774Y-149838613D01*
X154991011Y-149701744D01*
X154977775Y-149554039D01*
X154960454Y-149394002D01*
X154795087Y-148666402D01*
X155449826Y-148688958D01*
X155760992Y-148690176D01*
X155914026Y-148686150D01*
X156065933Y-148678226D01*
X156217141Y-148665799D01*
X156368080Y-148648262D01*
X156519179Y-148625009D01*
X156670868Y-148595436D01*
X156823574Y-148558935D01*
X156977727Y-148514902D01*
X157133757Y-148462730D01*
X157292092Y-148401814D01*
X157705502Y-148137235D01*
X157729163Y-148395093D01*
G37*
G36*
X194213841Y-134305283D02*
G01*
X194323000Y-134383506D01*
X194421580Y-134451838D01*
X194512172Y-134511490D01*
X194597369Y-134563672D01*
X194679763Y-134609596D01*
X194761946Y-134650473D01*
X194846509Y-134687515D01*
X194936044Y-134721932D01*
X195033143Y-134754936D01*
X195140399Y-134787737D01*
X195395746Y-134857578D01*
X195722821Y-134941144D01*
X196599255Y-135172650D01*
X196457411Y-135466809D01*
X196396555Y-135603288D01*
X196342282Y-135734452D01*
X196294494Y-135861615D01*
X196253096Y-135986090D01*
X196217991Y-136109190D01*
X196189082Y-136232230D01*
X196166273Y-136356523D01*
X196149467Y-136483382D01*
X196138569Y-136614122D01*
X196133480Y-136750055D01*
X196134106Y-136892496D01*
X196140349Y-137042758D01*
X196152113Y-137202154D01*
X196169301Y-137371999D01*
X196334668Y-138083066D01*
X195871783Y-138070305D01*
X195408659Y-138066495D01*
X194945519Y-138070970D01*
X194482587Y-138083066D01*
X193688832Y-138612233D01*
X193566021Y-138212290D01*
X193436664Y-137814360D01*
X193301101Y-137418490D01*
X193159673Y-137024732D01*
X192630505Y-136760152D01*
X192365918Y-135966405D01*
X193688832Y-135701817D01*
X193953420Y-134114316D01*
X194213841Y-134305283D01*
G37*
G36*
X165101079Y-198709523D02*
G01*
X165093639Y-198995393D01*
X165093128Y-199133825D01*
X165095405Y-199269972D01*
X165100956Y-199404371D01*
X165110266Y-199537559D01*
X165123822Y-199670073D01*
X165142110Y-199802452D01*
X165165616Y-199935231D01*
X165194825Y-200068949D01*
X165230224Y-200204142D01*
X165272299Y-200341349D01*
X165321535Y-200481106D01*
X165378419Y-200623950D01*
X165643002Y-201053897D01*
X164320088Y-201053897D01*
X164320088Y-201583064D01*
X164084442Y-201837313D01*
X163999176Y-201927230D01*
X163923211Y-202004744D01*
X163847247Y-202079159D01*
X163761981Y-202159774D01*
X163526338Y-202376815D01*
X162997170Y-201053897D01*
X162352250Y-201070434D01*
X162127941Y-201064458D01*
X162036171Y-201061023D01*
X161956149Y-201056739D01*
X161920112Y-201054151D01*
X161886494Y-201051196D01*
X161855123Y-201047823D01*
X161825827Y-201043982D01*
X161798432Y-201039619D01*
X161772765Y-201034684D01*
X161748656Y-201029125D01*
X161725930Y-201022891D01*
X161704415Y-201015931D01*
X161683939Y-201008192D01*
X161664328Y-200999623D01*
X161645412Y-200990174D01*
X161627016Y-200979792D01*
X161608968Y-200968425D01*
X161591096Y-200956024D01*
X161573227Y-200942535D01*
X161555188Y-200927908D01*
X161536807Y-200912090D01*
X161498329Y-200876680D01*
X161456411Y-200835892D01*
X161409673Y-200789315D01*
X161528600Y-200694211D01*
X161635684Y-200603946D01*
X161731806Y-200517277D01*
X161817849Y-200432963D01*
X161894695Y-200349758D01*
X161963226Y-200266420D01*
X162024325Y-200181705D01*
X162078874Y-200094371D01*
X162127755Y-200003175D01*
X162171850Y-199906872D01*
X162212041Y-199804219D01*
X162249211Y-199693975D01*
X162284242Y-199574894D01*
X162318016Y-199445735D01*
X162351416Y-199305253D01*
X162385323Y-199152205D01*
X162468003Y-198408065D01*
X162600295Y-198452171D01*
X162726400Y-198490676D01*
X162847290Y-198523786D01*
X162963937Y-198551706D01*
X163077311Y-198574642D01*
X163188384Y-198592800D01*
X163298127Y-198606387D01*
X163407512Y-198615607D01*
X163517509Y-198620667D01*
X163629091Y-198621772D01*
X163743227Y-198619129D01*
X163860890Y-198612944D01*
X163983050Y-198603421D01*
X164110680Y-198590768D01*
X164386231Y-198556893D01*
X165113839Y-198408065D01*
X165101079Y-198709523D01*
G37*
G36*
X39330682Y-108949805D02*
G01*
X39330682Y-110801886D01*
X38956548Y-110968285D01*
X38819090Y-111027454D01*
X38694033Y-111078872D01*
X38565876Y-111128740D01*
X38419114Y-111183259D01*
X38007768Y-111331053D01*
X37478601Y-111066466D01*
X37478601Y-110272719D01*
X36684854Y-110272719D01*
X36949434Y-109478972D01*
X37478601Y-109478972D01*
X37743188Y-108420638D01*
X39330682Y-108949805D01*
G37*
G36*
X85798132Y-150853186D02*
G01*
X85903054Y-151109955D01*
X85948882Y-151214861D01*
X85992615Y-151306151D01*
X86035996Y-151385349D01*
X86058099Y-151420891D01*
X86080768Y-151453983D01*
X86104222Y-151484814D01*
X86128677Y-151513577D01*
X86154353Y-151540462D01*
X86181466Y-151565659D01*
X86210236Y-151589360D01*
X86240880Y-151611754D01*
X86273615Y-151633034D01*
X86308661Y-151653389D01*
X86346235Y-151673011D01*
X86386555Y-151692089D01*
X86476306Y-151729381D01*
X86579657Y-151766790D01*
X86698353Y-151805843D01*
X86988756Y-151894984D01*
X87749433Y-152076884D01*
X87220266Y-153135218D01*
X86691099Y-153135218D01*
X86691099Y-155251883D01*
X86294225Y-154970765D01*
X86111864Y-154908121D01*
X85934080Y-154858249D01*
X85760141Y-154820231D01*
X85589315Y-154793148D01*
X85420872Y-154776086D01*
X85254081Y-154768124D01*
X85088209Y-154768348D01*
X84922526Y-154775838D01*
X84756300Y-154789679D01*
X84588801Y-154808952D01*
X84247055Y-154860126D01*
X83516100Y-154987301D01*
X83565710Y-154110869D01*
X83580893Y-153795051D01*
X83585130Y-153665346D01*
X83586257Y-153551602D01*
X83583622Y-153451686D01*
X83576569Y-153363467D01*
X83564446Y-153284814D01*
X83546598Y-153213595D01*
X83535322Y-153180107D01*
X83522370Y-153147678D01*
X83491110Y-153084931D01*
X83452162Y-153023223D01*
X83404873Y-152960423D01*
X83348589Y-152894398D01*
X83282656Y-152823017D01*
X83119226Y-152655659D01*
X82722349Y-152341468D01*
X82722349Y-151812300D01*
X83615320Y-151613864D01*
X83936652Y-151537453D01*
X84068075Y-151503977D01*
X84182619Y-151471911D01*
X84282246Y-151439945D01*
X84368918Y-151406773D01*
X84444597Y-151371086D01*
X84478927Y-151351890D01*
X84511245Y-151331575D01*
X84541796Y-151309978D01*
X84570824Y-151286934D01*
X84598576Y-151262280D01*
X84625297Y-151235853D01*
X84676625Y-151177025D01*
X84726771Y-151109142D01*
X84777696Y-151030895D01*
X84831363Y-150940977D01*
X84954771Y-150720894D01*
X85103601Y-150224803D01*
X85632768Y-150224803D01*
X85798132Y-150853186D01*
G37*
G36*
X162432612Y-136891499D02*
G01*
X162540903Y-136949558D01*
X162646154Y-137002761D01*
X162749236Y-137051272D01*
X162851021Y-137095256D01*
X162952381Y-137134879D01*
X163054189Y-137170304D01*
X163157315Y-137201697D01*
X163262631Y-137229223D01*
X163371010Y-137253046D01*
X163483324Y-137273331D01*
X163600443Y-137290244D01*
X163723241Y-137303948D01*
X163852588Y-137314609D01*
X163989358Y-137322392D01*
X164584672Y-137289319D01*
X164536603Y-137422570D01*
X164494851Y-137546585D01*
X164459406Y-137662727D01*
X164430259Y-137772355D01*
X164407399Y-137876832D01*
X164390818Y-137977516D01*
X164380505Y-138075771D01*
X164376449Y-138172956D01*
X164378643Y-138270433D01*
X164387075Y-138369562D01*
X164401737Y-138471705D01*
X164422617Y-138578222D01*
X164449707Y-138690475D01*
X164482996Y-138809823D01*
X164522476Y-138937629D01*
X164568135Y-139075253D01*
X164849255Y-139670567D01*
X163261754Y-139670567D01*
X163261754Y-140199735D01*
X162468003Y-140464314D01*
X162203420Y-139141400D01*
X161145089Y-139141400D01*
X161145089Y-138612233D01*
X162203420Y-138083066D01*
X162203420Y-136760152D01*
X162432612Y-136891499D01*
G37*
G36*
X178343007Y-137553899D02*
G01*
X177549252Y-137818486D01*
X177549252Y-138347653D01*
X177020085Y-138612233D01*
X176608743Y-138464438D01*
X176461983Y-138409920D01*
X176333826Y-138360052D01*
X176208769Y-138308634D01*
X176071310Y-138249464D01*
X175697171Y-138083066D01*
X175961751Y-136230985D01*
X177813840Y-135966405D01*
X178343007Y-137553899D01*
G37*
G36*
X146832734Y-145944052D02*
G01*
X146826521Y-146109926D01*
X146824450Y-146260301D01*
X146826521Y-146413783D01*
X146832734Y-146588975D01*
X146857587Y-147078900D01*
X147386754Y-147872647D01*
X147052619Y-147996180D01*
X146720745Y-148125812D01*
X146391147Y-148261154D01*
X146063840Y-148401814D01*
X145974956Y-148576998D01*
X145935941Y-148648893D01*
X145898475Y-148711873D01*
X145861010Y-148767103D01*
X145821994Y-148815743D01*
X145779878Y-148858958D01*
X145733110Y-148897909D01*
X145680142Y-148933760D01*
X145619422Y-148967673D01*
X145549400Y-149000811D01*
X145468527Y-149034336D01*
X145375251Y-149069412D01*
X145268022Y-149107201D01*
X145005505Y-149195569D01*
X144740922Y-148137235D01*
X143418004Y-147872647D01*
X144211755Y-145491399D01*
X144344046Y-145535506D01*
X144470151Y-145574011D01*
X144591042Y-145607121D01*
X144707688Y-145635041D01*
X144821063Y-145657977D01*
X144932136Y-145676135D01*
X145041879Y-145689721D01*
X145151264Y-145698941D01*
X145261261Y-145704001D01*
X145372842Y-145705106D01*
X145486979Y-145702462D01*
X145604641Y-145696277D01*
X145726802Y-145686754D01*
X145854432Y-145674101D01*
X146129983Y-145640225D01*
X146857587Y-145491399D01*
X146832734Y-145944052D01*
G37*
G36*
X130519568Y-207238533D02*
G01*
X130562526Y-207481265D01*
X130582282Y-207580658D01*
X130602345Y-207667436D01*
X130623803Y-207743125D01*
X130635396Y-207777289D01*
X130647747Y-207809252D01*
X130660992Y-207839207D01*
X130675266Y-207867343D01*
X130690708Y-207893852D01*
X130707452Y-207918924D01*
X130725635Y-207942750D01*
X130745393Y-207965520D01*
X130766863Y-207987426D01*
X130790180Y-208008659D01*
X130815481Y-208029408D01*
X130842903Y-208049865D01*
X130872581Y-208070221D01*
X130904652Y-208090665D01*
X130976517Y-208132586D01*
X131059588Y-208177153D01*
X131263709Y-208280330D01*
X131776339Y-208462231D01*
X130718005Y-208991397D01*
X130718005Y-210314314D01*
X130656480Y-210312800D01*
X130596652Y-210308383D01*
X130538389Y-210301249D01*
X130481564Y-210291585D01*
X130426047Y-210279578D01*
X130371708Y-210265414D01*
X130266048Y-210231365D01*
X130163549Y-210190932D01*
X130063175Y-210145608D01*
X129864664Y-210046265D01*
X129662233Y-209945288D01*
X129556960Y-209897922D01*
X129447601Y-209854629D01*
X129333121Y-209816904D01*
X129273637Y-209800596D01*
X129212485Y-209786240D01*
X129149535Y-209774024D01*
X129084659Y-209764132D01*
X129017725Y-209756754D01*
X128948605Y-209752074D01*
X128336757Y-209785148D01*
X128376792Y-209661593D01*
X128412476Y-209543718D01*
X128443863Y-209430648D01*
X128471007Y-209321505D01*
X128493964Y-209215413D01*
X128512786Y-209111497D01*
X128527529Y-209008880D01*
X128538246Y-208906686D01*
X128544992Y-208804039D01*
X128547821Y-208700062D01*
X128546788Y-208593879D01*
X128541946Y-208484614D01*
X128533351Y-208371391D01*
X128521056Y-208253333D01*
X128505115Y-208129565D01*
X128485583Y-207999209D01*
X128336757Y-207403897D01*
X128669139Y-207346512D01*
X129000423Y-207282811D01*
X129330603Y-207213506D01*
X129659673Y-207139314D01*
X130453422Y-206610147D01*
X130519568Y-207238533D01*
G37*
G36*
X138390922Y-150253903D02*
G01*
X138920087Y-150253903D01*
X139174336Y-150568096D01*
X139264254Y-150681784D01*
X139341769Y-150783070D01*
X139416183Y-150884354D01*
X139496798Y-150998041D01*
X139713838Y-151312230D01*
X138126338Y-151576817D01*
X138125304Y-151840366D01*
X138122850Y-151950049D01*
X138118070Y-152048105D01*
X138110189Y-152136859D01*
X138098433Y-152218637D01*
X138082025Y-152295764D01*
X138060192Y-152370565D01*
X138032158Y-152445367D01*
X137997147Y-152522494D01*
X137954385Y-152604273D01*
X137903096Y-152693027D01*
X137842506Y-152791084D01*
X137771839Y-152900768D01*
X137597173Y-153164319D01*
X137509290Y-153075919D01*
X137439818Y-153002828D01*
X137409987Y-152969056D01*
X137382360Y-152935551D01*
X137356138Y-152901125D01*
X137330522Y-152864592D01*
X137304712Y-152824765D01*
X137277909Y-152780457D01*
X137218126Y-152673648D01*
X137144777Y-152534672D01*
X137051469Y-152354031D01*
X136803422Y-151841397D01*
X135215922Y-151841397D01*
X135357767Y-151547241D01*
X135418622Y-151410763D01*
X135472895Y-151279600D01*
X135520682Y-151152437D01*
X135562080Y-151027963D01*
X135597185Y-150904863D01*
X135626093Y-150781823D01*
X135648902Y-150657530D01*
X135665707Y-150530670D01*
X135676605Y-150399930D01*
X135681693Y-150263996D01*
X135681066Y-150121555D01*
X135674823Y-149971292D01*
X135663058Y-149811895D01*
X135645869Y-149642049D01*
X135480506Y-148930982D01*
X135649910Y-148984232D01*
X135806785Y-149029869D01*
X135952904Y-149067797D01*
X136090038Y-149097918D01*
X136219959Y-149120136D01*
X136344440Y-149134354D01*
X136465253Y-149140475D01*
X136584168Y-149138402D01*
X136702959Y-149128038D01*
X136823398Y-149109288D01*
X136947256Y-149082053D01*
X137076305Y-149046237D01*
X137212317Y-149001744D01*
X137357065Y-148948475D01*
X137512320Y-148886336D01*
X137679854Y-148815228D01*
X138390922Y-148401814D01*
X138390922Y-150253903D01*
G37*
G36*
X129930516Y-186074984D02*
G01*
X129938705Y-186253016D01*
X129950590Y-186427975D01*
X129966415Y-186600271D01*
X129986422Y-186770310D01*
X130010855Y-186938503D01*
X130039956Y-187105258D01*
X130073967Y-187270984D01*
X130113133Y-187436090D01*
X130157695Y-187600983D01*
X130207897Y-187766074D01*
X130263981Y-187931770D01*
X130326191Y-188098481D01*
X130394769Y-188266615D01*
X130469958Y-188436582D01*
X130718005Y-188883065D01*
X129973864Y-188932673D01*
X129677920Y-188976742D01*
X129556599Y-188997511D01*
X129450493Y-189019182D01*
X129357689Y-189043062D01*
X129315678Y-189056239D01*
X129276274Y-189070458D01*
X129239239Y-189085884D01*
X129204334Y-189102680D01*
X129171319Y-189121010D01*
X129139955Y-189141036D01*
X129110003Y-189162922D01*
X129081223Y-189186832D01*
X129053377Y-189212930D01*
X129026225Y-189241378D01*
X128999528Y-189272341D01*
X128973048Y-189305982D01*
X128919776Y-189381951D01*
X128864498Y-189470593D01*
X128805299Y-189573217D01*
X128667485Y-189825642D01*
X128336757Y-190470565D01*
X127807589Y-190470565D01*
X127642224Y-189842179D01*
X127537303Y-189585411D01*
X127491474Y-189480504D01*
X127447742Y-189389215D01*
X127404361Y-189310017D01*
X127382258Y-189274475D01*
X127359589Y-189241383D01*
X127336135Y-189210551D01*
X127311680Y-189181788D01*
X127286005Y-189154904D01*
X127258891Y-189129707D01*
X127230121Y-189106006D01*
X127199478Y-189083611D01*
X127166742Y-189062332D01*
X127131696Y-189041977D01*
X127053802Y-189003277D01*
X126964051Y-188965985D01*
X126860699Y-188928576D01*
X126742003Y-188889524D01*
X126451600Y-188800383D01*
X125690923Y-188618482D01*
X125690923Y-188089314D01*
X126484673Y-187560149D01*
X126666573Y-186601033D01*
X126749255Y-185708066D01*
X126916804Y-185797524D01*
X127072585Y-185876199D01*
X127218497Y-185944378D01*
X127356437Y-186002347D01*
X127488305Y-186050392D01*
X127615997Y-186088799D01*
X127741412Y-186117853D01*
X127866449Y-186137843D01*
X127993005Y-186149052D01*
X128122979Y-186151768D01*
X128258269Y-186146277D01*
X128400774Y-186132864D01*
X128552391Y-186111816D01*
X128715018Y-186083419D01*
X128890554Y-186047959D01*
X129080897Y-186005723D01*
X129924256Y-185708066D01*
X129930516Y-186074984D01*
G37*
G36*
X124698735Y-170329160D02*
G01*
X124749030Y-170531396D01*
X124771669Y-170614302D01*
X124794090Y-170686813D01*
X124817383Y-170750234D01*
X124829696Y-170778946D01*
X124842637Y-170805875D01*
X124856340Y-170831187D01*
X124870942Y-170855044D01*
X124886580Y-170877610D01*
X124903390Y-170899048D01*
X124921507Y-170919522D01*
X124941069Y-170939195D01*
X124962211Y-170958232D01*
X124985070Y-170976795D01*
X125009782Y-170995048D01*
X125036483Y-171013154D01*
X125096397Y-171049581D01*
X125165904Y-171087383D01*
X125246092Y-171127870D01*
X125442876Y-171222127D01*
X125955506Y-171420567D01*
X125849421Y-171509499D01*
X125752081Y-171594181D01*
X125662901Y-171675670D01*
X125581295Y-171755024D01*
X125506679Y-171833298D01*
X125438468Y-171911550D01*
X125376076Y-171990838D01*
X125318918Y-172072216D01*
X125266408Y-172156744D01*
X125217963Y-172245477D01*
X125172996Y-172339473D01*
X125130922Y-172439788D01*
X125091156Y-172547480D01*
X125053113Y-172663604D01*
X125016208Y-172789219D01*
X124979855Y-172925382D01*
X124897172Y-173537232D01*
X124632590Y-173537232D01*
X124526727Y-173415899D01*
X124480465Y-173366632D01*
X124436291Y-173324157D01*
X124392436Y-173287869D01*
X124347134Y-173257161D01*
X124298615Y-173231430D01*
X124245111Y-173210068D01*
X124184854Y-173192471D01*
X124116075Y-173178032D01*
X124037007Y-173166147D01*
X123945881Y-173156209D01*
X123840928Y-173147613D01*
X123720380Y-173139754D01*
X123425427Y-173123822D01*
X122515922Y-173008065D01*
X122555958Y-172884510D01*
X122591642Y-172766636D01*
X122623029Y-172653565D01*
X122650174Y-172544423D01*
X122673130Y-172438331D01*
X122691952Y-172334415D01*
X122706695Y-172231798D01*
X122717412Y-172129604D01*
X122724158Y-172026957D01*
X122726988Y-171922980D01*
X122725954Y-171816797D01*
X122721113Y-171707532D01*
X122712518Y-171594308D01*
X122700223Y-171476251D01*
X122684282Y-171352482D01*
X122664751Y-171222127D01*
X122515922Y-170626817D01*
X123838839Y-170626817D01*
X123838839Y-170097649D01*
X124632590Y-169833066D01*
X124698735Y-170329160D01*
G37*
G36*
X138390922Y-165335149D02*
G01*
X138920087Y-165335149D01*
X139184670Y-165864316D01*
X138390922Y-166128899D01*
X138209021Y-166674603D01*
X138126338Y-167187234D01*
X138030826Y-167077154D01*
X137989654Y-167032308D01*
X137951031Y-166993451D01*
X137913575Y-166959976D01*
X137875907Y-166931279D01*
X137836646Y-166906753D01*
X137794410Y-166885793D01*
X137747819Y-166867793D01*
X137695492Y-166852148D01*
X137636049Y-166838253D01*
X137568109Y-166825501D01*
X137490290Y-166813288D01*
X137401213Y-166801007D01*
X137183761Y-166773820D01*
X136538838Y-166658067D01*
X136645126Y-166409182D01*
X136687459Y-166306092D01*
X136722874Y-166214557D01*
X136751590Y-166132566D01*
X136773824Y-166058107D01*
X136789796Y-165989172D01*
X136795501Y-165956147D01*
X136799722Y-165923749D01*
X136802486Y-165891726D01*
X136803821Y-165859827D01*
X136803753Y-165827801D01*
X136802311Y-165795397D01*
X136795410Y-165728447D01*
X136783335Y-165656968D01*
X136766306Y-165578947D01*
X136744539Y-165492376D01*
X136687667Y-165285539D01*
X136538838Y-164805982D01*
X138126338Y-164276814D01*
X138390922Y-165335149D01*
G37*
G36*
X104682766Y-160543551D02*
G01*
X105476516Y-160543551D01*
X105476516Y-161072716D01*
X104947349Y-161072716D01*
X104947349Y-162131051D01*
X103359850Y-161866467D01*
X103095266Y-160278968D01*
X104682766Y-159749800D01*
X104682766Y-160543551D01*
G37*
G36*
X53882768Y-125089385D02*
G01*
X55470270Y-125353968D01*
X55470270Y-125883135D01*
X54957635Y-126048499D01*
X54746803Y-126161115D01*
X54661095Y-126209967D01*
X54587073Y-126256172D01*
X54554103Y-126278828D01*
X54523646Y-126301477D01*
X54495565Y-126324336D01*
X54469724Y-126347623D01*
X54445988Y-126371558D01*
X54424218Y-126396357D01*
X54404280Y-126422238D01*
X54386037Y-126449421D01*
X54369353Y-126478122D01*
X54354092Y-126508559D01*
X54340117Y-126540952D01*
X54327291Y-126575517D01*
X54315480Y-126612473D01*
X54304546Y-126652037D01*
X54284766Y-126739865D01*
X54266861Y-126840744D01*
X54249740Y-126956417D01*
X54213495Y-127239127D01*
X54147348Y-127999800D01*
X53733942Y-127735221D01*
X53575605Y-127674304D01*
X53419574Y-127622133D01*
X53265420Y-127578100D01*
X53112713Y-127541599D01*
X52961024Y-127512026D01*
X52809924Y-127488773D01*
X52658984Y-127471236D01*
X52507776Y-127458809D01*
X52355869Y-127450885D01*
X52202835Y-127446860D01*
X51891670Y-127448079D01*
X51236932Y-127470637D01*
X51402299Y-126759570D01*
X51419489Y-126589725D01*
X51431254Y-126430329D01*
X51437498Y-126280067D01*
X51438125Y-126137626D01*
X51433037Y-126001692D01*
X51422139Y-125870952D01*
X51405334Y-125744092D01*
X51382525Y-125619799D01*
X51353616Y-125496759D01*
X51318511Y-125373658D01*
X51277113Y-125249183D01*
X51229326Y-125122020D01*
X51175053Y-124990856D01*
X51114197Y-124854376D01*
X50972353Y-124560218D01*
X51848787Y-124328707D01*
X52175862Y-124245144D01*
X52431209Y-124175305D01*
X52538465Y-124142504D01*
X52635564Y-124109501D01*
X52725100Y-124075085D01*
X52809662Y-124038044D01*
X52891845Y-123997167D01*
X52974239Y-123951243D01*
X53059436Y-123899061D01*
X53150028Y-123839409D01*
X53248608Y-123771077D01*
X53357767Y-123692854D01*
X53618188Y-123501887D01*
X53882768Y-125089385D01*
G37*
G36*
X39066103Y-123237303D02*
G01*
X40124437Y-123766471D01*
X39859850Y-124295634D01*
X39347223Y-124394854D01*
X39149217Y-124433955D01*
X39068037Y-124452069D01*
X38997025Y-124470614D01*
X38934899Y-124490632D01*
X38906767Y-124501519D01*
X38880375Y-124513164D01*
X38855563Y-124525699D01*
X38832169Y-124539252D01*
X38810034Y-124553955D01*
X38788997Y-124569937D01*
X38768898Y-124587330D01*
X38749576Y-124606262D01*
X38730870Y-124626864D01*
X38712620Y-124649267D01*
X38694666Y-124673600D01*
X38676848Y-124699994D01*
X38640974Y-124759486D01*
X38603715Y-124828782D01*
X38563787Y-124908926D01*
X38470789Y-125105921D01*
X38272356Y-125618552D01*
X38036708Y-125401512D01*
X37951440Y-125320897D01*
X37875475Y-125246483D01*
X37799511Y-125168968D01*
X37714245Y-125079051D01*
X37478601Y-124824801D01*
X37478601Y-124295634D01*
X36155687Y-124295634D01*
X36420267Y-123551493D01*
X36520594Y-123278490D01*
X36561032Y-123164901D01*
X36595504Y-123063389D01*
X36624397Y-122971557D01*
X36648099Y-122887006D01*
X36666997Y-122807338D01*
X36681478Y-122730156D01*
X36691931Y-122653060D01*
X36698743Y-122573653D01*
X36702301Y-122489537D01*
X36702993Y-122398314D01*
X36701207Y-122297585D01*
X36697330Y-122184953D01*
X36684854Y-121914385D01*
X39330682Y-121649802D01*
X39066103Y-123237303D01*
G37*
G36*
X118705682Y-89106055D02*
G01*
X118705682Y-89899802D01*
X119764015Y-90164389D01*
X118970265Y-92016471D01*
X116853598Y-91751891D01*
X116870135Y-91140036D01*
X116875396Y-90894936D01*
X116876375Y-90792821D01*
X116875703Y-90701391D01*
X116872969Y-90618440D01*
X116867761Y-90541765D01*
X116859667Y-90469161D01*
X116848276Y-90398424D01*
X116833175Y-90327350D01*
X116813953Y-90253734D01*
X116790198Y-90175372D01*
X116761498Y-90090060D01*
X116727442Y-89995593D01*
X116687617Y-89889767D01*
X116589016Y-89635222D01*
X117101645Y-89536002D01*
X117647348Y-89370635D01*
X117911932Y-88841468D01*
X118705682Y-89106055D01*
G37*
G36*
X108651516Y-133820635D02*
G01*
X108651516Y-134349803D01*
X109974433Y-134349803D01*
X109825604Y-134945113D01*
X109806073Y-135075468D01*
X109790132Y-135199237D01*
X109777837Y-135317294D01*
X109769242Y-135430518D01*
X109764401Y-135539783D01*
X109763367Y-135645966D01*
X109766197Y-135749943D01*
X109772943Y-135852590D01*
X109783660Y-135954784D01*
X109798403Y-136057401D01*
X109817225Y-136161317D01*
X109840181Y-136267409D01*
X109867326Y-136376551D01*
X109898713Y-136489622D01*
X109934397Y-136607496D01*
X109974433Y-136731051D01*
X109064928Y-136846808D01*
X108769975Y-136862740D01*
X108649427Y-136870599D01*
X108544474Y-136879195D01*
X108453348Y-136889133D01*
X108374280Y-136901018D01*
X108305501Y-136915457D01*
X108245244Y-136933054D01*
X108191740Y-136954416D01*
X108143221Y-136980147D01*
X108097919Y-137010855D01*
X108054064Y-137047143D01*
X108009890Y-137089618D01*
X107963628Y-137138885D01*
X107857765Y-137260218D01*
X107593183Y-137260218D01*
X107510500Y-136648368D01*
X107474147Y-136512205D01*
X107437242Y-136386590D01*
X107399199Y-136270466D01*
X107359433Y-136162774D01*
X107317359Y-136062459D01*
X107272392Y-135968463D01*
X107223947Y-135879730D01*
X107171437Y-135795202D01*
X107114279Y-135713824D01*
X107051887Y-135634536D01*
X106983676Y-135556284D01*
X106909060Y-135478010D01*
X106827454Y-135398656D01*
X106738274Y-135317167D01*
X106640934Y-135232485D01*
X106534849Y-135143553D01*
X107047479Y-134945113D01*
X107244263Y-134850856D01*
X107324451Y-134810369D01*
X107393958Y-134772567D01*
X107453872Y-134736140D01*
X107480573Y-134718034D01*
X107505285Y-134699781D01*
X107528144Y-134681218D01*
X107549286Y-134662181D01*
X107568848Y-134642508D01*
X107586965Y-134622034D01*
X107603775Y-134600596D01*
X107619413Y-134578030D01*
X107634015Y-134554173D01*
X107647718Y-134528861D01*
X107660659Y-134501932D01*
X107672972Y-134473220D01*
X107696265Y-134409799D01*
X107718686Y-134337288D01*
X107741325Y-134254382D01*
X107791620Y-134052146D01*
X107857765Y-133556052D01*
X108651516Y-133820635D01*
G37*
G36*
X58033418Y-111083007D02*
G01*
X58195653Y-111127286D01*
X58348420Y-111165387D01*
X58493041Y-111197339D01*
X58630836Y-111223170D01*
X58763126Y-111242911D01*
X58891232Y-111256591D01*
X59016475Y-111264239D01*
X59140176Y-111265884D01*
X59263656Y-111261556D01*
X59388235Y-111251283D01*
X59515235Y-111235096D01*
X59645975Y-111213024D01*
X59781778Y-111185095D01*
X59923963Y-111151340D01*
X60073853Y-111111787D01*
X60232767Y-111066466D01*
X60183160Y-111777541D01*
X60195600Y-111953126D01*
X60212509Y-112117832D01*
X60234079Y-112272903D01*
X60260505Y-112419579D01*
X60291978Y-112559103D01*
X60328692Y-112692715D01*
X60370840Y-112821658D01*
X60418614Y-112947173D01*
X60472208Y-113070502D01*
X60531814Y-113192886D01*
X60597626Y-113315567D01*
X60669836Y-113439787D01*
X60748638Y-113566788D01*
X60834224Y-113697811D01*
X61026521Y-113976889D01*
X60282381Y-114026496D01*
X59986622Y-114071714D01*
X59865246Y-114092935D01*
X59758922Y-114114975D01*
X59665688Y-114139142D01*
X59583583Y-114166744D01*
X59546090Y-114182242D01*
X59510644Y-114199089D01*
X59476998Y-114217449D01*
X59444909Y-114237486D01*
X59414130Y-114259362D01*
X59384416Y-114283241D01*
X59355522Y-114309287D01*
X59327203Y-114337664D01*
X59299213Y-114368534D01*
X59271308Y-114402062D01*
X59214768Y-114477743D01*
X59155622Y-114566016D01*
X59091908Y-114668188D01*
X58942926Y-114919463D01*
X58645265Y-115564383D01*
X58116098Y-115299803D01*
X58018949Y-114897761D01*
X57985877Y-114753326D01*
X57959006Y-114625944D01*
X57935235Y-114500112D01*
X57911464Y-114360328D01*
X57851518Y-113976889D01*
X56264017Y-113712302D01*
X56793184Y-112653968D01*
X57322351Y-112653968D01*
X57322351Y-110801886D01*
X58033418Y-111083007D01*
G37*
G36*
X118018006Y-179887231D02*
G01*
X118018006Y-181210149D01*
X116695090Y-181474732D01*
X116165923Y-180416398D01*
X116695090Y-180151814D01*
X116695090Y-179622647D01*
X118018006Y-179887231D01*
G37*
G36*
X39066103Y-145991469D02*
G01*
X40389017Y-146520636D01*
X40389017Y-147049800D01*
X38801523Y-147314383D01*
X38536935Y-148901885D01*
X38222742Y-148684843D01*
X38109054Y-148604227D01*
X38007768Y-148529813D01*
X37906482Y-148452298D01*
X37792794Y-148362381D01*
X37478601Y-148108134D01*
X37478601Y-147578967D01*
X35891100Y-147578967D01*
X36172220Y-146867900D01*
X36216501Y-146705666D01*
X36254603Y-146552899D01*
X36286555Y-146408279D01*
X36312388Y-146270484D01*
X36332130Y-146138194D01*
X36345810Y-146010087D01*
X36353459Y-145884844D01*
X36355104Y-145761143D01*
X36350776Y-145637663D01*
X36340504Y-145513084D01*
X36324317Y-145386084D01*
X36302245Y-145255343D01*
X36274316Y-145119540D01*
X36240561Y-144977355D01*
X36201008Y-144827465D01*
X36155687Y-144668551D01*
X36866754Y-144833914D01*
X37036599Y-144851103D01*
X37195995Y-144862867D01*
X37346257Y-144869110D01*
X37488698Y-144869736D01*
X37624631Y-144864649D01*
X37755371Y-144853750D01*
X37882230Y-144836945D01*
X38006523Y-144814137D01*
X38129563Y-144785229D01*
X38252663Y-144750124D01*
X38377138Y-144708727D01*
X38504301Y-144660940D01*
X38635465Y-144606667D01*
X38771944Y-144545812D01*
X39066103Y-144403968D01*
X39066103Y-145991469D01*
G37*
G36*
X152943005Y-130674733D02*
G01*
X153736756Y-130674733D01*
X153472173Y-131997655D01*
X151884671Y-132262235D01*
X151884671Y-131203900D01*
X151355504Y-130939320D01*
X152149255Y-130674733D01*
X152149255Y-130145566D01*
X152678422Y-129880986D01*
X152943005Y-130674733D01*
G37*
G36*
X157520580Y-157603964D02*
G01*
X157556035Y-157688217D01*
X157590673Y-157761482D01*
X157626070Y-157824971D01*
X157644545Y-157853427D01*
X157663800Y-157879894D01*
X157684032Y-157904522D01*
X157705437Y-157927462D01*
X157728213Y-157948867D01*
X157752556Y-157968888D01*
X157778663Y-157987675D01*
X157806731Y-158005381D01*
X157836956Y-158022156D01*
X157869536Y-158038153D01*
X157942547Y-158068416D01*
X158027338Y-158097380D01*
X158125483Y-158126256D01*
X158238557Y-158156256D01*
X158515790Y-158224473D01*
X159293004Y-158455983D01*
X159184953Y-158718462D01*
X159141929Y-158827917D01*
X159105947Y-158926046D01*
X159076791Y-159015247D01*
X159054242Y-159097918D01*
X159038081Y-159176459D01*
X159028092Y-159253265D01*
X159024056Y-159330737D01*
X159025755Y-159411271D01*
X159032971Y-159497266D01*
X159045486Y-159591121D01*
X159063083Y-159695232D01*
X159085542Y-159811999D01*
X159144177Y-160093091D01*
X159293004Y-160837232D01*
X159009198Y-160824786D01*
X158874494Y-160822159D01*
X158743672Y-160822191D01*
X158616043Y-160825080D01*
X158490918Y-160831023D01*
X158367610Y-160840218D01*
X158245428Y-160852861D01*
X158123686Y-160869150D01*
X158001695Y-160889281D01*
X157878765Y-160913453D01*
X157754208Y-160941862D01*
X157627337Y-160974705D01*
X157497461Y-161012181D01*
X157363894Y-161054485D01*
X157225945Y-161101815D01*
X156647172Y-161366399D01*
X156647172Y-160043485D01*
X156118005Y-160043485D01*
X155588838Y-158985150D01*
X156382588Y-158720567D01*
X156696782Y-158042573D01*
X156911755Y-157397649D01*
X157440923Y-157397649D01*
X157520580Y-157603964D01*
G37*
G36*
X114843007Y-125647649D02*
G01*
X115388710Y-125813016D01*
X115901339Y-125912236D01*
X115802738Y-126166781D01*
X115762913Y-126272607D01*
X115728857Y-126367074D01*
X115700157Y-126452386D01*
X115676402Y-126530748D01*
X115657180Y-126604364D01*
X115642079Y-126675438D01*
X115630688Y-126746175D01*
X115622594Y-126818779D01*
X115617386Y-126895454D01*
X115614652Y-126978405D01*
X115613980Y-127069835D01*
X115614959Y-127171950D01*
X115620220Y-127417050D01*
X115636757Y-128028905D01*
X113520090Y-128293485D01*
X112726340Y-126441403D01*
X113784673Y-126176816D01*
X113784673Y-125383069D01*
X114578423Y-125118482D01*
X114843007Y-125647649D01*
G37*
G36*
X153011868Y-171904387D02*
G01*
X153067553Y-172077226D01*
X153116260Y-172219170D01*
X153164190Y-172345721D01*
X153217546Y-172472384D01*
X153282527Y-172614660D01*
X153365336Y-172788053D01*
X153472173Y-173008065D01*
X153735205Y-173096432D01*
X153843660Y-173134220D01*
X153939326Y-173169296D01*
X154024139Y-173202821D01*
X154100039Y-173235958D01*
X154168962Y-173269871D01*
X154232847Y-173305722D01*
X154263506Y-173324737D01*
X154293631Y-173344673D01*
X154353253Y-173387887D01*
X154413650Y-173436528D01*
X154476760Y-173491757D01*
X154544520Y-173554738D01*
X154618870Y-173626633D01*
X154795087Y-173801816D01*
X153736756Y-174330983D01*
X153736756Y-176183064D01*
X153659027Y-176181499D01*
X153585671Y-176176949D01*
X153516369Y-176169638D01*
X153450802Y-176159787D01*
X153388651Y-176147617D01*
X153329595Y-176133351D01*
X153273317Y-176117211D01*
X153219497Y-176099417D01*
X153117953Y-176059758D01*
X153022409Y-176016149D01*
X152839104Y-175924176D01*
X152746235Y-175879361D01*
X152649149Y-175837692D01*
X152545293Y-175800945D01*
X152490028Y-175784970D01*
X152432113Y-175770892D01*
X152371227Y-175758931D01*
X152307053Y-175749309D01*
X152239271Y-175742248D01*
X152167561Y-175737969D01*
X152091604Y-175736695D01*
X152011081Y-175738647D01*
X151925673Y-175744047D01*
X151835061Y-175753117D01*
X151090920Y-175918481D01*
X151103376Y-175620045D01*
X151105196Y-175477854D01*
X151103981Y-175339423D01*
X151099659Y-175204058D01*
X151092158Y-175071066D01*
X151081404Y-174939754D01*
X151067326Y-174809428D01*
X151049851Y-174679396D01*
X151028907Y-174548963D01*
X151004421Y-174417436D01*
X150976322Y-174284123D01*
X150944536Y-174148329D01*
X150908991Y-174009362D01*
X150826337Y-173719132D01*
X150561753Y-173008065D01*
X150720728Y-172989464D01*
X150869340Y-172969772D01*
X151008723Y-172948306D01*
X151140010Y-172924386D01*
X151264334Y-172897329D01*
X151382829Y-172866454D01*
X151496629Y-172831080D01*
X151606866Y-172790524D01*
X151714674Y-172744106D01*
X151821186Y-172691144D01*
X151927536Y-172630956D01*
X152034858Y-172562861D01*
X152144284Y-172486177D01*
X152256947Y-172400223D01*
X152373982Y-172304317D01*
X152496522Y-172197778D01*
X152943005Y-171685151D01*
X153011868Y-171904387D01*
G37*
G36*
X63639280Y-151481572D02*
G01*
X63646164Y-151631912D01*
X63655122Y-151773262D01*
X63666517Y-151906677D01*
X63680711Y-152033215D01*
X63698067Y-152153931D01*
X63718948Y-152269883D01*
X63743718Y-152382126D01*
X63772739Y-152491719D01*
X63806375Y-152599716D01*
X63844988Y-152707176D01*
X63888941Y-152815153D01*
X63938598Y-152924706D01*
X63994321Y-153036891D01*
X64056473Y-153152763D01*
X64125417Y-153273381D01*
X64201517Y-153399800D01*
X62614019Y-153664384D01*
X62349435Y-154722718D01*
X61820268Y-154722718D01*
X61555688Y-153399800D01*
X59968187Y-153135218D01*
X60497354Y-152341468D01*
X61026521Y-152341468D01*
X61026521Y-150753968D01*
X61754121Y-150902796D01*
X62029673Y-150936672D01*
X62157303Y-150949325D01*
X62279463Y-150958847D01*
X62397126Y-150965032D01*
X62511263Y-150967675D01*
X62622845Y-150966570D01*
X62732842Y-150961510D01*
X62842227Y-150952290D01*
X62951970Y-150938703D01*
X63063043Y-150920545D01*
X63176417Y-150897609D01*
X63293064Y-150869689D01*
X63413954Y-150836580D01*
X63540059Y-150798074D01*
X63672350Y-150753968D01*
X63639280Y-151481572D01*
G37*
G36*
X45416101Y-173772716D02*
G01*
X45945268Y-174037300D01*
X45416101Y-174831050D01*
X44357767Y-174301883D01*
X44357767Y-173243550D01*
X45416101Y-172978966D01*
X45416101Y-173772716D01*
G37*
G36*
X142888837Y-182533067D02*
G01*
X142888837Y-183591397D01*
X141830506Y-183855981D01*
X141830506Y-183326814D01*
X141301339Y-183326814D01*
X141830506Y-182003899D01*
X142888837Y-182533067D01*
G37*
G36*
X115266099Y-169803967D02*
G01*
X115266099Y-171656050D01*
X113943182Y-172185217D01*
X113606392Y-171928339D01*
X113273663Y-171666140D01*
X112944965Y-171398896D01*
X112620266Y-171126883D01*
X112620266Y-170597717D01*
X113149432Y-170333133D01*
X113326398Y-170016456D01*
X113388209Y-169902146D01*
X113440508Y-169800653D01*
X113489495Y-169699575D01*
X113541372Y-169586508D01*
X113678599Y-169274800D01*
X115266099Y-169803967D01*
G37*
G36*
X176226338Y-208726814D02*
G01*
X175168004Y-208991397D01*
X175168004Y-209785148D01*
X174638837Y-210049730D01*
X174540700Y-209941303D01*
X174498497Y-209896595D01*
X174459031Y-209857156D01*
X174420919Y-209822189D01*
X174382783Y-209790894D01*
X174343240Y-209762471D01*
X174300910Y-209736121D01*
X174254412Y-209711045D01*
X174202367Y-209686443D01*
X174143392Y-209661516D01*
X174076107Y-209635464D01*
X173911085Y-209576791D01*
X173696256Y-209504027D01*
X173051335Y-209255980D01*
X173149937Y-209001435D01*
X173189762Y-208895609D01*
X173223819Y-208801143D01*
X173252518Y-208715830D01*
X173276273Y-208637469D01*
X173295496Y-208563853D01*
X173310596Y-208492778D01*
X173321988Y-208422041D01*
X173330082Y-208349437D01*
X173335290Y-208272762D01*
X173338024Y-208189810D01*
X173338695Y-208098379D01*
X173337717Y-207996264D01*
X173332456Y-207751162D01*
X173315923Y-207139314D01*
X175432584Y-206874731D01*
X176226338Y-208726814D01*
G37*
G36*
X91189016Y-147049800D02*
G01*
X90659849Y-147049800D01*
X90659849Y-147578967D01*
X89601518Y-147314383D01*
X89601518Y-146256053D01*
X90659849Y-145726885D01*
X91189016Y-147049800D01*
G37*
G36*
X148884920Y-136848550D02*
G01*
X148956968Y-136886414D01*
X149020248Y-136921639D01*
X149075969Y-136955410D01*
X149125345Y-136988914D01*
X149169585Y-137023340D01*
X149209900Y-137059873D01*
X149247503Y-137099700D01*
X149283604Y-137144008D01*
X149319414Y-137193986D01*
X149356145Y-137250818D01*
X149395007Y-137315693D01*
X149437212Y-137389796D01*
X149536496Y-137570439D01*
X149768006Y-138083066D01*
X151355504Y-137818486D01*
X151213660Y-138112644D01*
X151152805Y-138249123D01*
X151098532Y-138380287D01*
X151050745Y-138507449D01*
X151009347Y-138631924D01*
X150974243Y-138755024D01*
X150945334Y-138878063D01*
X150922526Y-139002356D01*
X150905721Y-139129215D01*
X150894823Y-139259954D01*
X150889735Y-139395888D01*
X150890361Y-139538329D01*
X150896605Y-139688591D01*
X150908369Y-139847989D01*
X150925557Y-140017835D01*
X151090920Y-140728902D01*
X150789462Y-140716143D01*
X150503593Y-140708703D01*
X150365160Y-140708192D01*
X150229014Y-140710469D01*
X150094615Y-140716020D01*
X149961427Y-140725330D01*
X149828913Y-140738886D01*
X149696534Y-140757174D01*
X149563755Y-140780679D01*
X149430037Y-140809888D01*
X149294843Y-140845287D01*
X149157637Y-140887362D01*
X149017880Y-140936598D01*
X148875035Y-140993482D01*
X148445088Y-141258069D01*
X148357723Y-141169410D01*
X148322312Y-141130931D01*
X148291868Y-141094511D01*
X148265977Y-141058769D01*
X148244228Y-141022324D01*
X148226210Y-140983797D01*
X148211511Y-140941806D01*
X148199718Y-140894970D01*
X148190420Y-140841909D01*
X148183206Y-140781241D01*
X148177662Y-140711587D01*
X148173379Y-140631565D01*
X148169943Y-140539795D01*
X148163968Y-140315488D01*
X148180505Y-139670567D01*
X147651338Y-139670567D01*
X147122170Y-138612233D01*
X148445088Y-138347653D01*
X148709672Y-136760152D01*
X148884920Y-136848550D01*
G37*
G36*
X65524435Y-130910220D02*
G01*
X65011804Y-130992900D01*
X64466100Y-131174803D01*
X64201517Y-131968550D01*
X63854253Y-131604750D01*
X63695953Y-131444416D01*
X63628963Y-131377714D01*
X63567656Y-131318116D01*
X63510216Y-131264217D01*
X63454827Y-131214612D01*
X63399671Y-131167896D01*
X63342932Y-131122664D01*
X63282794Y-131077511D01*
X63217438Y-131031032D01*
X63145050Y-130981822D01*
X63063811Y-130928476D01*
X62867516Y-130803758D01*
X62614019Y-130645636D01*
X63143186Y-129851885D01*
X63143186Y-129058135D01*
X65259851Y-129058135D01*
X65524435Y-130910220D01*
G37*
G36*
X47522434Y-114291082D02*
G01*
X47612352Y-114404770D01*
X47689868Y-114506056D01*
X47764282Y-114607340D01*
X47844897Y-114721027D01*
X48061937Y-115035216D01*
X47532770Y-116093550D01*
X46209856Y-116093550D01*
X45945268Y-114506056D01*
X46739015Y-114506056D01*
X46739015Y-113976889D01*
X47268182Y-113976889D01*
X47522434Y-114291082D01*
G37*
G36*
X79993833Y-135920764D02*
G01*
X80116373Y-136027303D01*
X80233408Y-136123209D01*
X80346071Y-136209163D01*
X80455497Y-136285847D01*
X80562819Y-136353942D01*
X80669169Y-136414130D01*
X80775681Y-136467092D01*
X80883489Y-136513510D01*
X80993726Y-136554066D01*
X81107526Y-136589440D01*
X81226021Y-136620315D01*
X81350345Y-136647372D01*
X81481632Y-136671292D01*
X81621015Y-136692758D01*
X81769627Y-136712450D01*
X81928602Y-136731051D01*
X81664018Y-137442118D01*
X81581364Y-137732348D01*
X81545819Y-137871315D01*
X81514033Y-138007109D01*
X81485934Y-138140422D01*
X81461448Y-138271949D01*
X81440504Y-138402382D01*
X81423029Y-138532414D01*
X81408951Y-138662740D01*
X81398197Y-138794052D01*
X81390696Y-138927044D01*
X81386374Y-139062409D01*
X81385159Y-139200840D01*
X81386979Y-139343031D01*
X81399435Y-139641467D01*
X80655294Y-139476103D01*
X80564682Y-139467033D01*
X80479274Y-139461633D01*
X80398751Y-139459681D01*
X80322794Y-139460955D01*
X80251084Y-139465234D01*
X80183302Y-139472295D01*
X80119128Y-139481917D01*
X80058242Y-139493878D01*
X80000327Y-139507956D01*
X79945062Y-139523931D01*
X79841206Y-139560678D01*
X79744120Y-139602347D01*
X79651251Y-139647162D01*
X79467946Y-139739135D01*
X79372402Y-139782744D01*
X79270858Y-139822403D01*
X79217038Y-139840197D01*
X79160760Y-139856337D01*
X79101704Y-139870603D01*
X79039553Y-139882773D01*
X78973986Y-139892624D01*
X78904684Y-139899935D01*
X78831328Y-139904485D01*
X78753599Y-139906050D01*
X78753599Y-138053969D01*
X77695268Y-137524802D01*
X77871485Y-137349619D01*
X77945835Y-137277724D01*
X78013595Y-137214743D01*
X78076705Y-137159514D01*
X78137102Y-137110873D01*
X78196724Y-137067659D01*
X78226849Y-137047723D01*
X78257508Y-137028708D01*
X78321393Y-136992857D01*
X78390316Y-136958944D01*
X78466216Y-136925807D01*
X78551029Y-136892282D01*
X78646695Y-136857206D01*
X78755150Y-136819418D01*
X79018182Y-136731051D01*
X79125019Y-136511039D01*
X79207828Y-136337646D01*
X79272809Y-136195370D01*
X79326165Y-136068707D01*
X79374095Y-135942156D01*
X79422802Y-135800212D01*
X79478487Y-135627373D01*
X79547350Y-135408137D01*
X79993833Y-135920764D01*
G37*
G36*
X43828600Y-95191474D02*
G01*
X43034853Y-95191474D01*
X43034853Y-95720641D01*
X42505685Y-95720641D01*
X42505685Y-95191474D01*
X41711938Y-95191474D01*
X41976518Y-93868552D01*
X43564020Y-93868552D01*
X43828600Y-95191474D01*
G37*
G36*
X193718411Y-180822826D02*
G01*
X193854890Y-180883681D01*
X193986054Y-180937954D01*
X194113217Y-180985741D01*
X194237692Y-181027138D01*
X194360792Y-181062243D01*
X194483832Y-181091151D01*
X194608125Y-181113959D01*
X194734984Y-181130764D01*
X194865724Y-181141663D01*
X195001657Y-181146750D01*
X195144098Y-181146124D01*
X195294360Y-181139881D01*
X195453756Y-181128117D01*
X195623601Y-181110928D01*
X196334668Y-180945565D01*
X196289347Y-181104479D01*
X196249794Y-181254369D01*
X196216039Y-181396554D01*
X196188110Y-181532357D01*
X196166038Y-181663098D01*
X196149851Y-181790098D01*
X196139579Y-181914677D01*
X196135251Y-182038157D01*
X196136896Y-182161858D01*
X196144545Y-182287101D01*
X196158225Y-182415208D01*
X196177967Y-182547498D01*
X196203800Y-182685293D01*
X196235752Y-182829913D01*
X196273854Y-182982680D01*
X196318135Y-183144914D01*
X196599255Y-183855981D01*
X195011754Y-183855981D01*
X195011754Y-184385148D01*
X194697561Y-184639395D01*
X194583873Y-184729312D01*
X194482587Y-184806827D01*
X194381301Y-184881241D01*
X194267613Y-184961857D01*
X193953420Y-185178899D01*
X193688832Y-183591397D01*
X192101338Y-183326814D01*
X192101338Y-182797650D01*
X193424252Y-182268483D01*
X193424252Y-180680982D01*
X193718411Y-180822826D01*
G37*
G36*
X84045267Y-102070639D02*
G01*
X85368185Y-102335219D01*
X84839017Y-103393553D01*
X84309850Y-103393553D01*
X84326387Y-104038474D01*
X84320412Y-104262781D01*
X84316976Y-104354551D01*
X84312693Y-104434573D01*
X84307149Y-104504227D01*
X84299935Y-104564895D01*
X84290637Y-104617956D01*
X84278844Y-104664792D01*
X84264145Y-104706783D01*
X84246127Y-104745310D01*
X84224378Y-104781755D01*
X84198487Y-104817497D01*
X84168043Y-104853917D01*
X84132632Y-104892396D01*
X84045267Y-104981055D01*
X83615320Y-104716468D01*
X83472475Y-104659584D01*
X83332718Y-104610348D01*
X83195512Y-104568273D01*
X83060318Y-104532874D01*
X82926600Y-104503665D01*
X82793821Y-104480160D01*
X82661442Y-104461872D01*
X82528928Y-104448316D01*
X82395740Y-104439006D01*
X82261341Y-104433455D01*
X82125195Y-104431178D01*
X81986762Y-104431689D01*
X81700893Y-104439129D01*
X81399435Y-104451888D01*
X81564798Y-103740821D01*
X81581986Y-103570975D01*
X81593750Y-103411577D01*
X81599994Y-103261315D01*
X81600620Y-103118874D01*
X81595532Y-102982940D01*
X81584634Y-102852201D01*
X81567829Y-102725342D01*
X81545021Y-102601049D01*
X81516112Y-102478010D01*
X81481008Y-102354910D01*
X81439610Y-102230435D01*
X81391823Y-102103273D01*
X81337550Y-101972109D01*
X81276695Y-101835630D01*
X81134851Y-101541472D01*
X82722349Y-101806052D01*
X82953859Y-101293425D01*
X83053143Y-101112782D01*
X83095348Y-101038679D01*
X83134210Y-100973804D01*
X83170941Y-100916972D01*
X83206751Y-100866994D01*
X83242852Y-100822686D01*
X83280455Y-100782859D01*
X83320770Y-100746326D01*
X83365010Y-100711900D01*
X83414386Y-100678396D01*
X83470107Y-100644625D01*
X83533387Y-100609400D01*
X83605435Y-100571536D01*
X83780683Y-100483138D01*
X84045267Y-102070639D01*
G37*
G36*
X150585413Y-162682590D02*
G01*
X150605560Y-162886264D01*
X150625297Y-163054356D01*
X150647724Y-163205472D01*
X150675940Y-163358214D01*
X150713047Y-163531186D01*
X150826337Y-164012235D01*
X151620088Y-164541398D01*
X151620088Y-165070565D01*
X150297170Y-165335149D01*
X150237226Y-165718589D01*
X150213456Y-165858374D01*
X150189685Y-165984207D01*
X150162813Y-166111589D01*
X150129741Y-166256025D01*
X150032590Y-166658067D01*
X149503423Y-166922650D01*
X148974255Y-165599732D01*
X147386754Y-165599732D01*
X147471373Y-165467649D01*
X147546485Y-165344170D01*
X147612478Y-165227801D01*
X147669738Y-165117045D01*
X147718653Y-165010408D01*
X147759611Y-164906394D01*
X147792998Y-164803507D01*
X147819201Y-164700252D01*
X147838609Y-164595133D01*
X147851608Y-164486656D01*
X147858586Y-164373324D01*
X147859929Y-164253642D01*
X147856025Y-164126114D01*
X147847262Y-163989246D01*
X147834026Y-163841541D01*
X147816705Y-163681504D01*
X147651338Y-162953900D01*
X148002841Y-162968295D01*
X148279089Y-162975329D01*
X148396501Y-162975116D01*
X148504111Y-162971901D01*
X148604921Y-162965295D01*
X148701936Y-162954911D01*
X148798159Y-162940361D01*
X148896593Y-162921258D01*
X149000244Y-162897214D01*
X149112114Y-162867842D01*
X149372526Y-162791561D01*
X149701859Y-162689317D01*
X150561753Y-162424733D01*
X150585413Y-162682590D01*
G37*
G36*
X175168004Y-148930982D02*
G01*
X175697171Y-148930982D01*
X176226338Y-149989316D01*
X174638837Y-150253903D01*
X174578891Y-150637342D01*
X174555120Y-150777126D01*
X174531349Y-150902958D01*
X174504478Y-151030340D01*
X174471406Y-151174775D01*
X174374257Y-151576817D01*
X173845090Y-151841397D01*
X173547429Y-151196477D01*
X173398447Y-150945202D01*
X173334733Y-150843030D01*
X173275587Y-150754757D01*
X173219047Y-150679076D01*
X173191142Y-150645548D01*
X173163152Y-150614678D01*
X173134833Y-150586301D01*
X173105939Y-150560255D01*
X173076225Y-150536376D01*
X173045446Y-150514500D01*
X173013357Y-150494463D01*
X172979711Y-150476103D01*
X172944265Y-150459256D01*
X172906772Y-150443758D01*
X172824667Y-150416156D01*
X172731433Y-150391989D01*
X172625109Y-150369949D01*
X172503733Y-150348728D01*
X172207974Y-150303510D01*
X171463834Y-150253903D01*
X171656131Y-149974825D01*
X171741717Y-149843802D01*
X171820519Y-149716801D01*
X171892729Y-149592581D01*
X171958541Y-149469900D01*
X172018147Y-149347516D01*
X172071741Y-149224187D01*
X172119515Y-149098672D01*
X172161663Y-148969729D01*
X172198377Y-148836117D01*
X172229850Y-148696593D01*
X172256276Y-148549917D01*
X172277846Y-148394846D01*
X172294755Y-148230140D01*
X172307195Y-148054555D01*
X172257588Y-147343480D01*
X172416502Y-147388801D01*
X172566392Y-147428354D01*
X172708577Y-147462109D01*
X172844380Y-147490038D01*
X172975120Y-147512110D01*
X173102120Y-147528297D01*
X173226699Y-147538570D01*
X173350179Y-147542898D01*
X173473880Y-147541253D01*
X173599123Y-147533605D01*
X173727229Y-147519925D01*
X173859519Y-147500184D01*
X173997314Y-147474353D01*
X174141935Y-147442401D01*
X174294702Y-147404300D01*
X174456937Y-147360021D01*
X175168004Y-147078900D01*
X175168004Y-148930982D01*
G37*
G36*
X129395089Y-196555982D02*
G01*
X129130505Y-198143481D01*
X127543006Y-198408065D01*
X127543006Y-197349730D01*
X127013839Y-197349730D01*
X127013839Y-196820565D01*
X127807589Y-196820565D01*
X127807589Y-196026814D01*
X129395089Y-196555982D01*
G37*
G36*
X105823782Y-150324019D02*
G01*
X106005682Y-151283135D01*
X106799432Y-151812300D01*
X106799432Y-152341468D01*
X106038755Y-152523369D01*
X105748352Y-152612510D01*
X105629656Y-152651562D01*
X105526304Y-152688971D01*
X105436553Y-152726263D01*
X105358659Y-152764963D01*
X105323613Y-152785318D01*
X105290877Y-152806597D01*
X105260234Y-152828992D01*
X105231464Y-152852693D01*
X105204350Y-152877890D01*
X105178675Y-152904774D01*
X105154220Y-152933537D01*
X105130766Y-152964369D01*
X105108097Y-152997461D01*
X105085994Y-153033003D01*
X105042613Y-153112201D01*
X104998881Y-153203490D01*
X104953052Y-153308397D01*
X104848131Y-153565165D01*
X104682766Y-154193551D01*
X104153598Y-154193551D01*
X103822870Y-153548628D01*
X103685056Y-153296203D01*
X103625857Y-153193579D01*
X103570579Y-153104937D01*
X103517307Y-153028968D01*
X103490827Y-152995327D01*
X103464130Y-152964364D01*
X103436978Y-152935916D01*
X103409132Y-152909818D01*
X103380352Y-152885908D01*
X103350400Y-152864022D01*
X103319036Y-152843996D01*
X103286021Y-152825666D01*
X103251116Y-152808870D01*
X103214081Y-152793444D01*
X103174677Y-152779225D01*
X103132666Y-152766048D01*
X103039862Y-152742168D01*
X102933756Y-152720497D01*
X102812435Y-152699728D01*
X102516491Y-152655659D01*
X101772350Y-152606051D01*
X102020397Y-152159568D01*
X102095586Y-151989601D01*
X102164164Y-151821467D01*
X102226374Y-151654756D01*
X102282458Y-151489060D01*
X102332660Y-151323969D01*
X102377222Y-151159076D01*
X102416388Y-150993970D01*
X102450399Y-150828244D01*
X102479500Y-150661489D01*
X102503933Y-150493296D01*
X102523940Y-150323257D01*
X102539765Y-150150961D01*
X102551650Y-149976002D01*
X102559839Y-149797970D01*
X102566099Y-149431052D01*
X103409458Y-149728709D01*
X103599801Y-149770945D01*
X103775337Y-149806405D01*
X103937964Y-149834802D01*
X104089581Y-149855850D01*
X104232086Y-149869263D01*
X104367376Y-149874754D01*
X104497350Y-149872038D01*
X104623906Y-149860829D01*
X104748943Y-149840839D01*
X104874358Y-149811785D01*
X105002050Y-149773378D01*
X105133918Y-149725333D01*
X105271858Y-149667364D01*
X105417770Y-149599185D01*
X105573551Y-149520510D01*
X105741100Y-149431052D01*
X105823782Y-150324019D01*
G37*
G36*
X169347169Y-166128899D02*
G01*
X169876336Y-166922650D01*
X169622839Y-167080772D01*
X169426544Y-167205490D01*
X169345305Y-167258836D01*
X169272917Y-167308046D01*
X169207561Y-167354525D01*
X169147423Y-167399678D01*
X169090684Y-167444910D01*
X169035528Y-167491626D01*
X168980139Y-167541231D01*
X168922699Y-167595130D01*
X168861392Y-167654728D01*
X168794402Y-167721430D01*
X168636102Y-167881764D01*
X168288838Y-168245564D01*
X168024255Y-167451817D01*
X167478551Y-167269914D01*
X166965920Y-167187234D01*
X167230504Y-165335149D01*
X169347169Y-165335149D01*
X169347169Y-166128899D01*
G37*
G36*
X103566555Y-120089176D02*
G01*
X103812018Y-120188394D01*
X104004771Y-120269009D01*
X104166518Y-120340322D01*
X104318964Y-120411635D01*
X104682766Y-120591468D01*
X105015072Y-120533513D01*
X105346469Y-120470320D01*
X105676744Y-120401556D01*
X106005682Y-120326888D01*
X105840318Y-121153708D01*
X105823860Y-121346742D01*
X105812916Y-121529962D01*
X105807542Y-121704620D01*
X105807795Y-121871970D01*
X105813731Y-122033266D01*
X105825407Y-122189761D01*
X105842879Y-122342710D01*
X105866203Y-122493364D01*
X105895437Y-122642979D01*
X105930636Y-122792808D01*
X105971857Y-122944104D01*
X106019156Y-123098121D01*
X106072590Y-123256113D01*
X106132215Y-123419333D01*
X106270265Y-123766471D01*
X104418182Y-123501887D01*
X104170135Y-124014517D01*
X104076827Y-124195158D01*
X104003479Y-124334134D01*
X103943696Y-124440943D01*
X103916893Y-124485251D01*
X103891084Y-124525078D01*
X103865467Y-124561611D01*
X103839246Y-124596036D01*
X103811619Y-124629541D01*
X103781788Y-124663312D01*
X103712315Y-124736402D01*
X103624433Y-124824801D01*
X103095266Y-124560218D01*
X103012584Y-123915297D01*
X102830682Y-123237303D01*
X102613109Y-123116927D01*
X102441459Y-123024447D01*
X102368010Y-122986731D01*
X102300228Y-122953663D01*
X102236176Y-122924469D01*
X102173914Y-122898373D01*
X102111506Y-122874601D01*
X102047014Y-122852377D01*
X101978499Y-122830926D01*
X101904024Y-122809473D01*
X101729443Y-122763460D01*
X101507766Y-122708136D01*
X101661762Y-122369139D01*
X101726357Y-122230840D01*
X101784752Y-122110756D01*
X101838495Y-122006951D01*
X101889138Y-121917486D01*
X101938231Y-121840424D01*
X101987323Y-121773826D01*
X102037966Y-121715754D01*
X102091709Y-121664272D01*
X102150104Y-121617440D01*
X102214699Y-121573321D01*
X102287046Y-121529977D01*
X102368695Y-121485471D01*
X102566099Y-121385218D01*
X102668121Y-120909562D01*
X102702411Y-120737938D01*
X102729689Y-120585646D01*
X102753054Y-120434081D01*
X102775608Y-120264641D01*
X102830682Y-119797721D01*
X103566555Y-120089176D01*
G37*
G36*
X82788496Y-126412303D02*
G01*
X83117829Y-126514547D01*
X83378241Y-126590828D01*
X83490111Y-126620200D01*
X83593762Y-126644244D01*
X83692196Y-126663347D01*
X83788419Y-126677897D01*
X83885434Y-126688281D01*
X83986244Y-126694887D01*
X84093854Y-126698102D01*
X84211266Y-126698315D01*
X84487514Y-126691281D01*
X84839017Y-126676886D01*
X84673650Y-127404490D01*
X84656329Y-127564527D01*
X84643093Y-127712232D01*
X84634330Y-127849100D01*
X84630426Y-127976628D01*
X84631769Y-128096310D01*
X84638747Y-128209642D01*
X84651746Y-128318119D01*
X84671154Y-128423238D01*
X84697357Y-128526493D01*
X84730744Y-128629380D01*
X84771702Y-128733394D01*
X84820617Y-128840031D01*
X84877877Y-128950787D01*
X84943870Y-129067156D01*
X85018982Y-129190635D01*
X85103601Y-129322718D01*
X83516100Y-129322718D01*
X82986932Y-130645636D01*
X82457765Y-130381053D01*
X82360614Y-129979011D01*
X82327542Y-129834575D01*
X82300670Y-129707193D01*
X82276899Y-129581360D01*
X82253129Y-129441575D01*
X82193185Y-129058135D01*
X80870267Y-128793551D01*
X80870267Y-128264384D01*
X81664018Y-127735221D01*
X81777308Y-127254172D01*
X81814415Y-127081200D01*
X81842631Y-126928458D01*
X81865058Y-126777342D01*
X81884795Y-126609250D01*
X81904942Y-126405576D01*
X81928602Y-126147719D01*
X82788496Y-126412303D01*
G37*
G36*
X112884849Y-119533137D02*
G01*
X113414015Y-119533137D01*
X113149432Y-120856051D01*
X111826516Y-120591468D01*
X111561932Y-119268553D01*
X112884849Y-119003970D01*
X112884849Y-119533137D01*
G37*
G36*
X169574945Y-128622184D02*
G01*
X169795965Y-128677271D01*
X170012959Y-128723702D01*
X170228658Y-128761853D01*
X170445792Y-128792100D01*
X170667091Y-128814820D01*
X170895286Y-128830390D01*
X171133107Y-128839185D01*
X171728421Y-128822652D01*
X171709159Y-129161352D01*
X171702615Y-129301327D01*
X171698648Y-129425206D01*
X171697643Y-129535607D01*
X171699989Y-129635144D01*
X171706074Y-129726434D01*
X171716284Y-129812093D01*
X171731007Y-129894737D01*
X171750632Y-129976983D01*
X171775544Y-130061446D01*
X171806133Y-130150742D01*
X171842786Y-130247488D01*
X171885890Y-130354300D01*
X171993001Y-130608586D01*
X172257588Y-131203900D01*
X171986503Y-131241683D01*
X171859986Y-131261123D01*
X171738639Y-131281847D01*
X171621830Y-131304547D01*
X171508925Y-131329911D01*
X171399290Y-131358631D01*
X171292290Y-131391395D01*
X171187292Y-131428893D01*
X171083662Y-131471815D01*
X170980766Y-131520852D01*
X170877970Y-131576693D01*
X170774641Y-131640028D01*
X170670145Y-131711546D01*
X170563847Y-131791938D01*
X170455113Y-131881894D01*
X170140920Y-132262235D01*
X170041222Y-132019181D01*
X169993291Y-131909462D01*
X169945438Y-131806719D01*
X169896763Y-131710278D01*
X169846364Y-131619469D01*
X169793343Y-131533618D01*
X169736797Y-131452053D01*
X169675827Y-131374102D01*
X169609532Y-131299094D01*
X169537012Y-131226355D01*
X169457366Y-131155213D01*
X169369694Y-131084996D01*
X169273095Y-131015032D01*
X169166669Y-130944649D01*
X169049516Y-130873174D01*
X168553422Y-130674733D01*
X168652247Y-130486368D01*
X168729535Y-130335174D01*
X168791682Y-130205261D01*
X168845083Y-130080739D01*
X168896133Y-129945717D01*
X168951226Y-129784304D01*
X169099122Y-129318746D01*
X169347169Y-128558064D01*
X169574945Y-128622184D01*
G37*
G36*
X120134673Y-135701817D02*
G01*
X120304947Y-135729463D01*
X120439564Y-135752459D01*
X120550927Y-135773904D01*
X120651438Y-135796901D01*
X120753499Y-135824548D01*
X120869512Y-135859948D01*
X121011881Y-135906200D01*
X121193006Y-135966405D01*
X121457590Y-136760152D01*
X120134673Y-137024732D01*
X120133640Y-137375615D01*
X120131185Y-137520632D01*
X120126405Y-137648983D01*
X120118524Y-137763382D01*
X120106768Y-137866542D01*
X120090360Y-137961174D01*
X120080170Y-138006141D01*
X120068527Y-138049993D01*
X120055333Y-138093071D01*
X120040493Y-138135712D01*
X120023908Y-138178256D01*
X120005482Y-138221043D01*
X119962720Y-138308700D01*
X119911431Y-138401395D01*
X119850840Y-138501841D01*
X119780172Y-138612752D01*
X119605506Y-138876820D01*
X119517624Y-138788420D01*
X119448152Y-138715329D01*
X119418321Y-138681558D01*
X119390694Y-138648052D01*
X119364472Y-138613627D01*
X119338856Y-138577094D01*
X119313046Y-138537267D01*
X119286243Y-138492958D01*
X119226460Y-138386150D01*
X119153111Y-138247173D01*
X119059803Y-138066533D01*
X118811756Y-137553899D01*
X116959673Y-137818486D01*
X117101517Y-137524328D01*
X117162373Y-137387848D01*
X117216646Y-137256684D01*
X117264433Y-137129521D01*
X117305830Y-137005047D01*
X117340935Y-136881946D01*
X117369844Y-136758906D01*
X117392652Y-136634613D01*
X117409457Y-136507754D01*
X117420355Y-136377014D01*
X117425443Y-136241081D01*
X117424817Y-136098640D01*
X117418574Y-135948379D01*
X117406809Y-135788982D01*
X117389621Y-135619138D01*
X117224256Y-134908070D01*
X117554939Y-134914438D01*
X117885705Y-134916353D01*
X118216475Y-134914127D01*
X118547173Y-134908070D01*
X120134673Y-134114316D01*
X120134673Y-135701817D01*
G37*
G36*
X171463834Y-188618482D02*
G01*
X171993001Y-188618482D01*
X172522168Y-189412232D01*
X170934667Y-189676814D01*
X170670087Y-190999732D01*
X170140920Y-190999732D01*
X169876336Y-189941398D01*
X168288838Y-189676814D01*
X168364938Y-189550395D01*
X168433882Y-189429777D01*
X168496034Y-189313905D01*
X168551757Y-189201720D01*
X168601414Y-189092167D01*
X168645367Y-188984190D01*
X168683980Y-188876730D01*
X168717616Y-188768733D01*
X168746637Y-188659140D01*
X168771407Y-188546897D01*
X168792288Y-188430945D01*
X168809644Y-188310229D01*
X168823838Y-188183691D01*
X168835233Y-188050276D01*
X168844191Y-187908926D01*
X168851075Y-187758586D01*
X168818005Y-187030982D01*
X168950296Y-187075088D01*
X169076401Y-187113594D01*
X169197291Y-187146703D01*
X169313938Y-187174623D01*
X169427312Y-187197559D01*
X169538385Y-187215717D01*
X169648128Y-187229304D01*
X169757513Y-187238524D01*
X169867510Y-187243584D01*
X169979092Y-187244689D01*
X170093229Y-187242046D01*
X170210892Y-187235861D01*
X170333052Y-187226339D01*
X170460682Y-187213686D01*
X170736234Y-187179810D01*
X171463834Y-187030982D01*
X171463834Y-188618482D01*
G37*
G36*
X100995136Y-95075713D02*
G01*
X101176064Y-95159290D01*
X101348760Y-95229020D01*
X101514514Y-95285688D01*
X101674616Y-95330082D01*
X101830355Y-95362986D01*
X101983022Y-95385187D01*
X102133906Y-95397471D01*
X102284296Y-95400624D01*
X102435483Y-95395432D01*
X102588757Y-95382682D01*
X102745406Y-95363160D01*
X102906721Y-95337651D01*
X103248507Y-95271818D01*
X103624433Y-95191474D01*
X103459068Y-96034827D01*
X103442573Y-96217398D01*
X103430458Y-96388190D01*
X103423025Y-96548675D01*
X103420572Y-96700325D01*
X103423401Y-96844610D01*
X103431812Y-96983001D01*
X103446106Y-97116971D01*
X103466582Y-97247989D01*
X103493542Y-97377529D01*
X103527285Y-97507060D01*
X103568112Y-97638054D01*
X103616323Y-97771983D01*
X103672218Y-97910318D01*
X103736099Y-98054529D01*
X103808265Y-98206089D01*
X103889017Y-98366469D01*
X103012584Y-98581443D01*
X102707787Y-98681091D01*
X102571123Y-98728080D01*
X102443560Y-98774614D01*
X102324054Y-98821769D01*
X102211563Y-98870622D01*
X102105046Y-98922250D01*
X102003459Y-98977729D01*
X101905760Y-99038135D01*
X101810908Y-99104546D01*
X101717859Y-99178038D01*
X101625571Y-99259687D01*
X101533001Y-99350571D01*
X101439109Y-99451765D01*
X101342850Y-99564346D01*
X101243183Y-99689391D01*
X101150036Y-99595986D01*
X101068516Y-99512657D01*
X100997849Y-99437080D01*
X100966342Y-99401472D01*
X100937258Y-99366930D01*
X100910499Y-99333162D01*
X100885969Y-99299879D01*
X100863571Y-99266790D01*
X100843207Y-99233604D01*
X100824781Y-99200031D01*
X100808196Y-99165779D01*
X100793355Y-99130558D01*
X100780161Y-99094078D01*
X100768518Y-99056047D01*
X100758328Y-99016175D01*
X100749495Y-98974172D01*
X100741921Y-98929747D01*
X100735510Y-98882608D01*
X100730164Y-98832466D01*
X100725788Y-98779029D01*
X100722284Y-98722007D01*
X100717504Y-98596046D01*
X100715049Y-98452256D01*
X100714016Y-98101889D01*
X99126516Y-97572722D01*
X99126516Y-97043555D01*
X100449432Y-96514388D01*
X100449432Y-94662306D01*
X100995136Y-95075713D01*
G37*
G36*
X77959852Y-153928967D02*
G01*
X77166101Y-154193551D01*
X77166101Y-154722718D01*
X76636934Y-154722718D01*
X76488881Y-154568722D01*
X76373384Y-154445732D01*
X76324938Y-154391989D01*
X76281142Y-154341346D01*
X76240835Y-154292254D01*
X76202852Y-154243161D01*
X76166033Y-154192518D01*
X76129213Y-154138774D01*
X76091231Y-154080380D01*
X76050923Y-154015784D01*
X75958680Y-153861788D01*
X75843183Y-153664384D01*
X75870830Y-153466980D01*
X75893827Y-153312984D01*
X75915273Y-153189994D01*
X75926383Y-153136251D01*
X75938269Y-153085608D01*
X75951317Y-153036515D01*
X75965916Y-152987423D01*
X75982452Y-152936780D01*
X76001314Y-152883036D01*
X76047564Y-152760047D01*
X76107767Y-152606051D01*
X77695268Y-152606051D01*
X77959852Y-153928967D01*
G37*
D11*
X114145489Y-143490828D02*
X114145489Y-142490828D01*
X114145489Y-142633685D02*
X114074060Y-142562257D01*
X114074060Y-142562257D02*
X113931203Y-142490828D01*
X113931203Y-142490828D02*
X113716917Y-142490828D01*
X113716917Y-142490828D02*
X113574060Y-142562257D01*
X113574060Y-142562257D02*
X113502632Y-142705114D01*
X113502632Y-142705114D02*
X113502632Y-143490828D01*
X113502632Y-142705114D02*
X113431203Y-142562257D01*
X113431203Y-142562257D02*
X113288346Y-142490828D01*
X113288346Y-142490828D02*
X113074060Y-142490828D01*
X113074060Y-142490828D02*
X112931203Y-142562257D01*
X112931203Y-142562257D02*
X112859774Y-142705114D01*
X112859774Y-142705114D02*
X112859774Y-143490828D01*
X111502632Y-143490828D02*
X111502632Y-142705114D01*
X111502632Y-142705114D02*
X111574060Y-142562257D01*
X111574060Y-142562257D02*
X111716917Y-142490828D01*
X111716917Y-142490828D02*
X112002632Y-142490828D01*
X112002632Y-142490828D02*
X112145489Y-142562257D01*
X111502632Y-143419400D02*
X111645489Y-143490828D01*
X111645489Y-143490828D02*
X112002632Y-143490828D01*
X112002632Y-143490828D02*
X112145489Y-143419400D01*
X112145489Y-143419400D02*
X112216917Y-143276542D01*
X112216917Y-143276542D02*
X112216917Y-143133685D01*
X112216917Y-143133685D02*
X112145489Y-142990828D01*
X112145489Y-142990828D02*
X112002632Y-142919400D01*
X112002632Y-142919400D02*
X111645489Y-142919400D01*
X111645489Y-142919400D02*
X111502632Y-142847971D01*
X110145489Y-143490828D02*
X110145489Y-141990828D01*
X110145489Y-143419400D02*
X110288346Y-143490828D01*
X110288346Y-143490828D02*
X110574060Y-143490828D01*
X110574060Y-143490828D02*
X110716917Y-143419400D01*
X110716917Y-143419400D02*
X110788346Y-143347971D01*
X110788346Y-143347971D02*
X110859774Y-143205114D01*
X110859774Y-143205114D02*
X110859774Y-142776542D01*
X110859774Y-142776542D02*
X110788346Y-142633685D01*
X110788346Y-142633685D02*
X110716917Y-142562257D01*
X110716917Y-142562257D02*
X110574060Y-142490828D01*
X110574060Y-142490828D02*
X110288346Y-142490828D01*
X110288346Y-142490828D02*
X110145489Y-142562257D01*
X108859774Y-143419400D02*
X109002631Y-143490828D01*
X109002631Y-143490828D02*
X109288346Y-143490828D01*
X109288346Y-143490828D02*
X109431203Y-143419400D01*
X109431203Y-143419400D02*
X109502631Y-143276542D01*
X109502631Y-143276542D02*
X109502631Y-142705114D01*
X109502631Y-142705114D02*
X109431203Y-142562257D01*
X109431203Y-142562257D02*
X109288346Y-142490828D01*
X109288346Y-142490828D02*
X109002631Y-142490828D01*
X109002631Y-142490828D02*
X108859774Y-142562257D01*
X108859774Y-142562257D02*
X108788346Y-142705114D01*
X108788346Y-142705114D02*
X108788346Y-142847971D01*
X108788346Y-142847971D02*
X109502631Y-142990828D01*
X107145489Y-142490828D02*
X106859775Y-143490828D01*
X106859775Y-143490828D02*
X106574060Y-142776542D01*
X106574060Y-142776542D02*
X106288346Y-143490828D01*
X106288346Y-143490828D02*
X106002632Y-142490828D01*
X105431203Y-143490828D02*
X105431203Y-142490828D01*
X105431203Y-141990828D02*
X105502631Y-142062257D01*
X105502631Y-142062257D02*
X105431203Y-142133685D01*
X105431203Y-142133685D02*
X105359774Y-142062257D01*
X105359774Y-142062257D02*
X105431203Y-141990828D01*
X105431203Y-141990828D02*
X105431203Y-142133685D01*
X104931202Y-142490828D02*
X104359774Y-142490828D01*
X104716917Y-141990828D02*
X104716917Y-143276542D01*
X104716917Y-143276542D02*
X104645488Y-143419400D01*
X104645488Y-143419400D02*
X104502631Y-143490828D01*
X104502631Y-143490828D02*
X104359774Y-143490828D01*
X103859774Y-143490828D02*
X103859774Y-141990828D01*
X103216917Y-143490828D02*
X103216917Y-142705114D01*
X103216917Y-142705114D02*
X103288345Y-142562257D01*
X103288345Y-142562257D02*
X103431202Y-142490828D01*
X103431202Y-142490828D02*
X103645488Y-142490828D01*
X103645488Y-142490828D02*
X103788345Y-142562257D01*
X103788345Y-142562257D02*
X103859774Y-142633685D01*
X100216917Y-142490828D02*
X101359774Y-142919400D01*
X101359774Y-142919400D02*
X100216917Y-143347971D01*
X99645488Y-141990828D02*
X98716916Y-141990828D01*
X98716916Y-141990828D02*
X99216916Y-142562257D01*
X99216916Y-142562257D02*
X99002631Y-142562257D01*
X99002631Y-142562257D02*
X98859774Y-142633685D01*
X98859774Y-142633685D02*
X98788345Y-142705114D01*
X98788345Y-142705114D02*
X98716916Y-142847971D01*
X98716916Y-142847971D02*
X98716916Y-143205114D01*
X98716916Y-143205114D02*
X98788345Y-143347971D01*
X98788345Y-143347971D02*
X98859774Y-143419400D01*
X98859774Y-143419400D02*
X99002631Y-143490828D01*
X99002631Y-143490828D02*
X99431202Y-143490828D01*
X99431202Y-143490828D02*
X99574059Y-143419400D01*
X99574059Y-143419400D02*
X99645488Y-143347971D01*
X96931203Y-143490828D02*
X96931203Y-141990828D01*
X96931203Y-142562257D02*
X96788346Y-142490828D01*
X96788346Y-142490828D02*
X96502631Y-142490828D01*
X96502631Y-142490828D02*
X96359774Y-142562257D01*
X96359774Y-142562257D02*
X96288346Y-142633685D01*
X96288346Y-142633685D02*
X96216917Y-142776542D01*
X96216917Y-142776542D02*
X96216917Y-143205114D01*
X96216917Y-143205114D02*
X96288346Y-143347971D01*
X96288346Y-143347971D02*
X96359774Y-143419400D01*
X96359774Y-143419400D02*
X96502631Y-143490828D01*
X96502631Y-143490828D02*
X96788346Y-143490828D01*
X96788346Y-143490828D02*
X96931203Y-143419400D01*
X95716917Y-142490828D02*
X95359774Y-143490828D01*
X95002631Y-142490828D02*
X95359774Y-143490828D01*
X95359774Y-143490828D02*
X95502631Y-143847971D01*
X95502631Y-143847971D02*
X95574060Y-143919400D01*
X95574060Y-143919400D02*
X95716917Y-143990828D01*
X93359774Y-143419400D02*
X93216917Y-143490828D01*
X93216917Y-143490828D02*
X92931203Y-143490828D01*
X92931203Y-143490828D02*
X92788346Y-143419400D01*
X92788346Y-143419400D02*
X92716917Y-143276542D01*
X92716917Y-143276542D02*
X92716917Y-143205114D01*
X92716917Y-143205114D02*
X92788346Y-143062257D01*
X92788346Y-143062257D02*
X92931203Y-142990828D01*
X92931203Y-142990828D02*
X93145489Y-142990828D01*
X93145489Y-142990828D02*
X93288346Y-142919400D01*
X93288346Y-142919400D02*
X93359774Y-142776542D01*
X93359774Y-142776542D02*
X93359774Y-142705114D01*
X93359774Y-142705114D02*
X93288346Y-142562257D01*
X93288346Y-142562257D02*
X93145489Y-142490828D01*
X93145489Y-142490828D02*
X92931203Y-142490828D01*
X92931203Y-142490828D02*
X92788346Y-142562257D01*
X92074060Y-143490828D02*
X92074060Y-141990828D01*
X91431203Y-143490828D02*
X91431203Y-142705114D01*
X91431203Y-142705114D02*
X91502631Y-142562257D01*
X91502631Y-142562257D02*
X91645488Y-142490828D01*
X91645488Y-142490828D02*
X91859774Y-142490828D01*
X91859774Y-142490828D02*
X92002631Y-142562257D01*
X92002631Y-142562257D02*
X92074060Y-142633685D01*
X90716917Y-143490828D02*
X90716917Y-142490828D01*
X90716917Y-142776542D02*
X90645488Y-142633685D01*
X90645488Y-142633685D02*
X90574060Y-142562257D01*
X90574060Y-142562257D02*
X90431202Y-142490828D01*
X90431202Y-142490828D02*
X90288345Y-142490828D01*
X89216917Y-143419400D02*
X89359774Y-143490828D01*
X89359774Y-143490828D02*
X89645489Y-143490828D01*
X89645489Y-143490828D02*
X89788346Y-143419400D01*
X89788346Y-143419400D02*
X89859774Y-143276542D01*
X89859774Y-143276542D02*
X89859774Y-142705114D01*
X89859774Y-142705114D02*
X89788346Y-142562257D01*
X89788346Y-142562257D02*
X89645489Y-142490828D01*
X89645489Y-142490828D02*
X89359774Y-142490828D01*
X89359774Y-142490828D02*
X89216917Y-142562257D01*
X89216917Y-142562257D02*
X89145489Y-142705114D01*
X89145489Y-142705114D02*
X89145489Y-142847971D01*
X89145489Y-142847971D02*
X89859774Y-142990828D01*
X88645489Y-142490828D02*
X88288346Y-143490828D01*
X87931203Y-142490828D02*
X88288346Y-143490828D01*
X88288346Y-143490828D02*
X88431203Y-143847971D01*
X88431203Y-143847971D02*
X88502632Y-143919400D01*
X88502632Y-143919400D02*
X88645489Y-143990828D01*
X86716918Y-143490828D02*
X86716918Y-142705114D01*
X86716918Y-142705114D02*
X86788346Y-142562257D01*
X86788346Y-142562257D02*
X86931203Y-142490828D01*
X86931203Y-142490828D02*
X87216918Y-142490828D01*
X87216918Y-142490828D02*
X87359775Y-142562257D01*
X86716918Y-143419400D02*
X86859775Y-143490828D01*
X86859775Y-143490828D02*
X87216918Y-143490828D01*
X87216918Y-143490828D02*
X87359775Y-143419400D01*
X87359775Y-143419400D02*
X87431203Y-143276542D01*
X87431203Y-143276542D02*
X87431203Y-143133685D01*
X87431203Y-143133685D02*
X87359775Y-142990828D01*
X87359775Y-142990828D02*
X87216918Y-142919400D01*
X87216918Y-142919400D02*
X86859775Y-142919400D01*
X86859775Y-142919400D02*
X86716918Y-142847971D01*
M02*
