<?xml version="1.0" encoding="UTF-8"?>
<svg version="1.1" xmlns="http://www.w3.org/2000/svg" width="606" height="412">
<path d="M0 0 C199.98 0 399.96 0 606 0 C606 135.96 606 271.92 606 412 C406.02 412 206.04 412 0 412 C0 276.04 0 140.08 0 0 Z M52 23 C52 23.33 52 23.66 52 24 C213.37 24 374.74 24 541 24 C541 23.67 541 23.34 541 23 C379.63 23 218.26 23 52 23 Z M38 27 C37.67 27.66 37.34 28.32 37 29 C38.32 28.34 39.64 27.68 41 27 C40.01 27 39.02 27 38 27 Z M554 28 C554.33 28.66 554.66 29.32 555 30 C555.66 29.67 556.32 29.34 557 29 C556.01 28.67 555.02 28.34 554 28 Z M33 30 C32.01 31.485 32.01 31.485 31 33 C32.32 32.34 33.64 31.68 35 31 C34.34 30.67 33.68 30.34 33 30 Z M560 32 C560.99 33.485 560.99 33.485 562 35 C562.66 34.67 563.32 34.34 564 34 C562.68 33.34 561.36 32.68 560 32 Z M570 42 C571 44 571 44 571 44 Z M21 43 C22 45 22 45 22 45 Z M571 44 C571.33 44.99 571.66 45.98 572 47 C572 46.01 572 45.02 572 44 C571.67 44 571.34 44 571 44 Z M20 45 C19.01 46.485 19.01 46.485 18 48 C18.33 48.99 18.66 49.98 19 51 C19.66 49.02 20.32 47.04 21 45 C20.67 45 20.34 45 20 45 Z M573 47 C573.33 48.65 573.66 50.3 574 52 C574.33 51.01 574.66 50.02 575 49 C574.34 48.34 573.68 47.68 573 47 Z M17 51 C13.03197076 58.93605848 13.85415238 68.81661432 13.87301636 77.46815491 C13.87145637 78.58107531 13.86989638 79.6939957 13.86828911 80.84064096 C13.86431959 84.54750156 13.86745302 88.25432078 13.87060547 91.96118164 C13.86924964 94.62782408 13.86750467 97.29446373 13.86529541 99.96110535 C13.86086105 106.43850511 13.86180374 112.91589324 13.86470805 119.39329345 C13.86697107 124.65947379 13.86727071 129.9256509 13.86618423 135.19183159 C13.866031 135.94277644 13.86587777 136.69372129 13.86571989 137.46742205 C13.86540015 138.99317913 13.86507594 140.51893621 13.8647473 142.04469328 C13.8618994 156.33368085 13.86516882 170.62266199 13.87054767 184.9116485 C13.87501599 197.16091016 13.8742382 209.41016234 13.86962891 221.65942383 C13.86427255 235.9005985 13.86217306 250.14176755 13.86524117 264.38294309 C13.8655597 265.90262345 13.86587408 267.42230381 13.86618423 268.94198418 C13.86633851 269.68960588 13.86649279 270.43722759 13.86665174 271.2075045 C13.86751363 276.46526808 13.86606108 281.72302807 13.86370468 286.98079109 C13.86089474 293.39113287 13.86167017 299.80146241 13.86698543 306.21180279 C13.86960618 309.47975026 13.87011309 312.74767323 13.86733627 316.01562119 C13.86459982 319.5633773 13.86803646 323.11107625 13.87301636 326.65882874 C13.87078564 327.6841299 13.86855491 328.70943107 13.86625659 329.76580197 C13.88209205 335.59072786 14.25009031 341.22220898 15 347 C15.33 347 15.66 347 16 347 C16.00173625 346.39114281 16.0034725 345.78228562 16.00526136 345.15497822 C16.10828094 309.07222793 16.21639155 272.98949623 16.33111694 236.90678119 C16.34488658 232.57465438 16.35861367 228.24252743 16.37231445 223.91040039 C16.37504276 223.04794889 16.37777106 222.1854974 16.38058204 221.29691101 C16.42466162 207.3307169 16.46529372 193.36451478 16.50465261 179.39830666 C16.54511268 165.06857334 16.58927557 150.73885489 16.63687855 136.40914351 C16.66613722 127.56637939 16.69250486 118.72361635 16.71517897 109.88083286 C16.73100234 103.81768911 16.75042116 97.75456353 16.77266841 91.69143998 C16.78539916 88.19293843 16.79654358 84.69445076 16.80341911 81.19593239 C16.81170275 77.40170357 16.82598594 73.60754313 16.84178162 69.81333923 C16.84275972 68.70924507 16.84373783 67.6051509 16.84474558 66.46759933 C16.8729704 61.20544998 17.07991241 56.18448486 18 51 C17.67 51 17.34 51 17 51 Z M575 52 C576 55 576 55 576 55 Z M576 55 C576 152.35 576 249.7 576 350 C577.8382032 346.3235936 578.25093368 345.23873349 578.26450634 341.41224766 C578.27258853 340.49065092 578.28067072 339.56905418 578.28899783 338.61953026 C578.28774521 337.61051389 578.2864926 336.60149753 578.28520203 335.56190491 C578.29494898 333.94966629 578.29494898 333.94966629 578.30489284 332.30485719 C578.32429358 328.69027452 578.32946004 325.07581055 578.3347168 321.46118164 C578.3456491 318.87400451 578.3574394 316.28683087 578.37002563 313.69966125 C578.39908806 307.38988296 578.41752016 301.08011588 578.43236574 294.77028985 C578.45006726 287.40713354 578.47809529 280.04402735 578.50649796 272.68090587 C578.55688658 259.52207263 578.59761705 246.36322692 578.63305664 233.2043457 C578.66734976 220.47351856 578.7087411 207.74274083 578.75805664 195.01196289 C578.76108359 194.23034643 578.76411054 193.44872996 578.76722922 192.64342815 C578.77025126 191.8630927 578.7732733 191.08275725 578.77638692 190.27877527 C578.83256707 175.75305821 578.88159593 161.22732409 578.92758697 146.70157145 C578.94394907 141.5877694 578.96244322 136.47397764 578.98166466 131.36018562 C579.00752514 124.44175672 579.02731399 117.52333039 579.043293 110.60487175 C579.04993594 108.08035617 579.05834141 105.55584443 579.06874657 103.03134155 C579.1157027 91.37375592 579.09761065 79.72849964 578.62165833 68.07884216 C578.59101656 67.21316339 578.56037479 66.34748461 578.52880448 65.45557314 C578.49031933 64.65986908 578.45183418 63.86416502 578.41218281 63.04434872 C578.38110221 62.35569475 578.35002162 61.66704079 578.31799918 60.95751852 C578.02830105 58.55992352 578.02830105 58.55992352 576 55 Z M16 347 C17 351 17 351 17 351 Z M575 350 C576 353 576 353 576 353 Z M17 351 C18 354 18 354 18 354 Z M574 353 C575 355 575 355 575 355 Z M18 354 C18.33 355.32 18.66 356.64 19 358 C19.33 357.34 19.66 356.68 20 356 C19.34 355.34 18.68 354.68 18 354 Z M573 355 C574 357 574 357 574 357 Z M572 357 C573 359 573 359 573 359 Z M20 358 C21 360 21 360 21 360 Z M571 359 C572 361 572 361 572 361 Z M24 364 C25 366 25 366 25 366 Z M565 367 C563.515 368.98 563.515 368.98 562 371 C563.32 370.34 564.64 369.68 566 369 C565.67 368.34 565.34 367.68 565 367 Z M47 380 C47 380.33 47 380.66 47 381 C48.65 381 50.3 381 52 381 C52 380.67 52 380.34 52 380 C50.35 380 48.7 380 47 380 Z M52 381 C52 381.33 52 381.66 52 382 C212.05 382 372.1 382 537 382 C537 381.67 537 381.34 537 381 C376.95 381 216.9 381 52 381 Z " fill="#000000" transform="translate(0,0)"/>
</svg>
